SplineFontDB: 3.2
FontName: hindi8dot
FullName: hindi8dot
FamilyName: hindi8dot
Weight: Book
Copyright: Copyright (c) 2003 by Muthu Nedumaran. All rights reserved.
Version: 1.000
ItalicAngle: 0
UnderlinePosition: -205
UnderlineWidth: 102
Ascent: 1638
Descent: 410
InvalidEm: 0
sfntRevision: 0x00010000
LayerCount: 2
Layer: 0 1 "Back" 1
Layer: 1 1 "Fore" 0
XUID: [1021 467 -1121320856 10967018]
StyleMap: 0x0040
FSType: 0
OS2Version: 3
OS2_WeightWidthSlopeOnly: 0
OS2_UseTypoMetrics: 0
CreationTime: 1261065660
ModificationTime: 1643104955
PfmFamily: 17
TTFWeight: 400
TTFWidth: 5
LineGap: 240
VLineGap: 0
Panose: 2 0 0 0 0 0 0 0 0 0
OS2TypoAscent: 1664
OS2TypoAOffset: 0
OS2TypoDescent: -768
OS2TypoDOffset: 0
OS2TypoLinegap: 240
OS2WinAscent: 1664
OS2WinAOffset: 0
OS2WinDescent: 768
OS2WinDOffset: 0
HheadAscent: 1664
HheadAOffset: 0
HheadDescent: -768
HheadDOffset: 0
OS2SubXSize: 1433
OS2SubYSize: 1331
OS2SubXOff: 0
OS2SubYOff: 286
OS2SupXSize: 1433
OS2SupYSize: 1331
OS2SupXOff: 0
OS2SupYOff: 976
OS2StrikeYSize: 102
OS2StrikeYPos: 512
OS2CapHeight: 1356
OS2XHeight: 1118
OS2Vendor: 'MUTF'
OS2CodePages: 00000001.00000000
OS2UnicodeRanges: 80008003.00002040.00000000.00000000
Lookup: 4 0 0 "<27,0> Canonical Decomposition in Devanagari lookup 0" { "<27,0> Canonical Decomposition in Devanagari lookup 0 subtable"  } [<27,0> ('deva' <'dflt' > ) ]
Lookup: 1 0 0 "<17,16> Show Invisibles lookup 1" { "<17,16> Show Invisibles lookup 1 subtable"  } [<17,16> ('DFLT' <'dflt' > 'deva' <'dflt' > 'latn' <'dflt' > ) ]
Lookup: 254 0 0 "<5,0> Linguistic Rearrangement in Devanagari lookup 2" { "<5,0> Linguistic Rearrangement in Devanagari lookup 2 subtable"  } [<5,0> ('DFLT' <'dflt' > 'deva' <'dflt' > ) ]
Lookup: 1 0 0 "<5,0> Linguistic Rearrangement in Devanagari lookup 2 nested-substitutions 0" { "<5,0> Linguistic Rearrangement in Devanagari lookup 2 nested-substitutions 0 subtable"  } []

StartChar: percent
Encoding: 37 37 2
Width: 1539
Flags: W
LayerCount: 2
Fore
SplineSet
336 0 m 1,0,-1
 1083 1216 l 1,1,-1
 1216 1216 l 1,2,-1
 468 0 l 1,3,-1
 336 0 l 1,0,-1
115 934 m 0,4,5
 115 996 115 996 137.5 1050 c 128,-1,6
 160 1104 160 1104 199.5 1144.5 c 128,-1,7
 239 1185 239 1185 292.5 1208.5 c 128,-1,8
 346 1232 346 1232 407 1232 c 256,9,10
 468 1232 468 1232 521 1208.5 c 128,-1,11
 574 1185 574 1185 614 1144.5 c 128,-1,12
 654 1104 654 1104 677 1050 c 128,-1,13
 700 996 700 996 700 934 c 0,14,15
 700 871 700 871 677 816.5 c 128,-1,16
 654 762 654 762 614 721 c 128,-1,17
 574 680 574 680 521 656.5 c 128,-1,18
 468 633 468 633 407 633 c 256,19,20
 346 633 346 633 292.5 656.5 c 128,-1,21
 239 680 239 680 199.5 721 c 128,-1,22
 160 762 160 762 137.5 816.5 c 128,-1,23
 115 871 115 871 115 934 c 0,4,5
226 934 m 0,24,25
 226 894 226 894 240 859 c 128,-1,26
 254 824 254 824 278.5 797.5 c 128,-1,27
 303 771 303 771 336 755.5 c 128,-1,28
 369 740 369 740 407 740 c 0,29,30
 444 740 444 740 477 755.5 c 128,-1,31
 510 771 510 771 535 797.5 c 128,-1,32
 560 824 560 824 574.5 859 c 128,-1,33
 589 894 589 894 589 934 c 0,34,35
 589 973 589 973 574.5 1008.5 c 128,-1,36
 560 1044 560 1044 535 1070 c 128,-1,37
 510 1096 510 1096 477 1111.5 c 128,-1,38
 444 1127 444 1127 407 1127 c 0,39,40
 369 1127 369 1127 336 1111.5 c 128,-1,41
 303 1096 303 1096 278.5 1070 c 128,-1,42
 254 1044 254 1044 240 1008.5 c 128,-1,43
 226 973 226 973 226 934 c 0,24,25
866 284 m 260,44,45
 866 346 866 346 888.5 401 c 132,-1,46
 911 456 911 456 950 497 c 132,-1,47
 989 538 989 538 1042 561.5 c 132,-1,48
 1095 585 1095 585 1157 585 c 4,49,50
 1218 585 1218 585 1271.5 561.5 c 132,-1,51
 1325 538 1325 538 1364.5 497 c 132,-1,52
 1404 456 1404 456 1426.5 401 c 132,-1,53
 1449 346 1449 346 1449 284 c 260,54,55
 1449 222 1449 222 1426.5 167 c 132,-1,56
 1404 112 1404 112 1364.5 71.5 c 132,-1,57
 1325 31 1325 31 1271.5 7.5 c 132,-1,58
 1218 -16 1218 -16 1157 -16 c 4,59,60
 1095 -16 1095 -16 1042 7.5 c 132,-1,61
 989 31 989 31 950 71.5 c 132,-1,62
 911 112 911 112 888.5 167 c 132,-1,63
 866 222 866 222 866 284 c 260,44,45
977 284 m 4,64,65
 977 245 977 245 991 209.5 c 132,-1,66
 1005 174 1005 174 1029.5 148 c 132,-1,67
 1054 122 1054 122 1086.5 106.5 c 132,-1,68
 1119 91 1119 91 1157 91 c 260,69,70
 1195 91 1195 91 1228 106.5 c 132,-1,71
 1261 122 1261 122 1286 148 c 132,-1,72
 1311 174 1311 174 1325 209.5 c 132,-1,73
 1339 245 1339 245 1339 284 c 4,74,75
 1339 324 1339 324 1325 359 c 132,-1,76
 1311 394 1311 394 1286 420.5 c 132,-1,77
 1261 447 1261 447 1228 462.5 c 132,-1,78
 1195 478 1195 478 1157 478 c 260,79,80
 1119 478 1119 478 1086.5 462.5 c 132,-1,81
 1054 447 1054 447 1029.5 420.5 c 132,-1,82
 1005 394 1005 394 991 359 c 132,-1,83
 977 324 977 324 977 284 c 4,64,65
EndSplineSet
EndChar

StartChar: ampersand
Encoding: 38 38 3
Width: 1250
Flags: W
LayerCount: 2
Fore
SplineSet
1068 574 m 1,0,1
 1060 482 1060 482 1034 393.5 c 128,-1,2
 1008 305 1008 305 962 230 c 1,3,4
 1009 177 1009 177 1065.5 117.5 c 128,-1,5
 1122 58 1122 58 1179 0 c 1,6,-1
 1010 0 l 1,7,8
 977 34 977 34 947.5 65 c 128,-1,9
 918 96 918 96 889 131 c 1,10,11
 855 95 855 95 814 64.5 c 128,-1,12
 773 34 773 34 725.5 11.5 c 128,-1,13
 678 -11 678 -11 625 -23.5 c 128,-1,14
 572 -36 572 -36 514 -36 c 0,15,16
 403 -36 403 -36 326.5 -5 c 128,-1,17
 250 26 250 26 202.5 75.5 c 128,-1,18
 155 125 155 125 134 186 c 128,-1,19
 113 247 113 247 113 308 c 0,20,21
 113 370 113 370 139 424.5 c 128,-1,22
 165 479 165 479 207.5 527.5 c 128,-1,23
 250 576 250 576 305 621 c 128,-1,24
 360 666 360 666 417 708 c 1,25,26
 348 811 348 811 310.5 898 c 128,-1,27
 273 985 273 985 273 1056 c 0,28,29
 273 1104 273 1104 293 1150 c 128,-1,30
 313 1196 313 1196 351 1233 c 128,-1,31
 389 1270 389 1270 444 1292.5 c 128,-1,32
 499 1315 499 1315 570 1315 c 0,33,34
 645 1315 645 1315 701 1291 c 128,-1,35
 757 1267 757 1267 794.5 1229 c 128,-1,36
 832 1191 832 1191 851 1144.5 c 128,-1,37
 870 1098 870 1098 870 1052 c 0,38,39
 870 996 870 996 846.5 946 c 128,-1,40
 823 896 823 896 784 850.5 c 128,-1,41
 745 805 745 805 695 763.5 c 128,-1,42
 645 722 645 722 591 682 c 1,43,44
 647 606 647 606 715 521 c 128,-1,45
 783 436 783 436 875 330 c 1,46,47
 929 436 929 436 943 574 c 1,48,-1
 1068 574 l 1,0,1
512 93 m 0,49,50
 600 93 600 93 673.5 128 c 128,-1,51
 747 163 747 163 804 228 c 1,52,53
 713 330 713 330 634.5 424 c 128,-1,54
 556 518 556 518 489 607 c 1,55,56
 440 571 440 571 395.5 535.5 c 128,-1,57
 351 500 351 500 317 462.5 c 128,-1,58
 283 425 283 425 262.5 386.5 c 128,-1,59
 242 348 242 348 242 306 c 0,60,61
 242 250 242 250 265 210 c 128,-1,62
 288 170 288 170 326 144 c 128,-1,63
 364 118 364 118 412.5 105.5 c 128,-1,64
 461 93 461 93 512 93 c 0,49,50
401 1057 m 0,65,66
 401 1010 401 1010 429.5 943.5 c 128,-1,67
 458 877 458 877 520 781 c 1,68,69
 566 814 566 814 606 846.5 c 128,-1,70
 646 879 646 879 676 912.5 c 128,-1,71
 706 946 706 946 723 981 c 128,-1,72
 740 1016 740 1016 740 1052 c 256,73,74
 740 1088 740 1088 726.5 1114.5 c 128,-1,75
 713 1141 713 1141 689.5 1158 c 128,-1,76
 666 1175 666 1175 635 1183.5 c 128,-1,77
 604 1192 604 1192 569 1192 c 0,78,79
 537 1192 537 1192 506.5 1183.5 c 128,-1,80
 476 1175 476 1175 452.5 1157.5 c 128,-1,81
 429 1140 429 1140 415 1115 c 128,-1,82
 401 1090 401 1090 401 1057 c 0,65,66
EndSplineSet
EndChar

StartChar: parenleft
Encoding: 40 40 4
Width: 523
Flags: W
LayerCount: 2
Fore
SplineSet
489 1445 m 1,0,1
 378 1239 378 1239 326.5 1027.5 c 128,-1,2
 275 816 275 816 275 596 c 0,3,4
 275 377 275 377 326 166 c 128,-1,5
 377 -45 377 -45 489 -250 c 1,6,-1
 392 -250 l 1,7,8
 321 -159 321 -159 268 -58 c 128,-1,9
 215 43 215 43 180 150.5 c 128,-1,10
 145 258 145 258 127 370.5 c 128,-1,11
 109 483 109 483 109 596 c 0,12,13
 109 710 109 710 126.5 822 c 128,-1,14
 144 934 144 934 179 1041.5 c 128,-1,15
 214 1149 214 1149 267.5 1250.5 c 128,-1,16
 321 1352 321 1352 392 1445 c 1,17,-1
 489 1445 l 1,0,1
EndSplineSet
EndChar

StartChar: parenright
Encoding: 41 41 5
Width: 489
Flags: W
LayerCount: 2
Fore
SplineSet
131 1445 m 1,0,1
 203 1352 203 1352 256 1250.5 c 128,-1,2
 309 1149 309 1149 344 1041.5 c 128,-1,3
 379 934 379 934 396.5 822 c 128,-1,4
 414 710 414 710 414 596 c 256,5,6
 414 482 414 482 396.5 369.5 c 128,-1,7
 379 257 379 257 343.5 150 c 128,-1,8
 308 43 308 43 255 -58 c 128,-1,9
 202 -159 202 -159 131 -250 c 1,10,-1
 33 -250 l 1,11,12
 148 -46 148 -46 200 164.5 c 128,-1,13
 252 375 252 375 252 596 c 0,14,15
 252 816 252 816 200 1027.5 c 128,-1,16
 148 1239 148 1239 33 1445 c 1,17,-1
 131 1445 l 1,0,1
EndSplineSet
EndChar

StartChar: asterisk
Encoding: 42 42 6
Width: 871
Flags: W
LayerCount: 2
Fore
SplineSet
520 1305 m 1,0,-1
 499 1035 l 1,1,-1
 748 1141 l 1,2,-1
 797 1010 l 1,3,-1
 522 946 l 1,4,5
 542 923 542 923 566 897 c 128,-1,6
 590 871 590 871 615 844.5 c 128,-1,7
 640 818 640 818 664 793 c 128,-1,8
 688 768 688 768 709 746 c 1,9,-1
 602 663 l 1,10,-1
 452 889 l 1,11,-1
 297 663 l 1,12,-1
 190 746 l 1,13,-1
 379 946 l 1,14,-1
 109 1014 l 1,15,-1
 151 1141 l 1,16,-1
 405 1033 l 1,17,-1
 381 1305 l 1,18,-1
 520 1305 l 1,0,-1
EndSplineSet
EndChar

StartChar: plus
Encoding: 43 43 7
Width: 1110
Flags: W
LayerCount: 2
Fore
SplineSet
113 731 m 1,0,-1
 518 731 l 1,1,-1
 518 1125 l 1,2,-1
 619 1125 l 1,3,-1
 619 731 l 1,4,-1
 1028 731 l 1,5,-1
 1028 629 l 1,6,-1
 619 629 l 1,7,-1
 619 235 l 1,8,-1
 518 235 l 1,9,-1
 518 629 l 1,10,-1
 113 629 l 1,11,-1
 113 731 l 1,0,-1
EndSplineSet
EndChar

StartChar: comma
Encoding: 44 44 8
Width: 370
Flags: W
LayerCount: 2
Fore
SplineSet
299 175 m 1,0,-1
 299 -45 l 2,1,2
 299 -126 299 -126 258 -181.5 c 128,-1,3
 217 -237 217 -237 150 -263 c 1,4,-1
 104 -200 l 1,5,6
 133 -188 133 -188 150.5 -173.5 c 128,-1,7
 168 -159 168 -159 177.5 -140 c 128,-1,8
 187 -121 187 -121 190 -97.5 c 128,-1,9
 193 -74 193 -74 193 -45 c 2,10,-1
 193 0 l 1,11,-1
 127 0 l 1,12,-1
 127 175 l 1,13,-1
 299 175 l 1,0,-1
EndSplineSet
EndChar

StartChar: period
Encoding: 46 46 9
Width: 352
Flags: W
LayerCount: 2
Fore
SplineSet
280 175 m 1,0,-1
 280 0 l 1,1,-1
 109 0 l 1,2,-1
 109 175 l 1,3,-1
 280 175 l 1,0,-1
EndSplineSet
EndChar

StartChar: slash
Encoding: 47 47 10
Width: 543
Flags: W
LayerCount: 2
Fore
SplineSet
124 -36 m 1,0,-1
 0 -36 l 1,1,-1
 425 1305 l 1,2,-1
 543 1305 l 1,3,-1
 124 -36 l 1,0,-1
EndSplineSet
EndChar

StartChar: zero
Encoding: 48 48 11
Width: 1021
Flags: W
LayerCount: 2
Fore
SplineSet
217 619 m 256,0,1
 217 483 217 483 239.5 386 c 128,-1,2
 262 289 262 289 301 226.5 c 128,-1,3
 340 164 340 164 392.5 135 c 128,-1,4
 445 106 445 106 505 106 c 256,5,6
 565 106 565 106 617.5 135 c 128,-1,7
 670 164 670 164 709 226.5 c 128,-1,8
 748 289 748 289 770.5 386 c 128,-1,9
 793 483 793 483 793 619 c 256,10,11
 793 755 793 755 770.5 853 c 128,-1,12
 748 951 748 951 709 1014 c 128,-1,13
 670 1077 670 1077 617.5 1106.5 c 128,-1,14
 565 1136 565 1136 505 1136 c 256,15,16
 445 1136 445 1136 392.5 1106.5 c 128,-1,17
 340 1077 340 1077 301 1014 c 128,-1,18
 262 951 262 951 239.5 853 c 128,-1,19
 217 755 217 755 217 619 c 256,0,1
927 619 m 256,20,21
 927 476 927 476 900 361.5 c 128,-1,22
 873 247 873 247 820 167 c 128,-1,23
 767 87 767 87 688 43.5 c 128,-1,24
 609 0 609 0 505 0 c 256,25,26
 401 0 401 0 322.5 43.5 c 128,-1,27
 244 87 244 87 191 167 c 128,-1,28
 138 247 138 247 111 361.5 c 128,-1,29
 84 476 84 476 84 619 c 256,30,31
 84 762 84 762 111 877 c 128,-1,32
 138 992 138 992 191 1072.5 c 128,-1,33
 244 1153 244 1153 322.5 1196.5 c 128,-1,34
 401 1240 401 1240 505 1240 c 256,35,36
 609 1240 609 1240 688 1196.5 c 128,-1,37
 767 1153 767 1153 820 1072.5 c 128,-1,38
 873 992 873 992 900 877 c 128,-1,39
 927 762 927 762 927 619 c 256,20,21
EndSplineSet
EndChar

StartChar: one
Encoding: 49 49 12
Width: 1021
Flags: W
LayerCount: 2
Fore
SplineSet
621 0 m 1,0,-1
 621 997 l 1,1,2
 579 936 579 936 532.5 894 c 128,-1,3
 486 852 486 852 433 825.5 c 128,-1,4
 380 799 380 799 319 787.5 c 128,-1,5
 258 776 258 776 188 776 c 1,6,-1
 188 906 l 1,7,8
 297 906 297 906 378.5 941.5 c 128,-1,9
 460 977 460 977 514 1028.5 c 128,-1,10
 568 1080 568 1080 594.5 1137.5 c 128,-1,11
 621 1195 621 1195 621 1240 c 1,12,-1
 749 1240 l 1,13,-1
 749 0 l 1,14,-1
 621 0 l 1,0,-1
EndSplineSet
EndChar

StartChar: two
Encoding: 50 50 13
Width: 1021
Flags: W
LayerCount: 2
Fore
SplineSet
102 868 m 1,0,1
 111 953 111 953 145 1021.5 c 128,-1,2
 179 1090 179 1090 234 1138.5 c 128,-1,3
 289 1187 289 1187 363 1213.5 c 128,-1,4
 437 1240 437 1240 527 1240 c 0,5,6
 620 1240 620 1240 691 1211 c 128,-1,7
 762 1182 762 1182 810 1134.5 c 128,-1,8
 858 1087 858 1087 882 1025 c 128,-1,9
 906 963 906 963 906 897 c 0,10,11
 906 821 906 821 878 761 c 128,-1,12
 850 701 850 701 804 651.5 c 128,-1,13
 758 602 758 602 698.5 558.5 c 128,-1,14
 639 515 639 515 576 472 c 0,15,16
 519 433 519 433 467.5 395.5 c 128,-1,17
 416 358 416 358 373.5 317 c 128,-1,18
 331 276 331 276 298.5 230 c 128,-1,19
 266 184 266 184 248 129 c 1,20,-1
 906 129 l 1,21,-1
 906 0 l 1,22,-1
 104 0 l 1,23,-1
 104 122 l 1,24,25
 124 196 124 196 166.5 258.5 c 128,-1,26
 209 321 209 321 263 374.5 c 128,-1,27
 317 428 317 428 378.5 473.5 c 128,-1,28
 440 519 440 519 498 560 c 0,29,30
 550 596 550 596 599 633 c 128,-1,31
 648 670 648 670 686 708.5 c 128,-1,32
 724 747 724 747 747.5 788.5 c 128,-1,33
 771 830 771 830 771 875 c 0,34,35
 771 939 771 939 752 988 c 128,-1,36
 733 1037 733 1037 700 1069 c 128,-1,37
 667 1101 667 1101 622.5 1117.5 c 128,-1,38
 578 1134 578 1134 527 1134 c 0,39,40
 466 1134 466 1134 415.5 1115.5 c 128,-1,41
 365 1097 365 1097 328.5 1062.5 c 128,-1,42
 292 1028 292 1028 270 979 c 128,-1,43
 248 930 248 930 244 868 c 1,44,-1
 102 868 l 1,0,1
EndSplineSet
EndChar

StartChar: three
Encoding: 51 51 14
Width: 1021
Flags: W
LayerCount: 2
Fore
SplineSet
120 887 m 1,0,1
 132 956 132 956 161 1019.5 c 128,-1,2
 190 1083 190 1083 237.5 1131.5 c 128,-1,3
 285 1180 285 1180 352.5 1209 c 128,-1,4
 420 1238 420 1238 510 1238 c 0,5,6
 593 1238 593 1238 659.5 1214 c 128,-1,7
 726 1190 726 1190 772.5 1148 c 128,-1,8
 819 1106 819 1106 843.5 1048.5 c 128,-1,9
 868 991 868 991 868 924 c 0,10,11
 868 833 868 833 822 763 c 128,-1,12
 776 693 776 693 689 652 c 1,13,14
 741 633 741 633 785 605 c 128,-1,15
 829 577 829 577 860 538.5 c 128,-1,16
 891 500 891 500 908.5 449.5 c 128,-1,17
 926 399 926 399 926 336 c 0,18,19
 926 249 926 249 893.5 183 c 128,-1,20
 861 117 861 117 806 72 c 128,-1,21
 751 27 751 27 677.5 4.5 c 128,-1,22
 604 -18 604 -18 523 -18 c 0,23,24
 436 -18 436 -18 364 7.5 c 128,-1,25
 292 33 292 33 236 82 c 128,-1,26
 180 131 180 131 141.5 202 c 128,-1,27
 103 273 103 273 84 363 c 1,28,-1
 224 363 l 1,29,30
 239 284 239 284 270.5 231.5 c 128,-1,31
 302 179 302 179 343 147.5 c 128,-1,32
 384 116 384 116 431 102.5 c 128,-1,33
 478 89 478 89 523 89 c 0,34,35
 571 89 571 89 619 106.5 c 128,-1,36
 667 124 667 124 705.5 156 c 128,-1,37
 744 188 744 188 767.5 234 c 128,-1,38
 791 280 791 280 791 336 c 0,39,40
 791 390 791 390 771.5 437 c 128,-1,41
 752 484 752 484 715 518.5 c 128,-1,42
 678 553 678 553 626 573 c 128,-1,43
 574 593 574 593 510 593 c 2,44,-1
 430 593 l 1,45,-1
 430 711 l 1,46,-1
 510 711 l 2,47,48
 572 711 572 711 615 728.5 c 128,-1,49
 658 746 658 746 684.5 774.5 c 128,-1,50
 711 803 711 803 722.5 839 c 128,-1,51
 734 875 734 875 734 913 c 0,52,53
 734 964 734 964 718.5 1004.5 c 128,-1,54
 703 1045 703 1045 673.5 1073.5 c 128,-1,55
 644 1102 644 1102 602.5 1117 c 128,-1,56
 561 1132 561 1132 510 1132 c 0,57,58
 453 1132 453 1132 408 1110.5 c 128,-1,59
 363 1089 363 1089 331.5 1054.5 c 128,-1,60
 300 1020 300 1020 281 976 c 128,-1,61
 262 932 262 932 257 887 c 1,62,-1
 120 887 l 1,0,1
EndSplineSet
EndChar

StartChar: four
Encoding: 52 52 15
Width: 1021
Flags: W
LayerCount: 2
Fore
SplineSet
633 0 m 1,0,-1
 633 306 l 1,1,-1
 68 306 l 1,2,-1
 68 457 l 1,3,-1
 623 1223 l 1,4,-1
 760 1223 l 1,5,-1
 760 412 l 1,6,-1
 941 412 l 1,7,-1
 941 306 l 1,8,-1
 760 306 l 1,9,-1
 760 0 l 1,10,-1
 633 0 l 1,0,-1
179 412 m 1,11,-1
 633 412 l 1,12,-1
 633 1050 l 1,13,-1
 179 412 l 1,11,-1
EndSplineSet
EndChar

StartChar: five
Encoding: 53 53 16
Width: 1021
Flags: W
LayerCount: 2
Fore
SplineSet
120 583 m 1,0,-1
 202 1223 l 1,1,-1
 857 1223 l 1,2,-1
 857 1115 l 1,3,-1
 304 1115 l 1,4,5
 293 1015 293 1015 280 921.5 c 128,-1,6
 267 828 267 828 255 725 c 1,7,8
 292 755 292 755 332.5 771.5 c 128,-1,9
 373 788 373 788 409.5 796 c 128,-1,10
 446 804 446 804 476 805.5 c 128,-1,11
 506 807 506 807 523 807 c 0,12,13
 610 807 610 807 684 774.5 c 128,-1,14
 758 742 758 742 811.5 686.5 c 128,-1,15
 865 631 865 631 895.5 555.5 c 128,-1,16
 926 480 926 480 926 395 c 0,17,18
 926 316 926 316 900 241.5 c 128,-1,19
 874 167 874 167 820 109.5 c 128,-1,20
 766 52 766 52 684 17 c 128,-1,21
 602 -18 602 -18 490 -18 c 0,22,23
 416 -18 416 -18 351 2 c 128,-1,24
 286 22 286 22 233 62.5 c 128,-1,25
 180 103 180 103 141.5 163 c 128,-1,26
 103 223 103 223 84 304 c 1,27,-1
 222 304 l 1,28,29
 238 253 238 253 265.5 213 c 128,-1,30
 293 173 293 173 329 145.5 c 128,-1,31
 365 118 365 118 406.5 103.5 c 128,-1,32
 448 89 448 89 492 89 c 0,33,34
 553 89 553 89 607.5 112.5 c 128,-1,35
 662 136 662 136 703 177 c 128,-1,36
 744 218 744 218 767.5 274 c 128,-1,37
 791 330 791 330 791 395 c 0,38,39
 791 461 791 461 765.5 516.5 c 128,-1,40
 740 572 740 572 698 612 c 128,-1,41
 656 652 656 652 602 674 c 128,-1,42
 548 696 548 696 492 696 c 0,43,44
 460 696 460 696 426 688.5 c 128,-1,45
 392 681 392 681 359.5 666.5 c 128,-1,46
 327 652 327 652 298 631 c 128,-1,47
 269 610 269 610 248 583 c 1,48,-1
 120 583 l 1,0,-1
EndSplineSet
EndChar

StartChar: six
Encoding: 54 54 17
Width: 1021
Flags: W
LayerCount: 2
Fore
SplineSet
778 946 m 1,0,1
 771 980 771 980 751 1013.5 c 128,-1,2
 731 1047 731 1047 700 1074 c 128,-1,3
 669 1101 669 1101 628 1117.5 c 128,-1,4
 587 1134 587 1134 538 1134 c 0,5,6
 476 1134 476 1134 427.5 1110 c 128,-1,7
 379 1086 379 1086 343.5 1045 c 128,-1,8
 308 1004 308 1004 283.5 950.5 c 128,-1,9
 259 897 259 897 244 838 c 128,-1,10
 229 779 229 779 222 718.5 c 128,-1,11
 215 658 215 658 214 603 c 1,12,13
 242 658 242 658 281.5 694.5 c 128,-1,14
 321 731 321 731 364.5 753.5 c 128,-1,15
 408 776 408 776 451 785.5 c 128,-1,16
 494 795 494 795 527 795 c 0,17,18
 617 795 617 795 689 763.5 c 128,-1,19
 761 732 761 732 812 676.5 c 128,-1,20
 863 621 863 621 890 545 c 128,-1,21
 917 469 917 469 917 381 c 0,22,23
 917 300 917 300 890.5 228 c 128,-1,24
 864 156 864 156 814 101 c 128,-1,25
 764 46 764 46 692 14 c 128,-1,26
 620 -18 620 -18 529 -18 c 0,27,28
 430 -18 430 -18 349.5 18.5 c 128,-1,29
 269 55 269 55 212 126.5 c 128,-1,30
 155 198 155 198 124 304 c 128,-1,31
 93 410 93 410 93 550 c 0,32,33
 93 728 93 728 124 858.5 c 128,-1,34
 155 989 155 989 213 1073.5 c 128,-1,35
 271 1158 271 1158 352 1199 c 128,-1,36
 433 1240 433 1240 534 1240 c 0,37,38
 616 1240 616 1240 680.5 1215.5 c 128,-1,39
 745 1191 745 1191 791 1150 c 128,-1,40
 837 1109 837 1109 865 1056 c 128,-1,41
 893 1003 893 1003 902 946 c 1,42,-1
 778 946 l 1,0,1
529 89 m 0,43,44
 584 89 584 89 630 112 c 128,-1,45
 676 135 676 135 710 174.5 c 128,-1,46
 744 214 744 214 763 267 c 128,-1,47
 782 320 782 320 782 381 c 0,48,49
 782 440 782 440 763.5 493.5 c 128,-1,50
 745 547 745 547 711.5 587.5 c 128,-1,51
 678 628 678 628 631 652 c 128,-1,52
 584 676 584 676 527 676 c 0,53,54
 459 676 459 676 409 649 c 128,-1,55
 359 622 359 622 326 579.5 c 128,-1,56
 293 537 293 537 277 485 c 128,-1,57
 261 433 261 433 261 384 c 0,58,59
 261 321 261 321 283 267 c 128,-1,60
 305 213 305 213 342 173.5 c 128,-1,61
 379 134 379 134 427.5 111.5 c 128,-1,62
 476 89 476 89 529 89 c 0,43,44
EndSplineSet
EndChar

StartChar: seven
Encoding: 55 55 18
Width: 1021
Flags: W
LayerCount: 2
Fore
SplineSet
273 0 m 1,0,1
 294 150 294 150 333.5 295 c 128,-1,2
 373 440 373 440 433.5 579.5 c 128,-1,3
 494 719 494 719 578 853 c 128,-1,4
 662 987 662 987 773 1115 c 1,5,-1
 82 1115 l 1,6,-1
 82 1223 l 1,7,-1
 927 1223 l 1,8,-1
 927 1121 l 1,9,10
 829 998 829 998 746.5 877 c 128,-1,11
 664 756 664 756 598 623 c 128,-1,12
 532 490 532 490 485 337.5 c 128,-1,13
 438 185 438 185 412 0 c 1,14,-1
 273 0 l 1,0,1
EndSplineSet
EndChar

StartChar: eight
Encoding: 56 56 19
Width: 1021
Flags: W
LayerCount: 2
Fore
SplineSet
97 343 m 0,0,1
 97 391 97 391 111.5 436.5 c 128,-1,2
 126 482 126 482 152.5 522 c 128,-1,3
 179 562 179 562 215 595 c 128,-1,4
 251 628 251 628 294 652 c 1,5,6
 216 697 216 697 170.5 765.5 c 128,-1,7
 125 834 125 834 125 918 c 0,8,9
 125 985 125 985 155 1043 c 128,-1,10
 185 1101 185 1101 236 1144.5 c 128,-1,11
 287 1188 287 1188 356 1213 c 128,-1,12
 425 1238 425 1238 503 1238 c 0,13,14
 582 1238 582 1238 651 1213 c 128,-1,15
 720 1188 720 1188 771.5 1144.5 c 128,-1,16
 823 1101 823 1101 852.5 1043 c 128,-1,17
 882 985 882 985 882 918 c 0,18,19
 882 877 882 877 870 838.5 c 128,-1,20
 858 800 858 800 836 766 c 128,-1,21
 814 732 814 732 783 703 c 128,-1,22
 752 674 752 674 715 652 c 1,23,24
 759 628 759 628 795.5 595 c 128,-1,25
 832 562 832 562 858 522 c 128,-1,26
 884 482 884 482 898.5 436.5 c 128,-1,27
 913 391 913 391 913 343 c 0,28,29
 913 268 913 268 881 202 c 128,-1,30
 849 136 849 136 793.5 87 c 128,-1,31
 738 38 738 38 663 10 c 128,-1,32
 588 -18 588 -18 503 -18 c 256,33,34
 418 -18 418 -18 344 10 c 128,-1,35
 270 38 270 38 215 87 c 128,-1,36
 160 136 160 136 128.5 202 c 128,-1,37
 97 268 97 268 97 343 c 0,0,1
230 343 m 256,38,39
 230 290 230 290 251.5 244 c 128,-1,40
 273 198 273 198 310 163.5 c 128,-1,41
 347 129 347 129 396.5 109 c 128,-1,42
 446 89 446 89 503 89 c 256,43,44
 560 89 560 89 610.5 109 c 128,-1,45
 661 129 661 129 698 163.5 c 128,-1,46
 735 198 735 198 756.5 244 c 128,-1,47
 778 290 778 290 778 343 c 256,48,49
 778 396 778 396 756.5 442.5 c 128,-1,50
 735 489 735 489 698 523.5 c 128,-1,51
 661 558 661 558 610.5 578 c 128,-1,52
 560 598 560 598 503 598 c 256,53,54
 446 598 446 598 396.5 578 c 128,-1,55
 347 558 347 558 310 523.5 c 128,-1,56
 273 489 273 489 251.5 442.5 c 128,-1,57
 230 396 230 396 230 343 c 256,38,39
261 918 m 256,58,59
 261 874 261 874 280 835.5 c 128,-1,60
 299 797 299 797 332 768.5 c 128,-1,61
 365 740 365 740 409 723 c 128,-1,62
 453 706 453 706 503 706 c 0,63,64
 554 706 554 706 598.5 723 c 128,-1,65
 643 740 643 740 676.5 768.5 c 128,-1,66
 710 797 710 797 729.5 835.5 c 128,-1,67
 749 874 749 874 749 918 c 256,68,69
 749 962 749 962 729.5 1001 c 128,-1,70
 710 1040 710 1040 676.5 1069 c 128,-1,71
 643 1098 643 1098 598.5 1115 c 128,-1,72
 554 1132 554 1132 503 1132 c 0,73,74
 453 1132 453 1132 409 1115 c 128,-1,75
 365 1098 365 1098 332 1069 c 128,-1,76
 299 1040 299 1040 280 1001 c 128,-1,77
 261 962 261 962 261 918 c 256,58,59
EndSplineSet
EndChar

StartChar: nine
Encoding: 57 57 20
Width: 1021
Flags: W
LayerCount: 2
Fore
SplineSet
230 277 m 1,0,1
 237 243 237 243 257 209.5 c 128,-1,2
 277 176 277 176 308 149 c 128,-1,3
 339 122 339 122 380.5 105.5 c 128,-1,4
 422 89 422 89 472 89 c 0,5,6
 534 89 534 89 582 113 c 128,-1,7
 630 137 630 137 665.5 178 c 128,-1,8
 701 219 701 219 725 272.5 c 128,-1,9
 749 326 749 326 763.5 384.5 c 128,-1,10
 778 443 778 443 785 503.5 c 128,-1,11
 792 564 792 564 793 618 c 1,12,13
 764 565 764 565 724 528.5 c 128,-1,14
 684 492 684 492 641 469.5 c 128,-1,15
 598 447 598 447 556 436.5 c 128,-1,16
 514 426 514 426 481 426 c 0,17,18
 391 426 391 426 319 457.5 c 128,-1,19
 247 489 247 489 196.5 545 c 128,-1,20
 146 601 146 601 119.5 677 c 128,-1,21
 93 753 93 753 93 842 c 0,22,23
 93 922 93 922 119.5 994.5 c 128,-1,24
 146 1067 146 1067 195.5 1121.5 c 128,-1,25
 245 1176 245 1176 317 1208 c 128,-1,26
 389 1240 389 1240 481 1240 c 0,27,28
 580 1240 580 1240 660.5 1204 c 128,-1,29
 741 1168 741 1168 798 1096.5 c 128,-1,30
 855 1025 855 1025 886 919 c 128,-1,31
 917 813 917 813 917 673 c 0,32,33
 917 494 917 494 886 364 c 128,-1,34
 855 234 855 234 797 149 c 128,-1,35
 739 64 739 64 657.5 23 c 128,-1,36
 576 -18 576 -18 476 -18 c 0,37,38
 394 -18 394 -18 329.5 6.5 c 128,-1,39
 265 31 265 31 218.5 72.5 c 128,-1,40
 172 114 172 114 144.5 167 c 128,-1,41
 117 220 117 220 108 277 c 1,42,-1
 230 277 l 1,0,1
481 1134 m 0,43,44
 426 1134 426 1134 379 1111 c 128,-1,45
 332 1088 332 1088 298 1048.5 c 128,-1,46
 264 1009 264 1009 245 956 c 128,-1,47
 226 903 226 903 226 842 c 0,48,49
 226 783 226 783 244.5 729 c 128,-1,50
 263 675 263 675 296.5 634.5 c 128,-1,51
 330 594 330 594 377 570 c 128,-1,52
 424 546 424 546 481 546 c 0,53,54
 549 546 549 546 599.5 573 c 128,-1,55
 650 600 650 600 683 642.5 c 128,-1,56
 716 685 716 685 732.5 736.5 c 128,-1,57
 749 788 749 788 749 838 c 0,58,59
 749 902 749 902 727 956 c 128,-1,60
 705 1010 705 1010 667.5 1049.5 c 128,-1,61
 630 1089 630 1089 581.5 1111.5 c 128,-1,62
 533 1134 533 1134 481 1134 c 0,43,44
EndSplineSet
EndChar

StartChar: colon
Encoding: 58 58 21
Width: 1021
Flags: W
LayerCount: 2
Fore
SplineSet
586 479 m 1,0,-1
 419 483 l 1,1,2
 431 349 431 349 399 282 c 0,3,4
 367 214 367 214 315 140 c 1,5,6
 377 134 377 134 488 134 c 0,7,8
 604 134 604 134 702 140 c 0,9,10
 812 145 812 145 845 145 c 0,11,12
 879 145 879 145 913 125 c 0,13,14
 945 106 945 106 945 74 c 0,15,16
 945 41 945 41 913 22 c 0,17,18
 875 1 875 1 825 3 c 2,19,20
 825 3 825 3 516 10 c 1,21,22
 516 10 516 10 209 3 c 0,23,24
 155 1 155 1 120 25 c 0,25,26
 88 48 88 48 88 90 c 0,27,28
 88 131 88 131 124 180 c 0,29,30
 155 217 155 217 199 285 c 0,31,32
 235 341 235 341 239 400 c 1,33,34
 239 464 239 464 237 480 c 1,35,36
 227 479 227 479 175 479 c 0,37,38
 66 479 66 479 66 539 c 0,39,40
 66 601 66 601 171 601 c 0,41,42
 183 601 183 601 193 600 c 2,43,44
 193 600 193 600 213 600 c 1,45,46
 211 604 211 604 191 671 c 0,47,48
 159 769 159 769 159 833 c 0,49,50
 159 1013 159 1013 263 1087 c 0,51,52
 369 1161 369 1161 552 1161 c 1,53,-1
 538 1017 l 1,54,55
 452 1017 452 1017 403 982 c 0,56,57
 351 949 351 949 351 863 c 0,58,59
 351 783 351 783 397 597 c 1,60,-1
 586 601 l 1,61,-1
 626 585 l 1,62,63
 654 568 654 568 654 541 c 0,64,65
 654 506 654 506 626 497 c 2,66,-1
 586 479 l 1,0,-1
EndSplineSet
EndChar

StartChar: semicolon
Encoding: 59 59 22
Width: 1021
Flags: W
LayerCount: 2
Fore
SplineSet
578 1124 m 1,0,-1
 822 1133 l 2,1,2
 867 1133 867 1133 892 1115 c 0,3,4
 920 1096 920 1096 920 1065 c 0,5,6
 920 1033 920 1033 889 1014 c 128,-1,7
 858 995 858 995 808 995 c 1,8,9
 807 934 807 934 807 400 c 0,10,11
 807 296 807 296 774 212 c 0,12,13
 740 131 740 131 684 87 c 0,14,15
 573 1 573 1 434 1 c 0,16,17
 293 1 293 1 205 52 c 0,18,19
 116 100 116 100 116 150 c 0,20,21
 116 177 116 177 134 196 c 0,22,23
 152 212 152 212 182 212 c 0,24,25
 210 212 210 212 241 191 c 0,26,27
 275 168 275 168 316 149 c 0,28,29
 365 128 365 128 429 128 c 0,30,31
 525 128 525 128 591 202 c 1,32,33
 660 272 660 272 660 431 c 2,34,-1
 655 1002 l 1,35,36
 552 1002 552 1002 468.5 997.5 c 128,-1,37
 385 993 385 993 354 993 c 0,38,39
 319 993 319 993 296 1012 c 1,40,41
 268 1028 268 1028 268 1062 c 128,-1,42
 268 1096 268 1096 296 1112 c 1,43,44
 319 1131 319 1131 367 1131 c 2,45,-1
 578 1124 l 1,0,-1
EndSplineSet
EndChar

StartChar: less
Encoding: 60 60 23
Width: 1021
Flags: W
LayerCount: 2
Fore
SplineSet
727 828 m 1,0,-1
 706 541 l 1,1,2
 603 515 603 515 496 524 c 0,3,4
 446 528 446 528 355 594 c 1,5,-1
 727 828 l 1,0,-1
540 971 m 0,6,7
 639 971 639 971 705 938 c 1,8,-1
 274 671 l 1,9,10
 274 857 274 857 320 900 c 0,11,12
 395 971 395 971 540 971 c 0,6,7
855 81 m 2,13,-1
 843 552 l 1,14,15
 843 900 843 900 852 900 c 0,16,17
 886 905 886 905 902 922 c 0,18,19
 918 940 918 940 918 967 c 0,20,21
 918 992 918 992 875 1020 c 0,22,23
 833 1047 833 1047 768 1063 c 0,24,25
 642 1092 642 1092 549 1092 c 0,26,27
 325 1092 325 1092 206 992 c 0,28,29
 89 893 89 893 89 747 c 128,-1,30
 89 601 89 601 206 501 c 0,31,32
 323 400 323 400 509 400 c 0,33,34
 646 400 646 400 709 415 c 1,35,-1
 702 81 l 2,36,37
 702 46 702 46 723 22 c 0,38,39
 742 -1 742 -1 777 -1 c 128,-1,40
 812 -1 812 -1 834 22 c 0,41,42
 855 46 855 46 855 81 c 2,13,-1
EndSplineSet
EndChar

StartChar: equal
Encoding: 61 61 24
Width: 1327
Flags: W
LayerCount: 2
Fore
SplineSet
1040.6484375 1229.31542969 m 4,0,1
 1076.34570312 1273.96386719 1076.34570312 1273.96386719 1129.02050781 1274.16113281 c 132,-1,2
 1181.69726562 1274.36132812 1181.69726562 1274.36132812 1217.86230469 1229.98339844 c 4,3,4
 1255.66992188 1184.87695312 1255.66992188 1184.87695312 1256.04492188 1113.50878906 c 132,-1,5
 1256.42089844 1042.14160156 1256.42089844 1042.14160156 1220.72851562 996.7578125 c 4,6,7
 1183.39550781 952.1015625 1183.39550781 952.1015625 1130.31640625 950.80078125 c 4,8,9
 1078.05175781 950.602539062 1078.05175781 950.602539062 1041.87597656 996.083007812 c 4,10,11
 1004.07519531 1040.45507812 1004.07519531 1040.45507812 1003.69726562 1112.55957031 c 4,12,13
 1003.31933594 1183.92773438 1003.31933594 1183.92773438 1040.6484375 1229.31542969 c 4,0,1
731.1328125 1228.15136719 m 4,14,15
 766.829101562 1272.79980469 766.829101562 1272.79980469 819.5078125 1272.99804688 c 132,-1,16
 872.180664062 1273.19433594 872.180664062 1273.19433594 908.348632812 1228.81933594 c 4,17,18
 946.154296875 1183.7109375 946.154296875 1183.7109375 946.53125 1112.34375 c 132,-1,19
 946.907226562 1040.97558594 946.907226562 1040.97558594 911.211914062 995.592773438 c 4,20,21
 873.87890625 950.939453125 873.87890625 950.939453125 821.619140625 949.639648438 c 4,22,23
 768.537109375 949.438476562 768.537109375 949.438476562 732.36328125 994.919921875 c 4,24,25
 695.37890625 1039.29296875 695.37890625 1039.29296875 695.000976562 1111.3984375 c 4,26,27
 694.623046875 1182.76367188 694.623046875 1182.76367188 731.1328125 1228.15136719 c 4,14,15
821.788085938 1227.38964844 m 4,28,29
 794.834960938 1227.65429688 794.834960938 1227.65429688 777.841796875 1198.16015625 c 4,30,31
 759.213867188 1168.66113281 759.213867188 1168.66113281 759.481445312 1117.52636719 c 4,32,33
 761.416992188 1060.51171875 761.416992188 1060.51171875 778.697265625 1035.56152344 c 4,34,35
 797.6328125 1006.9375 797.6328125 1006.9375 822.952148438 1006.66601562 c 4,36,37
 849.083007812 1007.13183594 849.083007812 1007.13183594 866.8984375 1035.89355469 c 4,38,39
 884.703125 1066.49316406 884.703125 1066.49316406 884.432617188 1117.99609375 c 4,40,41
 884.185546875 1164.71582031 884.185546875 1164.71582031 866.040039062 1198.49316406 c 4,42,43
 849.552734375 1227.86132812 849.552734375 1227.86132812 821.788085938 1227.38964844 c 4,28,29
423.251953125 1226.99316406 m 4,44,45
 458.951171875 1271.640625 458.951171875 1271.640625 512.034179688 1271.83886719 c 132,-1,46
 565.1171875 1272.04003906 565.1171875 1272.04003906 600.46875 1227.66015625 c 4,47,48
 638.2734375 1182.55273438 638.2734375 1182.55273438 638.6484375 1111.18652344 c 132,-1,49
 639.026367188 1039.81640625 639.026367188 1039.81640625 603.33203125 994.43359375 c 4,50,51
 566.815429688 949.784179688 566.815429688 949.784179688 513.73828125 948.48046875 c 4,52,53
 460.658203125 948.28125 460.658203125 948.28125 424.481445312 993.760742188 c 4,54,55
 387.497070312 1038.13476562 387.497070312 1038.13476562 387.118164062 1110.24023438 c 4,56,57
 386.740234375 1181.60644531 386.740234375 1181.60644531 423.251953125 1226.99316406 c 4,44,45
114.555664062 1225.83300781 m 4,58,59
 149.439453125 1270.47753906 149.439453125 1270.47753906 202.51953125 1270.67578125 c 132,-1,60
 255.603515625 1270.87597656 255.603515625 1270.87597656 291.766601562 1226.49804688 c 4,61,62
 328.758789062 1181.38769531 328.758789062 1181.38769531 329.133789062 1110.02050781 c 132,-1,63
 329.51171875 1038.65234375 329.51171875 1038.65234375 293.817382812 993.268554688 c 4,64,65
 257.30078125 948.618164062 257.30078125 948.618164062 204.224609375 947.314453125 c 4,66,67
 151.142578125 947.116210938 151.142578125 947.116210938 115.784179688 992.598632812 c 4,68,69
 77.984375 1036.96972656 77.984375 1036.96972656 77.603515625 1109.07421875 c 4,70,71
 77.2275390625 1180.44140625 77.2275390625 1180.44140625 114.555664062 1225.83300781 c 4,58,59
931.014648438 851.056640625 m 1,72,73
 1002.64453125 836.147460938 1002.64453125 836.147460938 1068.32324219 804.389648438 c 128,-1,74
 1134.00195312 772.631835938 1134.00195312 772.631835938 1182.64160156 720.821289062 c 128,-1,75
 1231.28125 669.009765625 1231.28125 669.009765625 1259.35644531 596.237304688 c 128,-1,76
 1287.43164062 523.46484375 1287.43164062 523.46484375 1284.87890625 427.499023438 c 0,77,78
 1282.51269531 338.530273438 1282.51269531 338.530273438 1256.64746094 268.693359375 c 128,-1,79
 1230.78125 198.856445312 1230.78125 198.856445312 1186.98046875 150.50390625 c 128,-1,80
 1143.1796875 102.151367188 1143.1796875 102.151367188 1083.99511719 77.2158203125 c 128,-1,81
 1024.81152344 52.2802734375 1024.81152344 52.2802734375 956.8359375 54.0888671875 c 0,82,83
 915.850585938 55.1787109375 915.850585938 55.1787109375 878.196289062 68.6845703125 c 128,-1,84
 840.541992188 82.1904296875 840.541992188 82.1904296875 806.665039062 106.099609375 c 128,-1,85
 772.7890625 130.008789062 772.7890625 130.008789062 744.150390625 162.78125 c 128,-1,86
 715.51171875 195.5546875 715.51171875 195.5546875 694.556640625 235.125976562 c 1,87,88
 672.287109375 187.701171875 672.287109375 187.701171875 641.181640625 146.513671875 c 128,-1,89
 610.075195312 105.326171875 610.075195312 105.326171875 570.751953125 74.8603515625 c 128,-1,90
 531.427734375 44.3955078125 531.427734375 44.3955078125 482.965820312 27.677734375 c 128,-1,91
 434.504882812 10.9599609375 434.504882812 10.9599609375 377.524414062 12.4755859375 c 0,92,93
 289.555664062 14.8154296875 289.555664062 14.8154296875 223.497070312 51.083984375 c 128,-1,94
 157.4375 87.353515625 157.4375 87.353515625 114.008789062 147.029296875 c 128,-1,95
 70.580078125 206.705078125 70.580078125 206.705078125 49.6357421875 284.2890625 c 128,-1,96
 28.6904296875 361.873046875 28.6904296875 361.873046875 30.9765625 447.842773438 c 0,97,98
 33.4228515625 539.810546875 33.4228515625 539.810546875 61.9345703125 615.079101562 c 128,-1,99
 90.4453125 690.34765625 90.4453125 690.34765625 142.482421875 747.484375 c 128,-1,100
 194.520507812 804.62109375 194.520507812 804.62109375 269.071289062 843.15234375 c 128,-1,101
 343.622070312 881.684570312 343.622070312 881.684570312 437.12109375 899.204101562 c 1,102,-1
 431.91015625 703.2734375 l 1,103,104
 354.564453125 691.326171875 354.564453125 691.326171875 301.8125 663.71875 c 128,-1,105
 249.059570312 636.111328125 249.059570312 636.111328125 217.099609375 600.448242188 c 128,-1,106
 185.140625 564.78515625 185.140625 564.78515625 171.0546875 524.145507812 c 128,-1,107
 156.969726562 483.505859375 156.969726562 483.505859375 155.932617188 444.51953125 c 0,108,109
 154.81640625 402.534179688 154.81640625 402.534179688 170.193359375 360.110351562 c 128,-1,110
 185.571289062 317.686523438 185.571289062 317.686523438 215.169921875 283.387695312 c 128,-1,111
 244.768554688 249.088867188 244.768554688 249.088867188 287.208007812 227.453125 c 128,-1,112
 329.6484375 205.81640625 329.6484375 205.81640625 382.62890625 204.407226562 c 0,113,114
 433.611328125 203.051757812 433.611328125 203.051757812 478.047851562 218.875976562 c 128,-1,115
 522.484375 234.700195312 522.484375 234.700195312 556.336914062 266.311523438 c 128,-1,116
 590.188476562 297.922851562 590.188476562 297.922851562 610.391601562 342.901367188 c 128,-1,117
 630.594726562 387.879882812 630.594726562 387.879882812 632.110351562 444.860351562 c 2,118,-1
 634.981445312 552.821289062 l 1,119,-1
 769.93359375 549.232421875 l 1,120,-1
 767.0625 441.270507812 l 2,121,122
 765.653320312 388.2890625 765.653320312 388.2890625 781.176757812 351.36328125 c 128,-1,123
 796.701171875 314.4375 796.701171875 314.4375 822.59375 291.241210938 c 128,-1,124
 848.485351562 268.044921875 848.485351562 268.044921875 882.208007812 257.14453125 c 128,-1,125
 915.9296875 246.244140625 915.9296875 246.244140625 950.91796875 245.313476562 c 0,126,127
 1046.88378906 242.760742188 1046.88378906 242.760742188 1102.73339844 292.793945312 c 128,-1,128
 1158.58398438 342.827148438 1158.58398438 342.827148438 1160.92285156 430.795898438 c 0,129,130
 1162.22558594 479.778320312 1162.22558594 479.778320312 1142.25683594 518.823242188 c 128,-1,131
 1122.28808594 557.868164062 1122.28808594 557.868164062 1089.03125 586.26171875 c 128,-1,132
 1055.77441406 614.65625 1055.77441406 614.65625 1013.24121094 632.79296875 c 128,-1,133
 970.708984375 650.930664062 970.708984375 650.930664062 925.857421875 657.125 c 1,134,-1
 931.014648438 851.056640625 l 1,72,73
EndSplineSet
EndChar

StartChar: greater
Encoding: 62 62 25
Width: 1021
Flags: W
LayerCount: 2
Fore
SplineSet
474 451 m 1,0,1
 451 414 451 414 377 299 c 0,2,3
 351 257 351 257 324 215 c 128,-1,4
 297 173 297 173 294 168 c 0,5,6
 290 163 290 163 279.5 147 c 128,-1,7
 269 131 269 131 263 122 c 0,8,9
 259 116 259 116 254.5 109 c 128,-1,10
 250 102 250 102 246.5 95.5 c 128,-1,11
 243 89 243 89 242 88 c 2,12,-1
 223 61 l 2,13,14
 207 39 207 39 193 27 c 0,15,16
 170 4 170 4 143 4 c 0,17,18
 119 4 119 4 102 21 c 128,-1,19
 85 38 85 38 85 57 c 0,20,21
 85 78 85 78 95 96 c 0,22,23
 102 113 102 113 129 157 c 0,24,25
 138 168 138 168 147 182 c 128,-1,26
 156 196 156 196 167.5 213.5 c 128,-1,27
 179 231 179 231 186 241 c 0,28,29
 321 430 321 430 403 556 c 1,30,31
 270 786 270 786 192 902 c 0,32,33
 157 952 157 952 112 952 c 0,34,35
 86 952 86 952 80 961 c 0,36,37
 75 968 75 968 75 984 c 0,38,39
 75 1027 75 1027 100 1052 c 0,40,41
 128 1079 128 1079 163 1079 c 0,42,43
 202 1079 202 1079 226 1061 c 0,44,45
 254 1043 254 1043 293 988 c 0,46,47
 316 954 316 954 485 665 c 1,48,49
 495 680 495 680 528.5 734 c 128,-1,50
 562 788 562 788 588 827 c 0,51,52
 654 938 654 938 668 958 c 0,53,54
 687 988 687 988 688 993 c 0,55,56
 694 1000 694 1000 705 1019 c 0,57,58
 709 1026 709 1026 715.5 1034.5 c 128,-1,59
 722 1043 722 1043 724 1044 c 2,60,-1
 739 1059 l 2,61,62
 758 1075 758 1075 782 1075 c 0,63,64
 808 1075 808 1075 825 1058 c 0,65,66
 840 1039 840 1039 840 1016 c 0,67,68
 840 995 840 995 812 944 c 0,69,70
 795 916 795 916 691 758 c 0,71,72
 667 723 667 723 637 678 c 128,-1,73
 607 633 607 633 587.5 604.5 c 128,-1,74
 568 576 568 576 557 558 c 1,75,76
 755 248 755 248 808 189 c 0,77,78
 859 127 859 127 899 127 c 0,79,80
 920 127 920 127 925 118 c 0,81,82
 930 113 930 113 930 97 c 0,83,84
 930 56 930 56 905 27 c 1,85,86
 875 0 875 0 840 0 c 0,87,88
 783 0 783 0 712 92 c 0,89,90
 669 148 669 148 474 451 c 1,0,1
EndSplineSet
EndChar

StartChar: question
Encoding: 63 63 26
Width: 1021
Flags: W
LayerCount: 2
Fore
SplineSet
483 658 m 2,0,-1
 766 665 l 2,1,2
 810 665 810 665 837 646 c 0,3,4
 863 629 863 629 863 598 c 0,5,6
 863 534 863 534 766 534 c 2,7,-1
 483 539 l 2,8,9
 397 539 397 539 372 538 c 1,10,11
 372 347 372 347 377 230.5 c 128,-1,12
 382 114 382 114 382 104 c 0,13,14
 382 0 382 0 297.5 0 c 128,-1,15
 213 0 213 0 213 104 c 0,16,17
 213 134 213 134 215 172 c 0,18,19
 223 362 223 362 223 534 c 1,20,21
 112 534 112 534 112 598 c 0,22,23
 112 632 112 632 143 649 c 0,24,25
 176 665 176 665 223 665 c 1,26,27
 221 927 221 927 211 994 c 1,28,29
 191 1024 191 1024 191 1053 c 0,30,31
 191 1119 191 1119 294 1119 c 2,32,-1
 601 1112 l 1,33,-1
 867 1120 l 2,34,35
 913 1120 913 1120 938 1103 c 0,36,37
 966 1084 966 1084 966 1051.5 c 128,-1,38
 966 1019 966 1019 938 1000 c 0,39,40
 913 983 913 983 867 983 c 2,41,-1
 601 992 l 2,42,43
 483 992 483 992 372 984 c 1,44,-1
 372 659 l 1,45,46
 394 658 394 658 483 658 c 2,0,-1
EndSplineSet
EndChar

StartChar: bracketleft
Encoding: 91 91 27
Width: 409
Flags: W
LayerCount: 2
Fore
SplineSet
412 1404 m 1,0,-1
 412 1316 l 1,1,-1
 231 1316 l 1,2,-1
 231 -166 l 1,3,-1
 412 -166 l 1,4,-1
 412 -255 l 1,5,-1
 109 -255 l 1,6,-1
 109 1404 l 1,7,-1
 412 1404 l 1,0,-1
EndSplineSet
EndChar

StartChar: bracketright
Encoding: 93 93 28
Width: 370
Flags: W
LayerCount: 2
Fore
SplineSet
299 -255 m 1,0,-1
 -5 -255 l 1,1,-1
 -5 -166 l 1,2,-1
 175 -166 l 1,3,-1
 175 1316 l 1,4,-1
 -5 1316 l 1,5,-1
 -5 1404 l 1,6,-1
 299 1404 l 1,7,-1
 299 -255 l 1,0,-1
EndSplineSet
EndChar

StartChar: asciicircum
Encoding: 94 94 29
Width: 800
Flags: W
LayerCount: 2
Fore
SplineSet
485 1276 m 1,0,-1
 797 822 l 1,1,-1
 687 822 l 1,2,-1
 395 1198 l 1,3,-1
 104 822 l 1,4,-1
 -4 822 l 1,5,-1
 304 1276 l 1,6,-1
 485 1276 l 1,0,-1
EndSplineSet
EndChar

StartChar: underscore
Encoding: 95 95 30
Width: 1066
Flags: W
LayerCount: 2
Fore
SplineSet
984 -270 m 1,0,-1
 984 -374 l 1,1,-1
 113 -374 l 1,2,-1
 113 -270 l 1,3,-1
 984 -270 l 1,0,-1
EndSplineSet
EndChar

StartChar: hyphen
Encoding: 45 45 31
Width: 593
Flags: W
LayerCount: 2
Fore
SplineSet
518 574 m 1,0,-1
 518 445 l 1,1,-1
 111 445 l 1,2,-1
 111 574 l 1,3,-1
 518 574 l 1,0,-1
EndSplineSet
EndChar

StartChar: numbersign
Encoding: 35 35 32
Width: 1338
Flags: W
LayerCount: 2
Fore
SplineSet
758 421 m 1,0,-1
 481 421 l 1,1,-1
 403 0 l 1,2,-1
 304 0 l 1,3,-1
 379 421 l 1,4,-1
 113 421 l 1,5,-1
 129 510 l 1,6,-1
 392 510 l 1,7,-1
 447 786 l 1,8,-1
 177 786 l 1,9,-1
 197 875 l 1,10,-1
 461 875 l 1,11,-1
 534 1276 l 1,12,-1
 635 1276 l 1,13,-1
 563 875 l 1,14,-1
 844 875 l 1,15,-1
 913 1276 l 1,16,-1
 1017 1276 l 1,17,-1
 941 875 l 1,18,-1
 1254 875 l 1,19,-1
 1243 819 l 1,20,-1
 1234 786 l 1,21,-1
 927 786 l 1,22,-1
 878 510 l 1,23,-1
 1186 510 l 1,24,-1
 1176 454 l 1,25,-1
 1167 421 l 1,26,-1
 862 421 l 1,27,-1
 782 0 l 1,28,-1
 680 0 l 1,29,-1
 758 421 l 1,0,-1
828 786 m 1,30,-1
 548 786 l 1,31,-1
 494 510 l 1,32,-1
 773 510 l 1,33,-1
 828 786 l 1,30,-1
EndSplineSet
EndChar

StartChar: exclam
Encoding: 33 33 33
Width: 336
Flags: W
LayerCount: 2
Fore
SplineSet
264 1268 m 1,0,-1
 264 748 l 1,1,-1
 230 320 l 1,2,-1
 144 320 l 1,3,-1
 109 746 l 1,4,-1
 109 1268 l 1,5,-1
 264 1268 l 1,0,-1
264 175 m 1,6,-1
 264 0 l 1,7,-1
 109 0 l 1,8,-1
 109 175 l 1,9,-1
 264 175 l 1,6,-1
EndSplineSet
EndChar

StartChar: quotedbl
Encoding: 34 34 34
Width: 554
Flags: W
LayerCount: 2
Fore
SplineSet
233 1268 m 1,0,-1
 233 802 l 1,1,-1
 109 802 l 1,2,-1
 109 1268 l 1,3,-1
 233 1268 l 1,0,-1
480 1268 m 1,4,-1
 480 802 l 1,5,-1
 359 802 l 1,6,-1
 359 1268 l 1,7,-1
 480 1268 l 1,4,-1
EndSplineSet
EndChar

StartChar: dollar
Encoding: 36 36 35
Width: 1028
Flags: W
LayerCount: 2
Fore
SplineSet
583 1234 m 1,0,1
 644 1228 644 1228 700.5 1206.5 c 128,-1,2
 757 1185 757 1185 802.5 1147.5 c 128,-1,3
 848 1110 848 1110 880 1056.5 c 128,-1,4
 912 1003 912 1003 924 932 c 1,5,-1
 798 932 l 1,6,7
 747 1089 747 1089 583 1113 c 1,8,-1
 583 676 l 1,9,10
 650 648 650 648 715.5 617.5 c 128,-1,11
 781 587 781 587 832.5 546.5 c 128,-1,12
 884 506 884 506 916 451.5 c 128,-1,13
 948 397 948 397 948 322 c 0,14,15
 948 238 948 238 915.5 176.5 c 128,-1,16
 883 115 883 115 831 73.5 c 128,-1,17
 779 32 779 32 714 10 c 128,-1,18
 649 -12 649 -12 583 -18 c 1,19,-1
 583 -224 l 1,20,-1
 461 -224 l 1,21,-1
 461 -14 l 1,22,23
 394 -2 394 -2 335 31.5 c 128,-1,24
 276 65 276 65 230.5 116 c 128,-1,25
 185 167 185 167 154 232.5 c 128,-1,26
 123 298 123 298 111 374 c 1,27,-1
 242 374 l 1,28,29
 260 276 260 276 316 205 c 128,-1,30
 372 134 372 134 461 111 c 1,31,-1
 461 585 l 1,32,33
 399 612 399 612 341 642.5 c 128,-1,34
 283 673 283 673 237.5 712.5 c 128,-1,35
 192 752 192 752 164.5 804 c 128,-1,36
 137 856 137 856 137 926 c 0,37,38
 137 989 137 989 162.5 1042 c 128,-1,39
 188 1095 188 1095 232 1135.5 c 128,-1,40
 276 1176 276 1176 335 1201 c 128,-1,41
 394 1226 394 1226 461 1234 c 1,42,-1
 461 1367 l 1,43,-1
 583 1367 l 1,44,-1
 583 1234 l 1,0,1
819 319 m 0,45,46
 819 355 819 355 798.5 386.5 c 128,-1,47
 778 418 778 418 745 445 c 128,-1,48
 712 472 712 472 669.5 494.5 c 128,-1,49
 627 517 627 517 583 536 c 1,50,-1
 583 104 l 1,51,52
 637 109 637 109 680.5 128 c 128,-1,53
 724 147 724 147 755 176 c 128,-1,54
 786 205 786 205 802.5 241.5 c 128,-1,55
 819 278 819 278 819 319 c 0,45,46
266 932 m 0,56,57
 266 894 266 894 281 863.5 c 128,-1,58
 296 833 296 833 322 808.5 c 128,-1,59
 348 784 348 784 383.5 763 c 128,-1,60
 419 742 419 742 461 724 c 1,61,-1
 461 1112 l 1,62,63
 416 1104 416 1104 380 1087.5 c 128,-1,64
 344 1071 344 1071 318.5 1047 c 128,-1,65
 293 1023 293 1023 279.5 994 c 128,-1,66
 266 965 266 965 266 932 c 0,56,57
EndSplineSet
EndChar

StartChar: quotesingle
Encoding: 39 39 36
Width: 301
Flags: W
LayerCount: 2
Fore
SplineSet
230 1268 m 1,0,-1
 230 802 l 1,1,-1
 109 802 l 1,2,-1
 109 1268 l 1,3,-1
 230 1268 l 1,0,-1
EndSplineSet
Substitution2: "<17,16> Show Invisibles lookup 1 subtable" quotesingle
EndChar

StartChar: at
Encoding: 64 64 37
Width: 1435
Flags: W
LayerCount: 2
Fore
SplineSet
993 817 m 1,0,-1
 1104 817 l 1,1,-1
 962 322 l 2,2,3
 958 308 958 308 955.5 294.5 c 128,-1,4
 953 281 953 281 953 270 c 0,5,6
 953 224 953 224 990 224 c 0,7,8
 1004 224 1004 224 1029 230 c 128,-1,9
 1054 236 1054 236 1083 251 c 128,-1,10
 1112 266 1112 266 1141.5 292.5 c 128,-1,11
 1171 319 1171 319 1195 360 c 128,-1,12
 1219 401 1219 401 1234.5 459.5 c 128,-1,13
 1250 518 1250 518 1250 596 c 0,14,15
 1250 692 1250 692 1211.5 772.5 c 128,-1,16
 1173 853 1173 853 1109 910.5 c 128,-1,17
 1045 968 1045 968 961.5 1000 c 128,-1,18
 878 1032 878 1032 788 1032 c 0,19,20
 670 1032 670 1032 568 989 c 128,-1,21
 466 946 466 946 391 869.5 c 128,-1,22
 316 793 316 793 273 688.5 c 128,-1,23
 230 584 230 584 230 461 c 0,24,25
 230 344 230 344 274.5 249 c 128,-1,26
 319 154 319 154 393 86.5 c 128,-1,27
 467 19 467 19 563 -17.5 c 128,-1,28
 659 -54 659 -54 762 -54 c 0,29,30
 902 -54 902 -54 1008.5 2.5 c 128,-1,31
 1115 59 1115 59 1179 153 c 1,32,-1
 1290 153 l 1,33,34
 1260 73 1260 73 1203 14.5 c 128,-1,35
 1146 -44 1146 -44 1071.5 -83 c 128,-1,36
 997 -122 997 -122 910.5 -141 c 128,-1,37
 824 -160 824 -160 734 -160 c 0,38,39
 615 -160 615 -160 504 -114.5 c 128,-1,40
 393 -69 393 -69 307 12.5 c 128,-1,41
 221 94 221 94 169.5 207 c 128,-1,42
 118 320 118 320 118 456 c 0,43,44
 118 613 118 613 172.5 739 c 128,-1,45
 227 865 227 865 319 953 c 128,-1,46
 411 1041 411 1041 532.5 1088.5 c 128,-1,47
 654 1136 654 1136 789 1136 c 0,48,49
 899 1136 899 1136 1002 1097 c 128,-1,50
 1105 1058 1105 1058 1184 987.5 c 128,-1,51
 1263 917 1263 917 1310.5 819.5 c 128,-1,52
 1358 722 1358 722 1358 605 c 0,53,54
 1358 486 1358 486 1322 395 c 128,-1,55
 1286 304 1286 304 1227 242.5 c 128,-1,56
 1168 181 1168 181 1092.5 149.5 c 128,-1,57
 1017 118 1017 118 937 118 c 0,58,59
 913 118 913 118 894 126.5 c 128,-1,60
 875 135 875 135 861.5 149 c 128,-1,61
 848 163 848 163 839.5 181.5 c 128,-1,62
 831 200 831 200 829 221 c 1,63,64
 791 166 791 166 744 142 c 128,-1,65
 697 118 697 118 633 118 c 0,66,67
 575 118 575 118 528.5 141 c 128,-1,68
 482 164 482 164 450 201.5 c 128,-1,69
 418 239 418 239 400.5 286.5 c 128,-1,70
 383 334 383 334 383 383 c 0,71,72
 383 463 383 463 411 545 c 128,-1,73
 439 627 439 627 489.5 693.5 c 128,-1,74
 540 760 540 760 610.5 802 c 128,-1,75
 681 844 681 844 767 844 c 0,76,77
 809 844 809 844 841.5 829.5 c 128,-1,78
 874 815 874 815 897.5 794.5 c 128,-1,79
 921 774 921 774 936 751.5 c 128,-1,80
 951 729 951 729 957 713 c 1,81,-1
 993 817 l 1,0,-1
871 407 m 0,82,83
 886 455 886 455 894.5 485.5 c 128,-1,84
 903 516 903 516 907 534.5 c 128,-1,85
 911 553 911 553 912 563.5 c 128,-1,86
 913 574 913 574 913 581 c 0,87,88
 913 615 913 615 901.5 644 c 128,-1,89
 890 673 890 673 870.5 693 c 128,-1,90
 851 713 851 713 825 724.5 c 128,-1,91
 799 736 799 736 769 736 c 0,92,93
 719 736 719 736 671 703 c 128,-1,94
 623 670 623 670 585 620 c 128,-1,95
 547 570 547 570 524 511 c 128,-1,96
 501 452 501 452 501 400 c 0,97,98
 501 367 501 367 509 335 c 128,-1,99
 517 303 517 303 534 277.5 c 128,-1,100
 551 252 551 252 578.5 236.5 c 128,-1,101
 606 221 606 221 645 221 c 0,102,103
 680 221 680 221 714.5 233.5 c 128,-1,104
 749 246 749 246 779 269.5 c 128,-1,105
 809 293 809 293 833 327.5 c 128,-1,106
 857 362 857 362 871 407 c 0,82,83
EndSplineSet
Substitution2: "<17,16> Show Invisibles lookup 1 subtable" at
EndChar

StartChar: A
Encoding: 65 65 38
Width: 352
Flags: W
LayerCount: 2
Fore
SplineSet
280 906 m 1,0,-1
 280 729 l 1,1,-1
 109 729 l 1,2,-1
 109 906 l 1,3,-1
 280 906 l 1,0,-1
280 175 m 1,4,-1
 280 0 l 1,5,-1
 109 0 l 1,6,-1
 109 175 l 1,7,-1
 280 175 l 1,4,-1
EndSplineSet
Substitution2: "<17,16> Show Invisibles lookup 1 subtable" A
EndChar

StartChar: B
Encoding: 66 66 39
Width: 370
Flags: W
LayerCount: 2
Fore
SplineSet
299 906 m 1,0,-1
 299 729 l 1,1,-1
 127 729 l 1,2,-1
 127 906 l 1,3,-1
 299 906 l 1,0,-1
299 175 m 1,4,-1
 299 -45 l 2,5,6
 299 -126 299 -126 258 -181.5 c 128,-1,7
 217 -237 217 -237 150 -263 c 1,8,-1
 104 -200 l 1,9,10
 133 -188 133 -188 150.5 -173.5 c 128,-1,11
 168 -159 168 -159 177.5 -140 c 128,-1,12
 187 -121 187 -121 190 -97.5 c 128,-1,13
 193 -74 193 -74 193 -45 c 2,14,-1
 193 0 l 1,15,-1
 127 0 l 1,16,-1
 127 175 l 1,17,-1
 299 175 l 1,4,-1
EndSplineSet
Substitution2: "<17,16> Show Invisibles lookup 1 subtable" B
EndChar

StartChar: C
Encoding: 67 67 40
Width: 1037
Flags: W
LayerCount: 2
Fore
SplineSet
113 554 m 1,0,-1
 955 918 l 1,1,-1
 955 800 l 1,2,-1
 233 505 l 1,3,4
 414 433 414 433 594.5 358.5 c 128,-1,5
 775 284 775 284 955 212 c 1,6,-1
 955 91 l 1,7,-1
 113 456 l 1,8,-1
 113 554 l 1,0,-1
EndSplineSet
Substitution2: "<17,16> Show Invisibles lookup 1 subtable" C
EndChar

StartChar: D
Encoding: 68 68 41
Width: 1110
Flags: W
LayerCount: 2
Fore
SplineSet
1028 855 m 1,0,-1
 1028 755 l 1,1,-1
 113 755 l 1,2,-1
 113 855 l 1,3,-1
 1028 855 l 1,0,-1
1028 512 m 1,4,-1
 1028 410 l 1,5,-1
 113 410 l 1,6,-1
 113 512 l 1,7,-1
 1028 512 l 1,4,-1
EndSplineSet
Substitution2: "<17,16> Show Invisibles lookup 1 subtable" D
EndChar

StartChar: E
Encoding: 69 69 42
Width: 1037
Flags: W
LayerCount: 2
Fore
SplineSet
113 91 m 1,0,-1
 113 210 l 1,1,-1
 837 501 l 1,2,-1
 113 800 l 1,3,-1
 113 918 l 1,4,-1
 955 554 l 1,5,-1
 955 456 l 1,6,-1
 113 91 l 1,0,-1
EndSplineSet
Substitution2: "<17,16> Show Invisibles lookup 1 subtable" E
EndChar

StartChar: F
Encoding: 70 70 43
Width: 920
Flags: W
LayerCount: 2
Fore
SplineSet
397 367 m 1,0,-1
 397 454 l 2,1,2
 397 510 397 510 420.5 555 c 128,-1,3
 444 600 444 600 478.5 639 c 128,-1,4
 513 678 513 678 554 714.5 c 128,-1,5
 595 751 595 751 629.5 790 c 128,-1,6
 664 829 664 829 687.5 874 c 128,-1,7
 711 919 711 919 711 975 c 0,8,9
 711 1023 711 1023 697 1065 c 128,-1,10
 683 1107 683 1107 655 1138 c 128,-1,11
 627 1169 627 1169 584 1187 c 128,-1,12
 541 1205 541 1205 483 1205 c 0,13,14
 430 1205 430 1205 385.5 1183.5 c 128,-1,15
 341 1162 341 1162 309 1123 c 128,-1,16
 277 1084 277 1084 257.5 1030 c 128,-1,17
 238 976 238 976 235 911 c 1,18,-1
 111 911 l 1,19,20
 114 1001 114 1001 143 1075 c 128,-1,21
 172 1149 172 1149 221 1202 c 128,-1,22
 270 1255 270 1255 336.5 1284 c 128,-1,23
 403 1313 403 1313 483 1313 c 0,24,25
 580 1313 580 1313 648 1284 c 128,-1,26
 716 1255 716 1255 758.5 1207.5 c 128,-1,27
 801 1160 801 1160 820.5 1099.5 c 128,-1,28
 840 1039 840 1039 840 975 c 0,29,30
 840 916 840 916 819 869 c 128,-1,31
 798 822 798 822 766 781 c 128,-1,32
 734 740 734 740 697 702.5 c 128,-1,33
 660 665 660 665 628 626 c 128,-1,34
 596 587 596 587 575 543.5 c 128,-1,35
 554 500 554 500 554 447 c 2,36,-1
 554 367 l 1,37,-1
 397 367 l 1,0,-1
554 160 m 1,38,-1
 554 0 l 1,39,-1
 397 0 l 1,40,-1
 397 160 l 1,41,-1
 554 160 l 1,38,-1
EndSplineSet
Substitution2: "<17,16> Show Invisibles lookup 1 subtable" F
EndChar

StartChar: G
Encoding: 71 71 44
Width: 1160
VWidth: 2000
Flags: W
LayerCount: 2
Fore
SplineSet
1012 791 m 1,0,-1
 1012 717 l 1,1,-1
 238 338 l 1,2,-1
 238 460 l 2,3,4
 238 476 238 476 247.5 489.5 c 128,-1,5
 257 503 257 503 282 515 c 2,6,-1
 723 724 l 2,7,8
 764 743 764 743 820 754 c 1,9,10
 793 760 793 760 768.5 767 c 128,-1,11
 744 774 744 774 723 784 c 2,12,-1
 282 991 l 2,13,14
 256 1002 256 1002 247 1016 c 128,-1,15
 238 1030 238 1030 238 1046 c 2,16,-1
 238 1168 l 1,17,-1
 1012 791 l 1,0,-1
1012 80 m 1,18,-1
 238 80 l 1,19,-1
 238 215 l 1,20,-1
 1012 215 l 1,21,-1
 1012 80 l 1,18,-1
EndSplineSet
Substitution2: "<17,16> Show Invisibles lookup 1 subtable" G
EndChar

StartChar: H
Encoding: 72 72 45
Width: 1110
Flags: W
LayerCount: 2
Fore
SplineSet
1044 252 m 1,0,-1
 1044 132 l 1,1,-1
 87 132 l 1,2,-1
 87 252 l 1,3,-1
 1044 252 l 1,0,-1
1044 1023 m 5,4,-1
 1044 905 l 5,5,-1
 87 905 l 5,6,-1
 87 1023 l 5,7,-1
 1044 1023 l 5,4,-1
1044 648 m 1,8,-1
 1044 528 l 1,9,-1
 87 528 l 1,10,-1
 87 648 l 1,11,-1
 1044 648 l 1,8,-1
EndSplineSet
Substitution2: "<17,16> Show Invisibles lookup 1 subtable" H
EndChar

StartChar: I
Encoding: 73 73 46
Width: 1035
VWidth: 1000
Flags: W
LayerCount: 2
Fore
SplineSet
588.115234375 551.453125 m 1,0,-1
 596.702148438 1007.84667969 l 2,1,2
 596.702148438 1045.16210938 596.702148438 1045.16210938 576.091796875 1069.55957031 c 0,3,4
 552.044921875 1093.95800781 552.044921875 1093.95800781 519.411132812 1093.95800781 c 128,-1,5
 486.776367188 1093.95800781 486.776367188 1093.95800781 462.73046875 1069.55957031 c 0,6,7
 440.401367188 1046.59667969 440.401367188 1046.59667969 440.401367188 1007.84667969 c 2,8,-1
 448.989257812 551.453125 l 1,9,-1
 448.989257812 189.782226562 l 1,10,11
 352.803710938 281.634765625 352.803710938 281.634765625 186.196289062 450.98828125 c 0,12,13
 155.279296875 481.127929688 155.279296875 481.127929688 122.645507812 481.127929688 c 0,14,15
 91.728515625 481.127929688 91.728515625 481.127929688 69.3994140625 465.33984375 c 0,16,17
 48.7880859375 448.118164062 48.7880859375 448.118164062 48.7880859375 428.025390625 c 0,18,19
 48.7880859375 409.368164062 48.7880859375 409.368164062 53.94140625 396.451171875 c 0,20,21
 62.529296875 379.228515625 62.529296875 379.228515625 81.421875 362.006835938 c 0,22,23
 91.728515625 350.525390625 91.728515625 350.525390625 119.209960938 324.69140625 c 0,24,25
 210.2421875 247.190429688 210.2421875 247.190429688 236.006835938 221.356445312 c 0,26,27
 273.793945312 186.912109375 273.793945312 186.912109375 332.193359375 132.375 c 0,28,29
 378.567382812 92.1884765625 378.567382812 92.1884765625 442.118164062 33.345703125 c 0,30,31
 481.623046875 1.771484375 481.623046875 1.771484375 517.692382812 1.771484375 c 0,32,33
 555.48046875 1.771484375 555.48046875 1.771484375 594.985351562 33.345703125 c 0,34,35
 643.9375 78.5546875 643.9375 78.5546875 703.193359375 132.375 c 0,36,37
 730.67578125 156.7734375 730.67578125 156.7734375 787.356445312 209.875 c 0,38,39
 792.508789062 214.180664062 792.508789062 214.180664062 814.837890625 234.2734375 c 128,-1,40
 837.166992188 254.366210938 837.166992188 254.366210938 854.342773438 268.71875 c 0,41,42
 869.801757812 283.0703125 869.801757812 283.0703125 890.413085938 301.728515625 c 128,-1,43
 911.0234375 320.384765625 911.0234375 320.384765625 916.176757812 324.69140625 c 0,44,45
 929.91796875 336.172851562 929.91796875 336.172851562 957.3984375 362.006835938 c 0,46,47
 988.315429688 394.298828125 988.315429688 394.298828125 988.315429688 422.28515625 c 0,48,49
 988.315429688 448.118164062 988.315429688 448.118164062 967.704101562 465.33984375 c 0,50,51
 945.375976562 481.127929688 945.375976562 481.127929688 914.458984375 481.127929688 c 0,52,53
 881.82421875 481.127929688 881.82421875 481.127929688 850.907226562 450.98828125 c 0,54,55
 684.30078125 281.634765625 684.30078125 281.634765625 588.115234375 189.782226562 c 1,56,-1
 588.115234375 551.453125 l 1,0,-1
EndSplineSet
Substitution2: "<17,16> Show Invisibles lookup 1 subtable" I
EndChar

StartChar: J
Encoding: 74 74 47
Width: 1151
VWidth: 1000
Flags: W
LayerCount: 2
Fore
SplineSet
570.453125 544.115234375 m 1,0,-1
 1026.84667969 552.702148438 l 2,1,2
 1064.16210938 552.702148438 1064.16210938 552.702148438 1088.55957031 532.091796875 c 0,3,4
 1112.95800781 508.044921875 1112.95800781 508.044921875 1112.95800781 475.411132812 c 128,-1,5
 1112.95800781 442.776367188 1112.95800781 442.776367188 1088.55957031 418.73046875 c 0,6,7
 1065.59667969 396.401367188 1065.59667969 396.401367188 1026.84667969 396.401367188 c 2,8,-1
 570.453125 404.989257812 l 1,9,-1
 208.782226562 404.989257812 l 1,10,11
 300.634765625 308.803710938 300.634765625 308.803710938 469.98828125 142.196289062 c 0,12,13
 500.127929688 111.279296875 500.127929688 111.279296875 500.127929688 78.6455078125 c 0,14,15
 500.127929688 47.728515625 500.127929688 47.728515625 484.33984375 25.3994140625 c 0,16,17
 467.118164062 4.7880859375 467.118164062 4.7880859375 447.025390625 4.7880859375 c 0,18,19
 428.368164062 4.7880859375 428.368164062 4.7880859375 415.451171875 9.94140625 c 0,20,21
 398.228515625 18.529296875 398.228515625 18.529296875 381.006835938 37.421875 c 0,22,23
 369.525390625 47.728515625 369.525390625 47.728515625 343.69140625 75.2099609375 c 0,24,25
 266.190429688 166.2421875 266.190429688 166.2421875 240.356445312 192.006835938 c 0,26,27
 205.912109375 229.793945312 205.912109375 229.793945312 151.375 288.193359375 c 0,28,29
 111.188476562 334.567382812 111.188476562 334.567382812 52.345703125 398.118164062 c 0,30,31
 20.771484375 437.623046875 20.771484375 437.623046875 20.771484375 473.692382812 c 0,32,33
 20.771484375 511.48046875 20.771484375 511.48046875 52.345703125 550.985351562 c 0,34,35
 97.5546875 599.9375 97.5546875 599.9375 151.375 659.193359375 c 0,36,37
 175.7734375 686.67578125 175.7734375 686.67578125 228.875 743.356445312 c 0,38,39
 233.180664062 748.508789062 233.180664062 748.508789062 253.2734375 770.837890625 c 128,-1,40
 273.366210938 793.166992188 273.366210938 793.166992188 287.71875 810.342773438 c 0,41,42
 302.0703125 825.801757812 302.0703125 825.801757812 320.728515625 846.413085938 c 128,-1,43
 339.384765625 867.0234375 339.384765625 867.0234375 343.69140625 872.176757812 c 0,44,45
 355.172851562 885.91796875 355.172851562 885.91796875 381.006835938 913.3984375 c 0,46,47
 413.298828125 944.315429688 413.298828125 944.315429688 441.28515625 944.315429688 c 0,48,49
 467.118164062 944.315429688 467.118164062 944.315429688 484.33984375 923.704101562 c 0,50,51
 500.127929688 901.375976562 500.127929688 901.375976562 500.127929688 870.458984375 c 0,52,53
 500.127929688 837.82421875 500.127929688 837.82421875 469.98828125 806.907226562 c 0,54,55
 300.634765625 640.30078125 300.634765625 640.30078125 208.782226562 544.115234375 c 1,56,-1
 570.453125 544.115234375 l 1,0,-1
EndSplineSet
Substitution2: "<17,16> Show Invisibles lookup 1 subtable" J
EndChar

StartChar: K
Encoding: 75 75 48
Width: 1035
VWidth: 1000
Flags: W
LayerCount: 2
Fore
SplineSet
433.884765625 579.546875 m 5,0,-1
 425.297851562 123.153320312 l 6,1,2
 425.297851562 85.837890625 425.297851562 85.837890625 445.908203125 61.4404296875 c 4,3,4
 469.955078125 37.0419921875 469.955078125 37.0419921875 502.588867188 37.0419921875 c 132,-1,5
 535.223632812 37.0419921875 535.223632812 37.0419921875 559.26953125 61.4404296875 c 4,6,7
 581.598632812 84.4033203125 581.598632812 84.4033203125 581.598632812 123.153320312 c 6,8,-1
 573.010742188 579.546875 l 5,9,-1
 573.010742188 941.217773438 l 5,10,11
 669.196289062 849.365234375 669.196289062 849.365234375 835.803710938 680.01171875 c 4,12,13
 866.720703125 649.872070312 866.720703125 649.872070312 899.354492188 649.872070312 c 4,14,15
 930.271484375 649.872070312 930.271484375 649.872070312 952.600585938 665.66015625 c 4,16,17
 973.211914062 682.881835938 973.211914062 682.881835938 973.211914062 702.974609375 c 4,18,19
 973.211914062 721.631835938 973.211914062 721.631835938 968.05859375 734.548828125 c 4,20,21
 959.470703125 751.771484375 959.470703125 751.771484375 940.578125 768.993164062 c 4,22,23
 930.271484375 780.474609375 930.271484375 780.474609375 902.790039062 806.30859375 c 4,24,25
 811.7578125 883.809570312 811.7578125 883.809570312 785.993164062 909.643554688 c 4,26,27
 748.206054688 944.087890625 748.206054688 944.087890625 689.806640625 998.625 c 4,28,29
 643.432617188 1038.81152344 643.432617188 1038.81152344 579.881835938 1097.65429688 c 4,30,31
 540.376953125 1129.22851562 540.376953125 1129.22851562 504.307617188 1129.22851562 c 4,32,33
 466.51953125 1129.22851562 466.51953125 1129.22851562 427.014648438 1097.65429688 c 4,34,35
 378.0625 1052.4453125 378.0625 1052.4453125 318.806640625 998.625 c 4,36,37
 291.32421875 974.2265625 291.32421875 974.2265625 234.643554688 921.125 c 4,38,39
 229.491210938 916.819335938 229.491210938 916.819335938 207.162109375 896.7265625 c 132,-1,40
 184.833007812 876.633789062 184.833007812 876.633789062 167.657226562 862.28125 c 4,41,42
 152.198242188 847.9296875 152.198242188 847.9296875 131.586914062 829.271484375 c 132,-1,43
 110.9765625 810.615234375 110.9765625 810.615234375 105.823242188 806.30859375 c 4,44,45
 92.08203125 794.827148438 92.08203125 794.827148438 64.6015625 768.993164062 c 4,46,47
 33.6845703125 736.701171875 33.6845703125 736.701171875 33.6845703125 708.71484375 c 4,48,49
 33.6845703125 682.881835938 33.6845703125 682.881835938 54.2958984375 665.66015625 c 4,50,51
 76.6240234375 649.872070312 76.6240234375 649.872070312 107.541015625 649.872070312 c 4,52,53
 140.17578125 649.872070312 140.17578125 649.872070312 171.092773438 680.01171875 c 4,54,55
 337.69921875 849.365234375 337.69921875 849.365234375 433.884765625 941.217773438 c 5,56,-1
 433.884765625 579.546875 l 5,0,-1
EndSplineSet
Substitution2: "<17,16> Show Invisibles lookup 1 subtable" K
EndChar

StartChar: L
Encoding: 76 76 49
Width: 1151
VWidth: 1000
Flags: W
LayerCount: 2
Fore
SplineSet
572.546875 544.115234375 m 5,0,-1
 116.153320312 552.702148438 l 6,1,2
 78.837890625 552.702148438 78.837890625 552.702148438 54.4404296875 532.091796875 c 4,3,4
 30.0419921875 508.044921875 30.0419921875 508.044921875 30.0419921875 475.411132812 c 132,-1,5
 30.0419921875 442.776367188 30.0419921875 442.776367188 54.4404296875 418.73046875 c 4,6,7
 77.4033203125 396.401367188 77.4033203125 396.401367188 116.153320312 396.401367188 c 6,8,-1
 572.546875 404.989257812 l 5,9,-1
 934.217773438 404.989257812 l 5,10,11
 842.365234375 308.803710938 842.365234375 308.803710938 673.01171875 142.196289062 c 4,12,13
 642.872070312 111.279296875 642.872070312 111.279296875 642.872070312 78.6455078125 c 4,14,15
 642.872070312 47.728515625 642.872070312 47.728515625 658.66015625 25.3994140625 c 4,16,17
 675.881835938 4.7880859375 675.881835938 4.7880859375 695.974609375 4.7880859375 c 4,18,19
 714.631835938 4.7880859375 714.631835938 4.7880859375 727.548828125 9.94140625 c 4,20,21
 744.771484375 18.529296875 744.771484375 18.529296875 761.993164062 37.421875 c 4,22,23
 773.474609375 47.728515625 773.474609375 47.728515625 799.30859375 75.2099609375 c 4,24,25
 876.809570312 166.2421875 876.809570312 166.2421875 902.643554688 192.006835938 c 4,26,27
 937.087890625 229.793945312 937.087890625 229.793945312 991.625 288.193359375 c 4,28,29
 1031.81152344 334.567382812 1031.81152344 334.567382812 1090.65429688 398.118164062 c 4,30,31
 1122.22851562 437.623046875 1122.22851562 437.623046875 1122.22851562 473.692382812 c 4,32,33
 1122.22851562 511.48046875 1122.22851562 511.48046875 1090.65429688 550.985351562 c 4,34,35
 1045.4453125 599.9375 1045.4453125 599.9375 991.625 659.193359375 c 4,36,37
 967.2265625 686.67578125 967.2265625 686.67578125 914.125 743.356445312 c 4,38,39
 909.819335938 748.508789062 909.819335938 748.508789062 889.7265625 770.837890625 c 132,-1,40
 869.633789062 793.166992188 869.633789062 793.166992188 855.28125 810.342773438 c 4,41,42
 840.9296875 825.801757812 840.9296875 825.801757812 822.271484375 846.413085938 c 132,-1,43
 803.615234375 867.0234375 803.615234375 867.0234375 799.30859375 872.176757812 c 4,44,45
 787.827148438 885.91796875 787.827148438 885.91796875 761.993164062 913.3984375 c 4,46,47
 729.701171875 944.315429688 729.701171875 944.315429688 701.71484375 944.315429688 c 4,48,49
 675.881835938 944.315429688 675.881835938 944.315429688 658.66015625 923.704101562 c 4,50,51
 642.872070312 901.375976562 642.872070312 901.375976562 642.872070312 870.458984375 c 4,52,53
 642.872070312 837.82421875 642.872070312 837.82421875 673.01171875 806.907226562 c 4,54,55
 842.365234375 640.30078125 842.365234375 640.30078125 934.217773438 544.115234375 c 5,56,-1
 572.546875 544.115234375 l 5,0,-1
EndSplineSet
Substitution2: "<17,16> Show Invisibles lookup 1 subtable" L
EndChar

StartChar: M
Encoding: 77 77 50
Width: 1125
Flags: W
LayerCount: 2
Fore
SplineSet
246 -33 m 5,0,-1
 246 816 l 6,1,2
 246 893 246 893 274.5 954.5 c 132,-1,3
 303 1016 303 1016 348.5 1058.5 c 132,-1,4
 394 1101 394 1101 451.5 1123.5 c 132,-1,5
 509 1146 509 1146 567 1146 c 4,6,7
 629 1146 629 1146 690.5 1125.5 c 132,-1,8
 752 1105 752 1105 801 1063.5 c 132,-1,9
 850 1022 850 1022 880.5 961 c 132,-1,10
 911 900 911 900 911 819 c 6,11,-1
 911 -33 l 5,12,-1
 1047 -33 l 5,13,-1
 1047 811 l 6,14,15
 1047 884 1047 884 1027.5 946 c 132,-1,16
 1008 1008 1008 1008 974 1058.5 c 132,-1,17
 940 1109 940 1109 893.5 1147.5 c 132,-1,18
 847 1186 847 1186 794 1212 c 132,-1,19
 741 1238 741 1238 683.5 1251 c 132,-1,20
 626 1264 626 1264 569 1264 c 4,21,22
 488 1264 488 1264 406 1235 c 132,-1,23
 324 1206 324 1206 258.5 1148.5 c 132,-1,24
 193 1091 193 1091 152 1005.5 c 132,-1,25
 111 920 111 920 111 807 c 6,26,-1
 111 -33 l 5,27,-1
 246 -33 l 5,0,-1
EndSplineSet
Substitution2: "<17,16> Show Invisibles lookup 1 subtable" M
EndChar

StartChar: N
Encoding: 78 78 51
Width: 524
VWidth: 2000
Flags: W
LayerCount: 2
Fore
SplineSet
357 -107 m 2,0,1
 357 -269 357 -269 275 -353 c 128,-1,2
 193 -437 193 -437 35 -437 c 0,3,4
 -22 -437 -22 -437 -80 -417 c 1,5,-1
 -62 -272 l 1,6,7
 -16 -285 -16 -285 17 -285 c 0,8,9
 172 -285 172 -285 172 -108 c 2,10,-1
 172 1197 l 2,11,12
 172 1367 172 1367 260.5 1462 c 128,-1,13
 349 1557 349 1557 510 1557 c 0,14,15
 570 1557 570 1557 654 1536 c 1,16,-1
 630 1394 l 1,17,18
 593 1405 593 1405 539 1405 c 0,19,20
 357 1405 357 1405 357 1186 c 2,21,-1
 357 -107 l 2,0,1
EndSplineSet
Substitution2: "<17,16> Show Invisibles lookup 1 subtable" N
EndChar

StartChar: O
Encoding: 79 79 52
Width: 1325
Flags: W
LayerCount: 2
Fore
SplineSet
806.5546875 760.837890625 m 4,0,1
 856.770507812 703.967773438 856.770507812 703.967773438 856.770507812 620.6015625 c 132,-1,2
 856.770507812 537.235351562 856.770507812 537.235351562 806.5546875 480.365234375 c 4,3,4
 755.509765625 420.91015625 755.509765625 420.91015625 675 420.91015625 c 132,-1,5
 594.490234375 420.91015625 594.490234375 420.91015625 543.4453125 477.780273438 c 4,6,7
 493.23046875 537.235351562 493.23046875 537.235351562 491.985351562 619.955078125 c 4,8,9
 491.985351562 703.967773438 491.985351562 703.967773438 543.4453125 760.837890625 c 4,10,11
 593.66015625 819 593.66015625 819 675 819 c 4,12,13
 755.509765625 819 755.509765625 819 806.5546875 760.837890625 c 4,0,1
1261 630 m 0,14,15
 1261 484 1261 484 1222 362 c 128,-1,16
 1183 240 1183 240 1108 152 c 128,-1,17
 1033 64 1033 64 923.5 15.5 c 128,-1,18
 814 -33 814 -33 673 -33 c 0,19,20
 533 -33 533 -33 424 15.5 c 128,-1,21
 315 64 315 64 240 152 c 128,-1,22
 165 240 165 240 126 362 c 128,-1,23
 87 484 87 484 87 630 c 0,24,25
 87 775 87 775 126 896.5 c 128,-1,26
 165 1018 165 1018 240 1106 c 128,-1,27
 315 1194 315 1194 424 1242.5 c 128,-1,28
 533 1291 533 1291 673 1291 c 0,29,30
 814 1291 814 1291 923.5 1242.5 c 128,-1,31
 1033 1194 1033 1194 1108 1106 c 128,-1,32
 1183 1018 1183 1018 1222 896.5 c 128,-1,33
 1261 775 1261 775 1261 630 c 0,14,15
1069 630 m 256,34,35
 1069 754 1069 754 1038.5 851.5 c 128,-1,36
 1008 949 1008 949 954.5 1016.5 c 128,-1,37
 901 1084 901 1084 828.5 1119.5 c 128,-1,38
 756 1155 756 1155 673 1155 c 0,39,40
 589 1155 589 1155 517 1119.5 c 128,-1,41
 445 1084 445 1084 392 1016.5 c 128,-1,42
 339 949 339 949 309 851.5 c 128,-1,43
 279 754 279 754 279 630 c 256,44,45
 279 506 279 506 309 408.5 c 128,-1,46
 339 311 339 311 392 243 c 128,-1,47
 445 175 445 175 517 139 c 128,-1,48
 589 103 589 103 673 103 c 0,49,50
 756 103 756 103 828.5 139 c 128,-1,51
 901 175 901 175 954.5 243 c 128,-1,52
 1008 311 1008 311 1038.5 408.5 c 128,-1,53
 1069 506 1069 506 1069 630 c 256,34,35
EndSplineSet
Substitution2: "<17,16> Show Invisibles lookup 1 subtable" O
EndChar

StartChar: P
Encoding: 80 80 53
Width: 1160
VWidth: 2000
Flags: W
LayerCount: 2
Fore
SplineSet
148 791 m 1,0,-1
 922 1168 l 1,1,-1
 922 1046 l 2,2,3
 922 1030 922 1030 913 1016.5 c 128,-1,4
 904 1003 904 1003 878 991 c 2,5,-1
 437 784 l 2,6,7
 391 766 391 766 340 754 c 1,8,9
 366 749 366 749 391 741.5 c 128,-1,10
 416 734 416 734 437 724 c 2,11,-1
 878 515 l 2,12,13
 903 503 903 503 912.5 489.5 c 128,-1,14
 922 476 922 476 922 460 c 2,15,-1
 922 338 l 1,16,-1
 148 717 l 1,17,-1
 148 791 l 1,0,-1
148 215 m 1,18,-1
 922 215 l 1,19,-1
 922 80 l 1,20,-1
 148 80 l 1,21,-1
 148 215 l 1,18,-1
EndSplineSet
Substitution2: "<17,16> Show Invisibles lookup 1 subtable" P
EndChar

StartChar: Q
Encoding: 81 81 54
Width: 1160
VWidth: 2000
Flags: W
LayerCount: 2
Fore
SplineSet
787 858 m 0,0,1
 816 858 816 858 843 865 c 128,-1,2
 870 872 870 872 893 882.5 c 128,-1,3
 916 893 916 893 933 905 c 128,-1,4
 950 917 950 917 959 928 c 1,5,-1
 984 814 l 1,6,7
 949 767 949 767 893 744 c 128,-1,8
 837 721 837 721 776 721 c 0,9,10
 724 721 724 721 672.5 737.5 c 128,-1,11
 621 754 621 754 570.5 774 c 128,-1,12
 520 794 520 794 472.5 810.5 c 128,-1,13
 425 827 425 827 380 827 c 0,14,15
 350 827 350 827 322 820.5 c 128,-1,16
 294 814 294 814 271 803.5 c 128,-1,17
 248 793 248 793 231 780.5 c 128,-1,18
 214 768 214 768 205 756 c 1,19,-1
 176 865 l 1,20,21
 211 916 211 916 267.5 940.5 c 128,-1,22
 324 965 324 965 390 965 c 0,23,24
 443 965 443 965 495 948.5 c 128,-1,25
 547 932 547 932 597 911.5 c 128,-1,26
 647 891 647 891 694.5 874.5 c 128,-1,27
 742 858 742 858 787 858 c 0,0,1
787 520 m 0,28,29
 816 520 816 520 843 526.5 c 128,-1,30
 870 533 870 533 893 543.5 c 128,-1,31
 916 554 916 554 933 566 c 128,-1,32
 950 578 950 578 959 589 c 1,33,-1
 984 476 l 1,34,35
 949 428 949 428 893 405 c 128,-1,36
 837 382 837 382 776 382 c 0,37,38
 724 382 724 382 672.5 398.5 c 128,-1,39
 621 415 621 415 570.5 435.5 c 128,-1,40
 520 456 520 456 472.5 472.5 c 128,-1,41
 425 489 425 489 380 489 c 0,42,43
 350 489 350 489 322 482 c 128,-1,44
 294 475 294 475 271 464.5 c 128,-1,45
 248 454 248 454 231 441.5 c 128,-1,46
 214 429 214 429 205 417 c 1,47,-1
 176 526 l 1,48,49
 211 577 211 577 267.5 601.5 c 128,-1,50
 324 626 324 626 390 626 c 0,51,52
 443 626 443 626 495 609.5 c 128,-1,53
 547 593 547 593 597 573 c 128,-1,54
 647 553 647 553 694.5 536.5 c 128,-1,55
 742 520 742 520 787 520 c 0,28,29
EndSplineSet
Substitution2: "<17,16> Show Invisibles lookup 1 subtable" Q
EndChar

StartChar: R
Encoding: 82 82 55
Width: 1160
VWidth: 2000
Flags: W
LayerCount: 2
Fore
SplineSet
100 739 m 1,0,-1
 1058 739 l 1,1,-1
 1058 604 l 1,2,-1
 100 604 l 1,3,-1
 100 739 l 1,0,-1
454 1026 m 0,4,5
 454 1052 454 1052 463.5 1075 c 128,-1,6
 473 1098 473 1098 489.5 1115 c 128,-1,7
 506 1132 506 1132 528.5 1142 c 128,-1,8
 551 1152 551 1152 578 1152 c 0,9,10
 604 1152 604 1152 626.5 1142 c 128,-1,11
 649 1132 649 1132 666 1115 c 128,-1,12
 683 1098 683 1098 693 1075 c 128,-1,13
 703 1052 703 1052 703 1026 c 0,14,15
 703 999 703 999 693 976.5 c 128,-1,16
 683 954 683 954 666 937 c 128,-1,17
 649 920 649 920 626.5 910.5 c 128,-1,18
 604 901 604 901 578 901 c 0,19,20
 551 901 551 901 528.5 910.5 c 128,-1,21
 506 920 506 920 489.5 937 c 128,-1,22
 473 954 473 954 463.5 976.5 c 128,-1,23
 454 999 454 999 454 1026 c 0,4,5
454 314 m 0,24,25
 454 340 454 340 463.5 363 c 128,-1,26
 473 386 473 386 489.5 403 c 128,-1,27
 506 420 506 420 528.5 430 c 128,-1,28
 551 440 551 440 578 440 c 0,29,30
 604 440 604 440 626.5 430 c 128,-1,31
 649 420 649 420 666 403 c 128,-1,32
 683 386 683 386 693 363 c 128,-1,33
 703 340 703 340 703 314 c 0,34,35
 703 287 703 287 693 264.5 c 128,-1,36
 683 242 683 242 666 225 c 128,-1,37
 649 208 649 208 626.5 198.5 c 128,-1,38
 604 189 604 189 578 189 c 0,39,40
 551 189 551 189 528.5 198.5 c 128,-1,41
 506 208 506 208 489.5 225 c 128,-1,42
 473 242 473 242 463.5 264.5 c 128,-1,43
 454 287 454 287 454 314 c 0,24,25
EndSplineSet
Substitution2: "<17,16> Show Invisibles lookup 1 subtable" R
EndChar

StartChar: S
Encoding: 83 83 56
Width: 1199
VWidth: 2000
Flags: W
LayerCount: 2
Fore
SplineSet
875 577 m 1,0,-1
 294 -117 l 1,1,-1
 1195 -117 l 1,2,-1
 1195 -269 l 1,3,-1
 69 -269 l 1,4,-1
 69 -126 l 1,5,-1
 678 590 l 1,6,-1
 69 1312 l 1,7,-1
 69 1456 l 1,8,-1
 1118 1456 l 1,9,-1
 1118 1304 l 1,10,-1
 293 1304 l 1,11,-1
 875 602 l 1,12,-1
 875 577 l 1,0,-1
EndSplineSet
Substitution2: "<17,16> Show Invisibles lookup 1 subtable" S
EndChar

StartChar: T
Encoding: 84 84 57
Width: 1444
VWidth: 2000
Flags: W
LayerCount: 2
Fore
SplineSet
646 1456 m 1,0,-1
 816 1456 l 1,1,-1
 1395 0 l 1,2,-1
 31 0 l 1,3,-1
 646 1456 l 1,0,-1
293 157 m 1,4,-1
 1137 157 l 1,5,-1
 728 1221 l 1,6,-1
 293 157 l 1,4,-1
EndSplineSet
Substitution2: "<17,16> Show Invisibles lookup 1 subtable" T
EndChar

StartChar: U
Encoding: 85 85 58
Width: 1125
Flags: W
LayerCount: 2
Fore
SplineSet
246 1261 m 1,0,-1
 246 412 l 2,1,2
 246 335 246 335 274.5 273.5 c 128,-1,3
 303 212 303 212 348.5 169.5 c 128,-1,4
 394 127 394 127 451.5 104.5 c 128,-1,5
 509 82 509 82 567 82 c 0,6,7
 629 82 629 82 690.5 102.5 c 128,-1,8
 752 123 752 123 801 164.5 c 128,-1,9
 850 206 850 206 880.5 267 c 128,-1,10
 911 328 911 328 911 409 c 2,11,-1
 911 1261 l 1,12,-1
 1047 1261 l 1,13,-1
 1047 417 l 2,14,15
 1047 344 1047 344 1027.5 282 c 128,-1,16
 1008 220 1008 220 974 169.5 c 128,-1,17
 940 119 940 119 893.5 80.5 c 128,-1,18
 847 42 847 42 794 16 c 128,-1,19
 741 -10 741 -10 683.5 -23 c 128,-1,20
 626 -36 626 -36 569 -36 c 0,21,22
 488 -36 488 -36 406 -7 c 128,-1,23
 324 22 324 22 258.5 79.5 c 128,-1,24
 193 137 193 137 152 222.5 c 128,-1,25
 111 308 111 308 111 421 c 2,26,-1
 111 1261 l 1,27,-1
 246 1261 l 1,0,-1
EndSplineSet
Substitution2: "<17,16> Show Invisibles lookup 1 subtable" U
EndChar

StartChar: V
Encoding: 86 86 59
Width: 1037
Flags: W
LayerCount: 2
Fore
SplineSet
449.639648438 546.26953125 m 5,0,-1
 449.639648438 471.299804688 l 5,1,-1
 275.219726562 471.299804688 l 5,2,-1
 275.219726562 546.26953125 l 5,3,-1
 449.639648438 546.26953125 l 5,0,-1
475.041015625 548.392578125 m 1,4,-1
 986.440429688 867.890625 l 1,5,-1
 986.440429688 748.599609375 l 1,6,-1
 579.513671875 507.516601562 l 1,7,8
 630.884765625 478.319335938 630.884765625 478.319335938 681.389648438 447.87109375 c 128,-1,9
 731.89453125 417.422851562 731.89453125 417.422851562 783.265625 388.225585938 c 0,10,11
 832.327148438 359.029296875 832.327148438 359.029296875 885.141601562 327.329101562 c 128,-1,12
 937.955078125 295.629882812 937.955078125 295.629882812 986.440429688 268.100585938 c 1,13,-1
 986.440429688 146.307617188 l 1,14,-1
 475.041015625 466.640625 l 1,15,-1
 475.041015625 548.392578125 l 1,4,-1
37.400390625 553.58984375 m 1,16,-1
 693.040039062 925.099609375 l 1,17,-1
 693.040039062 786.389648438 l 1,18,-1
 171.33984375 506.059570312 l 1,19,20
 237.200195312 472.110351562 237.200195312 472.110351562 301.950195312 436.705078125 c 128,-1,21
 366.700195312 401.299804688 366.700195312 401.299804688 432.559570312 367.349609375 c 0,22,23
 495.459960938 333.400390625 495.459960938 333.400390625 563.169921875 296.540039062 c 128,-1,24
 630.879882812 259.6796875 630.879882812 259.6796875 693.040039062 227.669921875 c 1,25,-1
 693.040039062 86.0498046875 l 1,26,-1
 37.400390625 458.530273438 l 1,27,-1
 37.400390625 553.58984375 l 1,16,-1
EndSplineSet
Substitution2: "<17,16> Show Invisibles lookup 1 subtable" V
EndChar

StartChar: W
Encoding: 87 87 60
Width: 1037
Flags: W
LayerCount: 2
Fore
SplineSet
576.360351562 546.26953125 m 5,0,-1
 576.360351562 471.299804688 l 5,1,-1
 750.780273438 471.299804688 l 5,2,-1
 750.780273438 546.26953125 l 5,3,-1
 576.360351562 546.26953125 l 5,0,-1
550.958984375 548.392578125 m 5,4,-1
 39.5595703125 867.890625 l 5,5,-1
 39.5595703125 748.599609375 l 5,6,-1
 446.486328125 507.516601562 l 5,7,8
 395.115234375 478.319335938 395.115234375 478.319335938 344.610351562 447.87109375 c 132,-1,9
 294.10546875 417.422851562 294.10546875 417.422851562 242.734375 388.225585938 c 4,10,11
 193.672851562 359.029296875 193.672851562 359.029296875 140.858398438 327.329101562 c 132,-1,12
 88.044921875 295.629882812 88.044921875 295.629882812 39.5595703125 268.100585938 c 5,13,-1
 39.5595703125 146.307617188 l 5,14,-1
 550.958984375 466.640625 l 5,15,-1
 550.958984375 548.392578125 l 5,4,-1
988.599609375 553.58984375 m 5,16,-1
 332.959960938 925.099609375 l 5,17,-1
 332.959960938 786.389648438 l 5,18,-1
 854.66015625 506.059570312 l 5,19,20
 788.799804688 472.110351562 788.799804688 472.110351562 724.049804688 436.705078125 c 132,-1,21
 659.299804688 401.299804688 659.299804688 401.299804688 593.440429688 367.349609375 c 4,22,23
 530.540039062 333.400390625 530.540039062 333.400390625 462.830078125 296.540039062 c 132,-1,24
 395.120117188 259.6796875 395.120117188 259.6796875 332.959960938 227.669921875 c 5,25,-1
 332.959960938 86.0498046875 l 5,26,-1
 988.599609375 458.530273438 l 5,27,-1
 988.599609375 553.58984375 l 5,16,-1
EndSplineSet
Substitution2: "<17,16> Show Invisibles lookup 1 subtable" W
EndChar

StartChar: X
Encoding: 88 88 61
Width: 1160
VWidth: 2000
Flags: W
LayerCount: 2
Fore
SplineSet
1017 1014 m 1,0,-1
 673 670 l 1,1,-1
 1027 317 l 1,2,-1
 932 221 l 1,3,-1
 578 575 l 1,4,-1
 221 219 l 1,5,-1
 126 315 l 1,6,-1
 482 671 l 1,7,-1
 137 1016 l 1,8,-1
 232 1112 l 1,9,-1
 577 766 l 1,10,-1
 921 1110 l 1,11,-1
 1017 1014 l 1,0,-1
EndSplineSet
Substitution2: "<17,16> Show Invisibles lookup 1 subtable" X
EndChar

StartChar: Y
Encoding: 89 89 62
Width: 1422
VWidth: 2000
Flags: W
LayerCount: 2
Fore
SplineSet
1186 917 m 2,0,1
 1226 939 1226 939 1297 894 c 0,2,3
 1358 855 1358 855 1340 830 c 0,4,5
 1297 772 1297 772 1297 766 c 1,6,-1
 1186 741 l 1,7,-1
 149 170 l 1,8,9
 93 214 93 214 93 255 c 1,10,-1
 26 697 l 1,11,-1
 226 666 l 1,12,13
 252 535 252 535 277 404 c 1,14,-1
 1186 917 l 2,0,1
EndSplineSet
Substitution2: "<17,16> Show Invisibles lookup 1 subtable" Y
EndChar

StartChar: Z
Encoding: 90 90 63
Width: 1160
VWidth: 2000
Flags: W
LayerCount: 2
Fore
SplineSet
150 909 m 1,0,-1
 639 909 l 1,1,-1
 753 1150 l 1,2,-1
 882 1150 l 1,3,-1
 768 909 l 1,4,-1
 1009 909 l 1,5,-1
 1009 774 l 1,6,-1
 705 774 l 1,7,-1
 610 574 l 1,8,-1
 1009 574 l 1,9,-1
 1009 439 l 1,10,-1
 547 439 l 1,11,-1
 428 187 l 1,12,-1
 299 187 l 1,13,-1
 418 439 l 1,14,-1
 150 439 l 1,15,-1
 150 574 l 1,16,-1
 481 574 l 1,17,-1
 576 774 l 1,18,-1
 150 774 l 1,19,-1
 150 909 l 1,0,-1
EndSplineSet
Substitution2: "<17,16> Show Invisibles lookup 1 subtable" Z
EndChar

StartChar: backslash
Encoding: 92 92 64
Width: 525
Flags: W
LayerCount: 2
Fore
SplineSet
101 1307 m 1,0,-1
 525 -36 l 1,1,-1
 419 -36 l 1,2,-1
 0 1307 l 1,3,-1
 101 1307 l 1,0,-1
EndSplineSet
Substitution2: "<17,16> Show Invisibles lookup 1 subtable" backslash
EndChar

StartChar: grave
Encoding: 96 96 65
Width: 365
Flags: W
LayerCount: 2
Fore
SplineSet
109 831 m 1,0,-1
 109 1059 l 2,1,2
 109 1153 109 1153 159 1212.5 c 128,-1,3
 209 1272 209 1272 294 1292 c 1,4,-1
 294 1192 l 1,5,6
 243 1175 243 1175 227.5 1143.5 c 128,-1,7
 212 1112 212 1112 212 1059 c 2,8,-1
 212 1035 l 1,9,-1
 294 1035 l 1,10,-1
 294 831 l 1,11,-1
 109 831 l 1,0,-1
EndSplineSet
Substitution2: "<17,16> Show Invisibles lookup 1 subtable" grave
EndChar

StartChar: a
Encoding: 97 97 66
Width: 1030
Flags: W
LayerCount: 2
Fore
SplineSet
137 663 m 1,0,1
 141 730 141 730 174 779 c 128,-1,2
 207 828 207 828 257 859.5 c 128,-1,3
 307 891 307 891 368 906.5 c 128,-1,4
 429 922 429 922 490 922 c 0,5,6
 557 922 557 922 620 907.5 c 128,-1,7
 683 893 683 893 732 860.5 c 128,-1,8
 781 828 781 828 810.5 777 c 128,-1,9
 840 726 840 726 840 654 c 2,10,-1
 840 177 l 2,11,12
 840 163 840 163 845 149 c 128,-1,13
 850 135 850 135 859 124 c 128,-1,14
 868 113 868 113 880 106 c 128,-1,15
 892 99 892 99 906 99 c 0,16,17
 923 99 923 99 950 108 c 1,18,-1
 950 -2 l 1,19,20
 921 -10 921 -10 901 -14 c 128,-1,21
 881 -18 881 -18 857 -18 c 0,22,23
 800 -18 800 -18 761.5 24.5 c 128,-1,24
 723 67 723 67 718 157 c 1,25,26
 675 101 675 101 633.5 66.5 c 128,-1,27
 592 32 592 32 550.5 13 c 128,-1,28
 509 -6 509 -6 467 -12 c 128,-1,29
 425 -18 425 -18 381 -18 c 0,30,31
 325 -18 325 -18 276 0 c 128,-1,32
 227 18 227 18 191 51.5 c 128,-1,33
 155 85 155 85 134 132 c 128,-1,34
 113 179 113 179 113 237 c 256,35,36
 113 295 113 295 138.5 336 c 128,-1,37
 164 377 164 377 205.5 406.5 c 128,-1,38
 247 436 247 436 300.5 456.5 c 128,-1,39
 354 477 354 477 409.5 493 c 128,-1,40
 465 509 465 509 518.5 523.5 c 128,-1,41
 572 538 572 538 613.5 555.5 c 128,-1,42
 655 573 655 573 680.5 596.5 c 128,-1,43
 706 620 706 620 706 654 c 0,44,45
 706 734 706 734 648.5 769 c 128,-1,46
 591 804 591 804 487 804 c 0,47,48
 446 804 446 804 410.5 796 c 128,-1,49
 375 788 375 788 347 771 c 128,-1,50
 319 754 319 754 301 727.5 c 128,-1,51
 283 701 283 701 277 663 c 1,52,-1
 137 663 l 1,0,1
706 512 m 1,53,54
 678 482 678 482 633.5 462.5 c 128,-1,55
 589 443 589 443 537.5 427.5 c 128,-1,56
 486 412 486 412 434 397.5 c 128,-1,57
 382 383 382 383 340.5 363.5 c 128,-1,58
 299 344 299 344 272.5 315.5 c 128,-1,59
 246 287 246 287 246 244 c 0,60,61
 246 205 246 205 259.5 177.5 c 128,-1,62
 273 150 273 150 295 132.5 c 128,-1,63
 317 115 317 115 344.5 107 c 128,-1,64
 372 99 372 99 401 99 c 0,65,66
 485 99 485 99 565 149.5 c 128,-1,67
 645 200 645 200 706 304 c 1,68,-1
 706 512 l 1,53,54
EndSplineSet
Substitution2: "<17,16> Show Invisibles lookup 1 subtable" a
EndChar

StartChar: b
Encoding: 98 98 67
Width: 1000
Flags: W
LayerCount: 2
Fore
SplineSet
438 272 m 0,0,1
 361 272 361 272 292.5 298 c 128,-1,2
 224 324 224 324 172 369 c 128,-1,3
 120 414 120 414 90 474 c 128,-1,4
 60 534 60 534 60 602 c 0,5,6
 60 658 60 658 88.5 707.5 c 128,-1,7
 117 757 117 757 164 794.5 c 128,-1,8
 211 832 211 832 272 854 c 128,-1,9
 333 876 333 876 399 876 c 0,10,11
 440 876 440 876 480 867 c 128,-1,12
 520 858 520 858 556 842.5 c 128,-1,13
 592 827 592 827 623.5 806.5 c 128,-1,14
 655 786 655 786 680 763 c 1,15,-1
 680 998 l 1,16,-1
 0 998 l 1,17,-1
 0 1118 l 1,18,-1
 1020 1118 l 1,19,-1
 1020 998 l 1,20,-1
 800 998 l 1,21,-1
 800 0 l 1,22,-1
 680 0 l 1,23,-1
 680 356 l 1,24,25
 631 314 631 314 567.5 293 c 128,-1,26
 504 272 504 272 438 272 c 0,0,1
281 753 m 1,27,28
 228 730 228 730 197.5 690.5 c 128,-1,29
 167 651 167 651 167 596 c 0,30,31
 167 557 167 557 189 516.5 c 128,-1,32
 211 476 211 476 248.5 443 c 128,-1,33
 286 410 286 410 336 389 c 128,-1,34
 386 368 386 368 442 368 c 0,35,36
 472 368 472 368 504 376 c 1,37,-1
 281 753 l 1,27,28
576 405 m 1,38,39
 624 434 624 434 652 470 c 128,-1,40
 680 506 680 506 680 544 c 2,41,-1
 680 570 l 2,42,43
 680 598 680 598 661 635 c 128,-1,44
 642 672 642 672 605.5 704 c 128,-1,45
 569 736 569 736 517 758.5 c 128,-1,46
 465 781 465 781 399 781 c 0,47,48
 388 781 388 781 377.5 780 c 128,-1,49
 367 779 367 779 356 777 c 1,50,-1
 576 405 l 1,38,39
EndSplineSet
Substitution2: "<17,16> Show Invisibles lookup 1 subtable" b
EndChar

StartChar: c
Encoding: 99 99 68
Width: 1078
Flags: W
LayerCount: 2
Fore
SplineSet
1098 998 m 1,0,-1
 878 998 l 1,1,-1
 878 -2 l 1,2,-1
 758 95 l 1,3,-1
 758 417 l 1,4,5
 681 351 681 351 601 311 c 128,-1,6
 521 271 521 271 433 271 c 0,7,8
 386 271 386 271 339 282 c 128,-1,9
 292 293 292 293 254.5 318.5 c 128,-1,10
 217 344 217 344 193 386.5 c 128,-1,11
 169 429 169 429 169 492 c 0,12,13
 169 537 169 537 189 577 c 128,-1,14
 209 617 209 617 238.5 649 c 128,-1,15
 268 681 268 681 300 704 c 128,-1,16
 332 727 332 727 356 740 c 1,17,-1
 60 740 l 1,18,-1
 60 860 l 1,19,-1
 554 860 l 1,20,-1
 595 740 l 1,21,22
 505 706 505 706 446 672.5 c 128,-1,23
 387 639 387 639 352 608 c 128,-1,24
 317 577 317 577 303 548.5 c 128,-1,25
 289 520 289 520 289 497 c 0,26,27
 289 465 289 465 303.5 444.5 c 128,-1,28
 318 424 318 424 339.5 412 c 128,-1,29
 361 400 361 400 386 395.5 c 128,-1,30
 411 391 411 391 433 391 c 0,31,32
 468 391 468 391 503 400 c 128,-1,33
 538 409 538 409 577 430 c 128,-1,34
 616 451 616 451 660 485 c 128,-1,35
 704 519 704 519 758 570 c 1,36,-1
 758 998 l 1,37,-1
 0 998 l 1,38,-1
 0 1118 l 1,39,-1
 1098 1118 l 1,40,-1
 1098 998 l 1,0,-1
EndSplineSet
Substitution2: "<17,16> Show Invisibles lookup 1 subtable" c
EndChar

StartChar: d
Encoding: 100 100 69
Width: 1158
Flags: W
LayerCount: 2
Fore
SplineSet
838 998 m 1,0,-1
 0 998 l 1,1,-1
 0 1118 l 1,2,-1
 1178 1118 l 1,3,-1
 1178 998 l 1,4,-1
 958 998 l 1,5,-1
 958 781 l 1,6,-1
 510 781 l 2,7,8
 501 781 501 781 484 780 c 128,-1,9
 467 779 467 779 451 772.5 c 128,-1,10
 435 766 435 766 423 752.5 c 128,-1,11
 411 739 411 739 411 714 c 0,12,13
 411 691 411 691 418 668.5 c 128,-1,14
 425 646 425 646 440.5 629 c 128,-1,15
 456 612 456 612 480 601.5 c 128,-1,16
 504 591 504 591 538 591 c 0,17,18
 562 591 562 591 601.5 597.5 c 128,-1,19
 641 604 641 604 683 612 c 128,-1,20
 725 620 725 620 763 626.5 c 128,-1,21
 801 633 801 633 822 633 c 0,22,23
 915 633 915 633 960 582 c 128,-1,24
 1005 531 1005 531 1005 437 c 0,25,26
 1005 368 1005 368 977.5 301 c 128,-1,27
 950 234 950 234 899.5 181.5 c 128,-1,28
 849 129 849 129 779 96.5 c 128,-1,29
 709 64 709 64 624 64 c 0,30,31
 531 64 531 64 450.5 96.5 c 128,-1,32
 370 129 370 129 300 190.5 c 128,-1,33
 230 252 230 252 170.5 339 c 128,-1,34
 111 426 111 426 60 536 c 1,35,-1
 138 587 l 1,36,37
 198 455 198 455 263 372 c 128,-1,38
 328 289 328 289 391.5 243 c 128,-1,39
 455 197 455 197 514.5 180.5 c 128,-1,40
 574 164 574 164 622 164 c 0,41,42
 680 164 680 164 728 186 c 128,-1,43
 776 208 776 208 811 245.5 c 128,-1,44
 846 283 846 283 865.5 332.5 c 128,-1,45
 885 382 885 382 885 437 c 0,46,47
 885 475 885 475 869 497 c 128,-1,48
 853 519 853 519 821 519 c 0,49,50
 787 519 787 519 752.5 513.5 c 128,-1,51
 718 508 718 508 683 502 c 128,-1,52
 648 496 648 496 611.5 490.5 c 128,-1,53
 575 485 575 485 538 485 c 0,54,55
 474 485 474 485 427.5 506.5 c 128,-1,56
 381 528 381 528 350.5 561.5 c 128,-1,57
 320 595 320 595 305.5 637.5 c 128,-1,58
 291 680 291 680 291 722 c 0,59,60
 291 771 291 771 311.5 802 c 128,-1,61
 332 833 332 833 363.5 850.5 c 128,-1,62
 395 868 395 868 434 874.5 c 128,-1,63
 473 881 473 881 510 881 c 2,64,-1
 838 881 l 1,65,-1
 838 998 l 1,0,-1
EndSplineSet
Substitution2: "<17,16> Show Invisibles lookup 1 subtable" d
EndChar

StartChar: e
Encoding: 101 101 70
Width: 1008
Flags: W
LayerCount: 2
Fore
SplineSet
254 428 m 1,0,1
 255 365 255 365 276.5 305.5 c 128,-1,2
 298 246 298 246 334.5 200 c 128,-1,3
 371 154 371 154 421 126.5 c 128,-1,4
 471 99 471 99 529 99 c 0,5,6
 725 99 725 99 788 280 c 1,7,-1
 910 280 l 1,8,9
 895 209 895 209 858.5 153.5 c 128,-1,10
 822 98 822 98 771 60 c 128,-1,11
 720 22 720 22 657.5 2 c 128,-1,12
 595 -18 595 -18 529 -18 c 0,13,14
 434 -18 434 -18 357 21 c 128,-1,15
 280 60 280 60 226 126.5 c 128,-1,16
 172 193 172 193 142.5 280.5 c 128,-1,17
 113 368 113 368 113 466 c 0,18,19
 113 557 113 557 142 639.5 c 128,-1,20
 171 722 171 722 225 785 c 128,-1,21
 279 848 279 848 355.5 885 c 128,-1,22
 432 922 432 922 527 922 c 0,23,24
 619 922 619 922 693 888.5 c 128,-1,25
 767 855 767 855 819 796 c 128,-1,26
 871 737 871 737 899 656.5 c 128,-1,27
 927 576 927 576 927 481 c 2,28,-1
 927 428 l 1,29,-1
 254 428 l 1,0,1
789 532 m 1,30,31
 788 589 788 589 769 639 c 128,-1,32
 750 689 750 689 715 725.5 c 128,-1,33
 680 762 680 762 630 783 c 128,-1,34
 580 804 580 804 518 804 c 0,35,36
 462 804 462 804 414 781.5 c 128,-1,37
 366 759 366 759 331 721.5 c 128,-1,38
 296 684 296 684 275.5 635 c 128,-1,39
 255 586 255 586 254 532 c 1,40,-1
 789 532 l 1,30,31
EndSplineSet
Substitution2: "<17,16> Show Invisibles lookup 1 subtable" e
EndChar

StartChar: f
Encoding: 102 102 71
Width: 1045
Flags: W
LayerCount: 2
Fore
SplineSet
180 785 m 260,0,1
 180 847 180 847 202.5 902 c 132,-1,2
 225 957 225 957 264 998 c 132,-1,3
 303 1039 303 1039 356 1062.5 c 132,-1,4
 409 1086 409 1086 471 1086 c 4,5,6
 532 1086 532 1086 585.5 1062.5 c 132,-1,7
 639 1039 639 1039 678.5 998 c 132,-1,8
 718 957 718 957 740.5 902 c 132,-1,9
 763 847 763 847 763 785 c 260,10,11
 763 723 763 723 740.5 668 c 132,-1,12
 718 613 718 613 678.5 572.5 c 132,-1,13
 639 532 639 532 585.5 508.5 c 132,-1,14
 532 485 532 485 471 485 c 4,15,16
 409 485 409 485 356 508.5 c 132,-1,17
 303 532 303 532 264 572.5 c 132,-1,18
 225 613 225 613 202.5 668 c 132,-1,19
 180 723 180 723 180 785 c 260,0,1
291 785 m 4,20,21
 291 746 291 746 305 710.5 c 132,-1,22
 319 675 319 675 343.5 649 c 132,-1,23
 368 623 368 623 400.5 607.5 c 132,-1,24
 433 592 433 592 471 592 c 260,25,26
 509 592 509 592 542 607.5 c 132,-1,27
 575 623 575 623 600 649 c 132,-1,28
 625 675 625 675 639 710.5 c 132,-1,29
 653 746 653 746 653 785 c 4,30,31
 653 825 653 825 639 860 c 132,-1,32
 625 895 625 895 600 921.5 c 132,-1,33
 575 948 575 948 542 963.5 c 132,-1,34
 509 979 509 979 471 979 c 260,35,36
 433 979 433 979 400.5 963.5 c 132,-1,37
 368 948 368 948 343.5 921.5 c 132,-1,38
 319 895 319 895 305 860 c 132,-1,39
 291 825 291 825 291 785 c 4,20,21
EndSplineSet
Substitution2: "<17,16> Show Invisibles lookup 1 subtable" f
EndChar

StartChar: g
Encoding: 103 103 72
Width: 1053
Flags: W
LayerCount: 2
Fore
SplineSet
1073 998 m 1,0,-1
 853 998 l 1,1,-1
 853 0 l 1,2,-1
 733 0 l 1,3,-1
 733 998 l 1,4,-1
 376 998 l 1,5,-1
 376 363 l 2,6,7
 376 342 376 342 373 324 c 128,-1,8
 370 306 370 306 361 292.5 c 128,-1,9
 352 279 352 279 336.5 271.5 c 128,-1,10
 321 264 321 264 296 264 c 0,11,12
 254 264 254 264 212 292 c 128,-1,13
 170 320 170 320 136.5 362 c 128,-1,14
 103 404 103 404 81.5 453.5 c 128,-1,15
 60 503 60 503 60 545 c 0,16,17
 60 570 60 570 68 586 c 128,-1,18
 76 602 76 602 89 611 c 128,-1,19
 102 620 102 620 118.5 623 c 128,-1,20
 135 626 135 626 152 626 c 2,21,-1
 209 626 l 2,22,23
 230 626 230 626 243 638.5 c 128,-1,24
 256 651 256 651 256 678 c 2,25,-1
 256 998 l 1,26,-1
 0 998 l 1,27,-1
 0 1118 l 1,28,-1
 1073 1118 l 1,29,-1
 1073 998 l 1,0,-1
EndSplineSet
Substitution2: "<17,16> Show Invisibles lookup 1 subtable" g
EndChar

StartChar: h
Encoding: 104 104 73
Width: 918
Flags: W
LayerCount: 2
Fore
SplineSet
246 1268 m 1,0,-1
 246 778 l 1,1,2
 274 819 274 819 307.5 846.5 c 128,-1,3
 341 874 341 874 378.5 891 c 128,-1,4
 416 908 416 908 457.5 915 c 128,-1,5
 499 922 499 922 543 922 c 0,6,7
 608 922 608 922 662 901.5 c 128,-1,8
 716 881 716 881 755 844.5 c 128,-1,9
 794 808 794 808 816 758.5 c 128,-1,10
 838 709 838 709 838 651 c 2,11,-1
 838 0 l 1,12,-1
 706 0 l 1,13,-1
 706 627 l 2,14,15
 706 675 706 675 689.5 708.5 c 128,-1,16
 673 742 673 742 646 763.5 c 128,-1,17
 619 785 619 785 584 794.5 c 128,-1,18
 549 804 549 804 512 804 c 0,19,20
 465 804 465 804 417.5 784.5 c 128,-1,21
 370 765 370 765 332 730.5 c 128,-1,22
 294 696 294 696 270 649.5 c 128,-1,23
 246 603 246 603 246 550 c 2,24,-1
 246 0 l 1,25,-1
 111 0 l 1,26,-1
 111 1268 l 1,27,-1
 246 1268 l 1,0,-1
EndSplineSet
Substitution2: "<17,16> Show Invisibles lookup 1 subtable" h
EndChar

StartChar: i
Encoding: 105 105 74
Width: 386
Flags: W
LayerCount: 2
Fore
SplineSet
279 1268 m 1,0,-1
 279 1112 l 1,1,-1
 146 1112 l 1,2,-1
 146 1268 l 1,3,-1
 279 1268 l 1,0,-1
279 906 m 1,4,-1
 279 0 l 1,5,-1
 146 0 l 1,6,-1
 146 906 l 1,7,-1
 279 906 l 1,4,-1
EndSplineSet
Substitution2: "<17,16> Show Invisibles lookup 1 subtable" i
EndChar

StartChar: j
Encoding: 106 106 75
Width: 851
Flags: W
LayerCount: 2
Fore
SplineSet
397 559 m 0,0,1
 495 559 495 559 559.5 532.5 c 128,-1,2
 624 506 624 506 662 468 c 128,-1,3
 700 430 700 430 715.5 388.5 c 128,-1,4
 731 347 731 347 731 317 c 0,5,6
 731 272 731 272 716.5 237 c 128,-1,7
 702 202 702 202 679 175.5 c 128,-1,8
 656 149 656 149 626.5 129 c 128,-1,9
 597 109 597 109 567 94 c 1,10,-1
 502 173 l 1,11,12
 563 202 563 202 587 238 c 128,-1,13
 611 274 611 274 611 316 c 0,14,15
 611 339 611 339 600 364.5 c 128,-1,16
 589 390 589 390 564.5 411 c 128,-1,17
 540 432 540 432 502 445.5 c 128,-1,18
 464 459 464 459 410 459 c 256,19,20
 356 459 356 459 313 443.5 c 128,-1,21
 270 428 270 428 240.5 402 c 128,-1,22
 211 376 211 376 195.5 342 c 128,-1,23
 180 308 180 308 180 270 c 0,24,25
 180 223 180 223 195 177.5 c 128,-1,26
 210 132 210 132 246.5 85.5 c 128,-1,27
 283 39 283 39 346 -10 c 128,-1,28
 409 -59 409 -59 505 -112 c 1,29,-1
 456 -190 l 1,30,31
 376 -156 376 -156 304.5 -106.5 c 128,-1,32
 233 -57 233 -57 178.5 2.5 c 128,-1,33
 124 62 124 62 92 130 c 128,-1,34
 60 198 60 198 60 269 c 0,35,36
 60 333 60 333 84.5 383.5 c 128,-1,37
 109 434 109 434 150 470 c 1,38,39
 110 515 110 515 85 561 c 128,-1,40
 60 607 60 607 60 661 c 0,41,42
 60 697 60 697 74 731 c 128,-1,43
 88 765 88 765 117.5 790.5 c 128,-1,44
 147 816 147 816 192.5 831.5 c 128,-1,45
 238 847 238 847 301 847 c 2,46,-1
 527 847 l 1,47,-1
 527 998 l 1,48,-1
 0 998 l 1,49,-1
 0 1118 l 1,50,-1
 871 1118 l 1,51,-1
 871 998 l 1,52,-1
 647 998 l 1,53,-1
 647 747 l 1,54,-1
 301 747 l 2,55,56
 269 747 269 747 246 739 c 128,-1,57
 223 731 223 731 208.5 718.5 c 128,-1,58
 194 706 194 706 187 689 c 128,-1,59
 180 672 180 672 180 654 c 0,60,61
 180 617 180 617 199.5 586 c 128,-1,62
 219 555 219 555 244 528 c 1,63,64
 281 544 281 544 320 551.5 c 128,-1,65
 359 559 359 559 397 559 c 0,0,1
EndSplineSet
Substitution2: "<17,16> Show Invisibles lookup 1 subtable" j
EndChar

StartChar: k
Encoding: 107 107 76
Width: 1368
Flags: W
LayerCount: 2
Fore
SplineSet
1388 998 m 1,0,-1
 704 998 l 1,1,-1
 704 714 l 1,2,3
 728 742 728 742 756 760.5 c 128,-1,4
 784 779 784 779 812.5 790 c 128,-1,5
 841 801 841 801 869.5 805.5 c 128,-1,6
 898 810 898 810 923 810 c 0,7,8
 996 810 996 810 1046.5 782.5 c 128,-1,9
 1097 755 1097 755 1128.5 714.5 c 128,-1,10
 1160 674 1160 674 1174 627.5 c 128,-1,11
 1188 581 1188 581 1188 542 c 0,12,13
 1188 473 1188 473 1164.5 420 c 128,-1,14
 1141 367 1141 367 1106 328 c 128,-1,15
 1071 289 1071 289 1031.5 263.5 c 128,-1,16
 992 238 992 238 961 224 c 1,17,-1
 900 315 l 1,18,19
 947 340 947 340 979.5 366.5 c 128,-1,20
 1012 393 1012 393 1031.5 421.5 c 128,-1,21
 1051 450 1051 450 1059.5 481.5 c 128,-1,22
 1068 513 1068 513 1068 548 c 0,23,24
 1068 580 1068 580 1057 606.5 c 128,-1,25
 1046 633 1046 633 1026.5 651.5 c 128,-1,26
 1007 670 1007 670 980.5 680 c 128,-1,27
 954 690 954 690 923 690 c 0,28,29
 858 690 858 690 800 648 c 128,-1,30
 742 606 742 606 704 537 c 1,31,-1
 704 0 l 1,32,-1
 584 0 l 1,33,-1
 584 367 l 1,34,35
 565 338 565 338 538 315.5 c 128,-1,36
 511 293 511 293 481.5 277.5 c 128,-1,37
 452 262 452 262 421.5 254 c 128,-1,38
 391 246 391 246 364 246 c 0,39,40
 303 246 303 246 248 266 c 128,-1,41
 193 286 193 286 151 323.5 c 128,-1,42
 109 361 109 361 84.5 415.5 c 128,-1,43
 60 470 60 470 60 538 c 0,44,45
 60 597 60 597 84.5 647 c 128,-1,46
 109 697 109 697 148.5 733 c 128,-1,47
 188 769 188 769 237.5 789.5 c 128,-1,48
 287 810 287 810 337 810 c 0,49,50
 386 810 386 810 427.5 799 c 128,-1,51
 469 788 469 788 501 773 c 128,-1,52
 533 758 533 758 554 743.5 c 128,-1,53
 575 729 575 729 584 723 c 1,54,-1
 584 998 l 1,55,-1
 0 998 l 1,56,-1
 0 1118 l 1,57,-1
 1388 1118 l 1,58,-1
 1388 998 l 1,0,-1
584 608 m 1,59,60
 566 621 566 621 542 635.5 c 128,-1,61
 518 650 518 650 489 662 c 128,-1,62
 460 674 460 674 427 682 c 128,-1,63
 394 690 394 690 358 690 c 0,64,65
 317 690 317 690 284 677 c 128,-1,66
 251 664 251 664 228 642 c 128,-1,67
 205 620 205 620 192.5 590.5 c 128,-1,68
 180 561 180 561 180 528 c 0,69,70
 180 483 180 483 197.5 452.5 c 128,-1,71
 215 422 215 422 240 402.5 c 128,-1,72
 265 383 265 383 293 374.5 c 128,-1,73
 321 366 321 366 342 366 c 0,74,75
 375 366 375 366 405 374.5 c 128,-1,76
 435 383 435 383 464.5 402 c 128,-1,77
 494 421 494 421 523 450.5 c 128,-1,78
 552 480 552 480 584 522 c 1,79,-1
 584 608 l 1,59,60
EndSplineSet
Substitution2: "<17,16> Show Invisibles lookup 1 subtable" k
EndChar

StartChar: l
Encoding: 108 108 77
Width: 1181
Flags: W
LayerCount: 2
Fore
SplineSet
1201 998 m 1,0,-1
 981 998 l 1,1,-1
 981 0 l 1,2,-1
 861 0 l 1,3,-1
 861 576 l 1,4,-1
 506 319 l 1,5,-1
 427 417 l 1,6,7
 444 429 444 429 453 440.5 c 128,-1,8
 462 452 462 452 466.5 463 c 128,-1,9
 471 474 471 474 471.5 484 c 128,-1,10
 472 494 472 494 472 504 c 0,11,12
 472 521 472 521 462 538.5 c 128,-1,13
 452 556 452 556 434 569.5 c 128,-1,14
 416 583 416 583 390.5 591.5 c 128,-1,15
 365 600 365 600 335 600 c 0,16,17
 307 600 307 600 279.5 591.5 c 128,-1,18
 252 583 252 583 230 565.5 c 128,-1,19
 208 548 208 548 194 520.5 c 128,-1,20
 180 493 180 493 180 455 c 0,21,22
 180 398 180 398 198 347.5 c 128,-1,23
 216 297 216 297 251.5 249 c 128,-1,24
 287 201 287 201 340 154.5 c 128,-1,25
 393 108 393 108 462 60 c 1,26,-1
 400 -24 l 1,27,28
 309 32 309 32 244.5 95 c 128,-1,29
 180 158 180 158 139 221.5 c 128,-1,30
 98 285 98 285 79 346.5 c 128,-1,31
 60 408 60 408 60 461 c 0,32,33
 60 526 60 526 85 574.5 c 128,-1,34
 110 623 110 623 149.5 655.5 c 128,-1,35
 189 688 189 688 238.5 704 c 128,-1,36
 288 720 288 720 338 720 c 0,37,38
 387 720 387 720 429 705 c 128,-1,39
 471 690 471 690 501 664.5 c 128,-1,40
 531 639 531 639 548 606.5 c 128,-1,41
 565 574 565 574 565 540 c 0,42,43
 565 519 565 519 557 495 c 1,44,-1
 861 707 l 1,45,-1
 861 998 l 1,46,-1
 0 998 l 1,47,-1
 0 1118 l 1,48,-1
 1201 1118 l 1,49,-1
 1201 998 l 1,0,-1
EndSplineSet
Substitution2: "<17,16> Show Invisibles lookup 1 subtable" l
EndChar

StartChar: m
Encoding: 109 109 78
Width: 1045
Flags: W
LayerCount: 2
Fore
SplineSet
1065 998 m 1,0,-1
 845 998 l 1,1,-1
 845 0 l 1,2,-1
 725 0 l 1,3,-1
 725 473 l 1,4,-1
 403 473 l 2,5,6
 384 473 384 473 377.5 459.5 c 128,-1,7
 371 446 371 446 371 422 c 2,8,-1
 371 352 l 2,9,10
 371 348 371 348 369 338.5 c 128,-1,11
 367 329 367 329 361 319.5 c 128,-1,12
 355 310 355 310 343.5 302.5 c 128,-1,13
 332 295 332 295 313 295 c 0,14,15
 288 295 288 295 260 306 c 128,-1,16
 232 317 232 317 204 335.5 c 128,-1,17
 176 354 176 354 150 378 c 128,-1,18
 124 402 124 402 104 428.5 c 128,-1,19
 84 455 84 455 72 482.5 c 128,-1,20
 60 510 60 510 60 534 c 0,21,22
 60 560 60 560 76.5 576.5 c 128,-1,23
 93 593 93 593 125 593 c 2,24,-1
 251 593 l 1,25,-1
 251 998 l 1,26,-1
 0 998 l 1,27,-1
 0 1118 l 1,28,-1
 1065 1118 l 1,29,-1
 1065 998 l 1,0,-1
725 593 m 1,30,-1
 725 998 l 1,31,-1
 371 998 l 1,32,-1
 371 593 l 1,33,-1
 725 593 l 1,30,-1
EndSplineSet
Substitution2: "<17,16> Show Invisibles lookup 1 subtable" m
EndChar

StartChar: n
Encoding: 110 110 79
Width: 1045
Flags: W
LayerCount: 2
Fore
SplineSet
1065 998 m 1,0,-1
 845 998 l 1,1,-1
 845 0 l 1,2,-1
 725 0 l 1,3,-1
 725 593 l 1,4,-1
 403 593 l 2,5,6
 384 593 384 593 377.5 579.5 c 128,-1,7
 371 566 371 566 371 542 c 2,8,-1
 371 472 l 2,9,10
 371 468 371 468 369 458.5 c 128,-1,11
 367 449 367 449 361 439.5 c 128,-1,12
 355 430 355 430 343.5 422.5 c 128,-1,13
 332 415 332 415 313 415 c 0,14,15
 288 415 288 415 260 426 c 128,-1,16
 232 437 232 437 204 455.5 c 128,-1,17
 176 474 176 474 150 498 c 128,-1,18
 124 522 124 522 104 548.5 c 128,-1,19
 84 575 84 575 72 602.5 c 128,-1,20
 60 630 60 630 60 654 c 0,21,22
 60 680 60 680 76.5 696.5 c 128,-1,23
 93 713 93 713 125 713 c 2,24,-1
 725 713 l 1,25,-1
 725 998 l 1,26,-1
 0 998 l 1,27,-1
 0 1118 l 1,28,-1
 1065 1118 l 1,29,-1
 1065 998 l 1,0,-1
EndSplineSet
Substitution2: "<17,16> Show Invisibles lookup 1 subtable" n
EndChar

StartChar: o
Encoding: 111 111 80
Width: 1017
Flags: W
LayerCount: 2
Fore
SplineSet
113 452 m 256,0,1
 113 549 113 549 140 634.5 c 128,-1,2
 167 720 167 720 219 784 c 128,-1,3
 271 848 271 848 347.5 885 c 128,-1,4
 424 922 424 922 523 922 c 256,5,6
 622 922 622 922 699.5 885 c 128,-1,7
 777 848 777 848 829.5 784 c 128,-1,8
 882 720 882 720 909.5 634.5 c 128,-1,9
 937 549 937 549 937 452 c 256,10,11
 937 355 937 355 909.5 269.5 c 128,-1,12
 882 184 882 184 829.5 120.5 c 128,-1,13
 777 57 777 57 699.5 20.5 c 128,-1,14
 622 -16 622 -16 523 -16 c 256,15,16
 424 -16 424 -16 347.5 20.5 c 128,-1,17
 271 57 271 57 219 120.5 c 128,-1,18
 167 184 167 184 140 269.5 c 128,-1,19
 113 355 113 355 113 452 c 256,0,1
246 452 m 256,20,21
 246 380 246 380 265 316 c 128,-1,22
 284 252 284 252 320 204.5 c 128,-1,23
 356 157 356 157 407.5 129.5 c 128,-1,24
 459 102 459 102 523 102 c 256,25,26
 587 102 587 102 638.5 129.5 c 128,-1,27
 690 157 690 157 726.5 204.5 c 128,-1,28
 763 252 763 252 782.5 316 c 128,-1,29
 802 380 802 380 802 452 c 256,30,31
 802 524 802 524 782.5 588 c 128,-1,32
 763 652 763 652 726.5 700 c 128,-1,33
 690 748 690 748 638.5 776 c 128,-1,34
 587 804 587 804 523 804 c 256,35,36
 459 804 459 804 407.5 776 c 128,-1,37
 356 748 356 748 320 700 c 128,-1,38
 284 652 284 652 265 588 c 128,-1,39
 246 524 246 524 246 452 c 256,20,21
EndSplineSet
Substitution2: "<17,16> Show Invisibles lookup 1 subtable" o
EndChar

StartChar: p
Encoding: 112 112 81
Width: 900
Flags: W
LayerCount: 2
Fore
SplineSet
920 998 m 1,0,-1
 700 998 l 1,1,-1
 700 0 l 1,2,-1
 580 0 l 1,3,-1
 580 386 l 1,4,5
 566 365 566 365 545 349 c 128,-1,6
 524 333 524 333 498.5 322 c 128,-1,7
 473 311 473 311 446 305.5 c 128,-1,8
 419 300 419 300 393 300 c 0,9,10
 320 300 320 300 262 327.5 c 128,-1,11
 204 355 204 355 163.5 399.5 c 128,-1,12
 123 444 123 444 101.5 501 c 128,-1,13
 80 558 80 558 80 618 c 2,14,-1
 80 998 l 1,15,-1
 0 998 l 1,16,-1
 0 1118 l 1,17,-1
 920 1118 l 1,18,-1
 920 998 l 1,0,-1
580 998 m 1,19,-1
 200 998 l 1,20,-1
 200 616 l 2,21,22
 200 566 200 566 216.5 529 c 128,-1,23
 233 492 233 492 260.5 467.5 c 128,-1,24
 288 443 288 443 324 430.5 c 128,-1,25
 360 418 360 418 398 418 c 0,26,27
 429 418 429 418 461.5 428.5 c 128,-1,28
 494 439 494 439 520 461 c 128,-1,29
 546 483 546 483 563 518 c 128,-1,30
 580 553 580 553 580 601 c 2,31,-1
 580 998 l 1,19,-1
EndSplineSet
Substitution2: "<17,16> Show Invisibles lookup 1 subtable" p
EndChar

StartChar: q
Encoding: 113 113 82
Width: 1358
Flags: W
LayerCount: 2
Fore
SplineSet
690 686 m 1,0,1
 730 665 730 665 769.5 652 c 128,-1,2
 809 639 809 639 859 639 c 0,3,4
 922 639 922 639 965.5 660 c 128,-1,5
 1009 681 1009 681 1038 710 c 1,6,-1
 1038 998 l 1,7,-1
 810 998 l 1,8,-1
 810 1118 l 1,9,-1
 1378 1118 l 1,10,-1
 1378 998 l 1,11,-1
 1158 998 l 1,12,-1
 1158 0 l 1,13,-1
 1038 0 l 1,14,-1
 1038 589 l 1,15,16
 1000 560 1000 560 955 546.5 c 128,-1,17
 910 533 910 533 871 533 c 0,18,19
 850 533 850 533 831 536 c 128,-1,20
 812 539 812 539 793 544 c 1,21,22
 810 490 810 490 810 420 c 0,23,24
 810 365 810 365 790.5 311.5 c 128,-1,25
 771 258 771 258 732.5 215.5 c 128,-1,26
 694 173 694 173 636 146.5 c 128,-1,27
 578 120 578 120 500 120 c 0,28,29
 431 120 431 120 371 141.5 c 128,-1,30
 311 163 311 163 260.5 199.5 c 128,-1,31
 210 236 210 236 169 283.5 c 128,-1,32
 128 331 128 331 96 382 c 128,-1,33
 64 433 64 433 42 484 c 128,-1,34
 20 535 20 535 7 580 c 1,35,-1
 104 639 l 1,36,37
 137 551 137 551 178 478 c 128,-1,38
 219 405 219 405 268 352 c 128,-1,39
 317 299 317 299 375 269.5 c 128,-1,40
 433 240 433 240 501 240 c 0,41,42
 549 240 549 240 584.5 257 c 128,-1,43
 620 274 620 274 643.5 302 c 128,-1,44
 667 330 667 330 678.5 365 c 128,-1,45
 690 400 690 400 690 435 c 0,46,47
 690 495 690 495 667.5 535 c 128,-1,48
 645 575 645 575 609 599.5 c 128,-1,49
 573 624 573 624 527 634.5 c 128,-1,50
 481 645 481 645 435 645 c 0,51,52
 398 645 398 645 362 639 c 1,53,-1
 336 739 l 1,54,55
 371 742 371 742 412 753 c 128,-1,56
 453 764 453 764 488 783.5 c 128,-1,57
 523 803 523 803 546.5 832 c 128,-1,58
 570 861 570 861 570 900 c 0,59,60
 570 933 570 933 557 955.5 c 128,-1,61
 544 978 544 978 525 992 c 128,-1,62
 506 1006 506 1006 485.5 1012 c 128,-1,63
 465 1018 465 1018 450 1018 c 0,64,65
 430 1018 430 1018 407 1014.5 c 128,-1,66
 384 1011 384 1011 360 997.5 c 128,-1,67
 336 984 336 984 311.5 958.5 c 128,-1,68
 287 933 287 933 264 890 c 1,69,-1
 158 939 l 1,70,71
 172 969 172 969 196 1003.5 c 128,-1,72
 220 1038 220 1038 255.5 1068 c 128,-1,73
 291 1098 291 1098 338 1118 c 128,-1,74
 385 1138 385 1138 445 1138 c 0,75,76
 492 1138 492 1138 536.5 1123 c 128,-1,77
 581 1108 581 1108 615 1078 c 128,-1,78
 649 1048 649 1048 669.5 1003.5 c 128,-1,79
 690 959 690 959 690 901 c 0,80,81
 690 841 690 841 666 797.5 c 128,-1,82
 642 754 642 754 598 722 c 1,83,84
 622 716 622 716 645 706.5 c 128,-1,85
 668 697 668 697 689 683 c 1,86,-1
 690 686 l 1,0,1
EndSplineSet
Substitution2: "<17,16> Show Invisibles lookup 1 subtable" q
EndChar

StartChar: r
Encoding: 114 114 83
Width: 806
Flags: W
LayerCount: 2
Fore
SplineSet
606 -48 m 1,0,1
 430 79 430 79 290.5 232 c 128,-1,2
 151 385 151 385 60 576 c 1,3,-1
 149 644 l 1,4,5
 155 630 155 630 161.5 617.5 c 128,-1,6
 168 605 168 605 175 592 c 0,7,8
 189 572 189 572 208 561 c 128,-1,9
 227 550 227 550 258 550 c 0,10,11
 278 550 278 550 294.5 560 c 128,-1,12
 311 570 311 570 322.5 583.5 c 128,-1,13
 334 597 334 597 340.5 612 c 128,-1,14
 347 627 347 627 347 638 c 2,15,-1
 347 998 l 1,16,-1
 0 998 l 1,17,-1
 0 1118 l 1,18,-1
 826 1118 l 1,19,-1
 826 998 l 1,20,-1
 467 998 l 1,21,-1
 467 611 l 2,22,23
 467 588 467 588 457.5 557 c 128,-1,24
 448 526 448 526 428.5 497.5 c 128,-1,25
 409 469 409 469 379 449.5 c 128,-1,26
 349 430 349 430 308 430 c 0,27,28
 292 430 292 430 272 435 c 1,29,30
 355 320 355 320 458 223 c 128,-1,31
 561 126 561 126 686 35 c 1,32,-1
 606 -48 l 1,0,1
EndSplineSet
Substitution2: "<17,16> Show Invisibles lookup 1 subtable" r
EndChar

StartChar: s
Encoding: 115 115 84
Width: 1165
Flags: W
LayerCount: 2
Fore
SplineSet
606 -48 m 1,0,1
 430 79 430 79 290.5 232 c 128,-1,2
 151 385 151 385 60 576 c 1,3,-1
 149 644 l 1,4,5
 155 630 155 630 161.5 617.5 c 128,-1,6
 168 605 168 605 175 592 c 0,7,8
 189 572 189 572 208 561 c 128,-1,9
 227 550 227 550 258 550 c 0,10,11
 278 550 278 550 294.5 560 c 128,-1,12
 311 570 311 570 322.5 583.5 c 128,-1,13
 334 597 334 597 340.5 612 c 128,-1,14
 347 627 347 627 347 638 c 2,15,-1
 347 998 l 1,16,-1
 0 998 l 1,17,-1
 0 1118 l 1,18,-1
 1185 1118 l 1,19,-1
 1185 998 l 1,20,-1
 965 998 l 1,21,-1
 965 0 l 1,22,-1
 845 0 l 1,23,-1
 845 493 l 1,24,-1
 425 493 l 1,25,26
 405 466 405 466 376 448 c 128,-1,27
 347 430 347 430 308 430 c 0,28,29
 292 430 292 430 272 435 c 1,30,31
 355 320 355 320 458 223 c 128,-1,32
 561 126 561 126 686 35 c 1,33,-1
 606 -48 l 1,0,1
467 613 m 1,34,-1
 845 613 l 1,35,-1
 845 998 l 1,36,-1
 467 998 l 1,37,-1
 467 613 l 1,34,-1
EndSplineSet
Substitution2: "<17,16> Show Invisibles lookup 1 subtable" s
EndChar

StartChar: t
Encoding: 116 116 85
Width: 1124
Flags: W
LayerCount: 2
Fore
SplineSet
963 359 m 1,0,1
 927 284 927 284 880.5 224 c 128,-1,2
 834 164 834 164 778.5 123 c 128,-1,3
 723 82 723 82 658.5 60 c 128,-1,4
 594 38 594 38 521 38 c 0,5,6
 441 38 441 38 359 65 c 128,-1,7
 277 92 277 92 210.5 144 c 128,-1,8
 144 196 144 196 102 272 c 128,-1,9
 60 348 60 348 60 447 c 0,10,11
 60 521 60 521 92 591.5 c 128,-1,12
 124 662 124 662 187.5 717 c 128,-1,13
 251 772 251 772 345.5 805.5 c 128,-1,14
 440 839 440 839 565 839 c 1,15,-1
 565 998 l 1,16,-1
 0 998 l 1,17,-1
 0 1118 l 1,18,-1
 1144 1118 l 1,19,-1
 1144 998 l 1,20,-1
 685 998 l 1,21,-1
 685 719 l 1,22,-1
 565 719 l 2,23,24
 477 719 477 719 406 699.5 c 128,-1,25
 335 680 335 680 284.5 644.5 c 128,-1,26
 234 609 234 609 207 558.5 c 128,-1,27
 180 508 180 508 180 447 c 0,28,29
 180 379 180 379 211 325 c 128,-1,30
 242 271 242 271 290.5 234 c 128,-1,31
 339 197 339 197 398.5 177.5 c 128,-1,32
 458 158 458 158 514 158 c 0,33,34
 582 158 582 158 636.5 181 c 128,-1,35
 691 204 691 204 734.5 240.5 c 128,-1,36
 778 277 778 277 811.5 323 c 128,-1,37
 845 369 845 369 869 416 c 1,38,-1
 963 359 l 1,0,1
EndSplineSet
Substitution2: "<17,16> Show Invisibles lookup 1 subtable" t
EndChar

StartChar: u
Encoding: 117 117 86
Width: 917
Flags: W
LayerCount: 2
Fore
SplineSet
837 16 m 1,0,-1
 704 16 l 1,1,-1
 704 153 l 1,2,3
 634 72 634 72 552 36 c 128,-1,4
 470 0 470 0 383 0 c 0,5,6
 320 0 320 0 269.5 19 c 128,-1,7
 219 38 219 38 183.5 73 c 128,-1,8
 148 108 148 108 129.5 158 c 128,-1,9
 111 208 111 208 111 271 c 2,10,-1
 111 922 l 1,11,-1
 246 922 l 1,12,-1
 246 288 l 2,13,14
 246 195 246 195 289.5 156.5 c 128,-1,15
 333 118 333 118 410 118 c 0,16,17
 471 118 471 118 524.5 140 c 128,-1,18
 578 162 578 162 618 198 c 128,-1,19
 658 234 658 234 681 280.5 c 128,-1,20
 704 327 704 327 704 377 c 2,21,-1
 704 922 l 1,22,-1
 837 922 l 1,23,-1
 837 16 l 1,0,-1
EndSplineSet
Substitution2: "<17,16> Show Invisibles lookup 1 subtable" u
EndChar

StartChar: v
Encoding: 118 118 87
Width: 1000
Flags: W
LayerCount: 2
Fore
SplineSet
680 998 m 1,0,-1
 0 998 l 1,1,-1
 0 1118 l 1,2,-1
 1020 1118 l 1,3,-1
 1020 998 l 1,4,-1
 800 998 l 1,5,-1
 800 0 l 1,6,-1
 680 0 l 1,7,-1
 680 357 l 1,8,9
 631 318 631 318 567 298.5 c 128,-1,10
 503 279 503 279 437 279 c 0,11,12
 360 279 360 279 291.5 304 c 128,-1,13
 223 329 223 329 171.5 373 c 128,-1,14
 120 417 120 417 90 475.5 c 128,-1,15
 60 534 60 534 60 602 c 0,16,17
 60 658 60 658 88.5 706.5 c 128,-1,18
 117 755 117 755 164.5 790.5 c 128,-1,19
 212 826 212 826 273.5 846.5 c 128,-1,20
 335 867 335 867 401 867 c 0,21,22
 442 867 442 867 481 858.5 c 128,-1,23
 520 850 520 850 556 836 c 128,-1,24
 592 822 592 822 623.5 803 c 128,-1,25
 655 784 655 784 680 762 c 1,26,-1
 680 998 l 1,0,-1
680 560 m 2,27,-1
 680 565 l 2,28,29
 678 593 678 593 659.5 626.5 c 128,-1,30
 641 660 641 660 606 688.5 c 128,-1,31
 571 717 571 717 520 736.5 c 128,-1,32
 469 756 469 756 403 756 c 0,33,34
 362 756 362 756 322 745 c 128,-1,35
 282 734 282 734 250.5 713.5 c 128,-1,36
 219 693 219 693 199.5 663 c 128,-1,37
 180 633 180 633 180 595 c 0,38,39
 180 560 180 560 199.5 524 c 128,-1,40
 219 488 219 488 253.5 459 c 128,-1,41
 288 430 288 430 335 411.5 c 128,-1,42
 382 393 382 393 438 393 c 0,43,44
 487 393 487 393 531 407.5 c 128,-1,45
 575 422 575 422 608 445.5 c 128,-1,46
 641 469 641 469 660.5 499 c 128,-1,47
 680 529 680 529 680 560 c 2,27,-1
EndSplineSet
Substitution2: "<17,16> Show Invisibles lookup 1 subtable" v
EndChar

StartChar: w
Encoding: 119 119 88
Width: 933
Flags: W
LayerCount: 2
Fore
SplineSet
705 -23 m 1,0,1
 628 36 628 36 563 98 c 128,-1,2
 498 160 498 160 453 223 c 1,3,4
 445 222 445 222 438.5 222 c 128,-1,5
 432 222 432 222 425 222 c 0,6,7
 354 222 354 222 288 246 c 128,-1,8
 222 270 222 270 171.5 314 c 128,-1,9
 121 358 121 358 90.5 421.5 c 128,-1,10
 60 485 60 485 60 563 c 0,11,12
 60 632 60 632 90.5 685 c 128,-1,13
 121 738 121 738 171.5 774 c 128,-1,14
 222 810 222 810 287 828.5 c 128,-1,15
 352 847 352 847 420 847 c 2,16,-1
 555 847 l 1,17,-1
 555 998 l 1,18,-1
 0 998 l 1,19,-1
 0 1118 l 1,20,-1
 953 1118 l 1,21,-1
 953 998 l 1,22,-1
 675 998 l 1,23,-1
 675 727 l 1,24,-1
 466 727 l 2,25,26
 442 727 442 727 412 725.5 c 128,-1,27
 382 724 382 724 350 717.5 c 128,-1,28
 318 711 318 711 287.5 699 c 128,-1,29
 257 687 257 687 233 666.5 c 128,-1,30
 209 646 209 646 194.5 615.5 c 128,-1,31
 180 585 180 585 180 542 c 0,32,33
 180 495 180 495 199.5 460 c 128,-1,34
 219 425 219 425 249.5 400.5 c 128,-1,35
 280 376 280 376 317 362 c 128,-1,36
 354 348 354 348 389 344 c 1,37,38
 375 386 375 386 375 425 c 0,39,40
 375 462 375 462 388.5 493.5 c 128,-1,41
 402 525 402 525 426 548 c 128,-1,42
 450 571 450 571 483 584 c 128,-1,43
 516 597 516 597 555 597 c 0,44,45
 588 597 588 597 620 586.5 c 128,-1,46
 652 576 652 576 677 555 c 128,-1,47
 702 534 702 534 717.5 503 c 128,-1,48
 733 472 733 472 733 432 c 256,49,50
 733 392 733 392 718 360.5 c 128,-1,51
 703 329 703 329 678.5 306 c 128,-1,52
 654 283 654 283 621.5 266.5 c 128,-1,53
 589 250 589 250 555 240 c 1,54,55
 630 147 630 147 764 48 c 1,56,-1
 705 -23 l 1,0,1
613 455 m 0,57,58
 613 483 613 483 598 500 c 128,-1,59
 583 517 583 517 555 517 c 0,60,61
 524 517 524 517 499.5 492.5 c 128,-1,62
 475 468 475 468 475 424 c 0,63,64
 475 387 475 387 490 348 c 1,65,66
 515 352 515 352 537 360.5 c 128,-1,67
 559 369 559 369 576 382 c 128,-1,68
 593 395 593 395 603 413 c 128,-1,69
 613 431 613 431 613 455 c 0,57,58
EndSplineSet
Substitution2: "<17,16> Show Invisibles lookup 1 subtable" w
EndChar

StartChar: x
Encoding: 120 120 89
Width: 975
Flags: W
LayerCount: 2
Fore
SplineSet
995 998 m 1,0,-1
 775 998 l 1,1,-1
 775 0 l 1,2,-1
 655 0 l 1,3,-1
 655 656 l 1,4,-1
 335 656 l 2,5,6
 248 656 248 656 214 634 c 128,-1,7
 180 612 180 612 180 564 c 0,8,9
 180 514 180 514 192 455 c 128,-1,10
 204 396 204 396 235.5 330.5 c 128,-1,11
 267 265 267 265 321.5 195 c 128,-1,12
 376 125 376 125 460 54 c 1,13,-1
 387 -18 l 1,14,15
 305 46 305 46 243.5 121.5 c 128,-1,16
 182 197 182 197 141.5 276.5 c 128,-1,17
 101 356 101 356 80.5 434.5 c 128,-1,18
 60 513 60 513 60 583 c 0,19,20
 60 776 60 776 316 776 c 2,21,-1
 655 776 l 1,22,-1
 655 998 l 1,23,-1
 0 998 l 1,24,-1
 0 1118 l 1,25,-1
 995 1118 l 1,26,-1
 995 998 l 1,0,-1
EndSplineSet
Substitution2: "<17,16> Show Invisibles lookup 1 subtable" x
EndChar

StartChar: y
Encoding: 121 121 90
Width: 1137
Flags: W
LayerCount: 2
Fore
SplineSet
817 998 m 1,0,-1
 365 998 l 1,1,2
 382 979 382 979 400 954.5 c 128,-1,3
 418 930 418 930 433 899.5 c 128,-1,4
 448 869 448 869 458 833 c 128,-1,5
 468 797 468 797 468 755 c 0,6,7
 468 717 468 717 453 680 c 128,-1,8
 438 643 438 643 410 614 c 128,-1,9
 382 585 382 585 341.5 567 c 128,-1,10
 301 549 301 549 250 549 c 0,11,12
 244 549 244 549 237.5 549 c 128,-1,13
 231 549 231 549 224 550 c 1,14,15
 243 513 243 513 272.5 484.5 c 128,-1,16
 302 456 302 456 338.5 437 c 128,-1,17
 375 418 375 418 416 408 c 128,-1,18
 457 398 457 398 499 398 c 0,19,20
 562 398 562 398 613.5 421 c 128,-1,21
 665 444 665 444 705 480 c 128,-1,22
 745 516 745 516 773 559 c 128,-1,23
 801 602 801 602 817 642 c 1,24,-1
 817 998 l 1,0,-1
60 681 m 1,25,26
 86 669 86 669 120.5 660.5 c 128,-1,27
 155 652 155 652 197 652 c 0,28,29
 267 652 267 652 307.5 687.5 c 128,-1,30
 348 723 348 723 348 779 c 0,31,32
 348 833 348 833 316.5 891.5 c 128,-1,33
 285 950 285 950 228 998 c 1,34,-1
 0 998 l 1,35,-1
 0 1118 l 1,36,-1
 1157 1118 l 1,37,-1
 1157 998 l 1,38,-1
 937 998 l 1,39,-1
 937 0 l 1,40,-1
 817 0 l 1,41,-1
 817 442 l 1,42,43
 785 397 785 397 747.5 365.5 c 128,-1,44
 710 334 710 334 669 314.5 c 128,-1,45
 628 295 628 295 584.5 286.5 c 128,-1,46
 541 278 541 278 498 278 c 0,47,48
 418 278 418 278 346 304 c 128,-1,49
 274 330 274 330 216 381 c 128,-1,50
 158 432 158 432 117 507.5 c 128,-1,51
 76 583 76 583 60 681 c 1,25,26
EndSplineSet
Substitution2: "<17,16> Show Invisibles lookup 1 subtable" y
EndChar

StartChar: z
Encoding: 122 122 91
Width: 1233
Flags: W
LayerCount: 2
Fore
SplineSet
1253 998 m 1,0,-1
 1033 998 l 1,1,-1
 1033 0 l 1,2,-1
 913 0 l 1,3,-1
 913 616 l 1,4,-1
 637 616 l 1,5,6
 664 587 664 587 690 555.5 c 128,-1,7
 716 524 716 524 736 487.5 c 128,-1,8
 756 451 756 451 768 409.5 c 128,-1,9
 780 368 780 368 780 320 c 256,10,11
 780 272 780 272 763.5 231 c 128,-1,12
 747 190 747 190 717.5 160 c 128,-1,13
 688 130 688 130 647 112.5 c 128,-1,14
 606 95 606 95 557 95 c 0,15,16
 493 95 493 95 436 121 c 128,-1,17
 379 147 379 147 329 189.5 c 128,-1,18
 279 232 279 232 236.5 285.5 c 128,-1,19
 194 339 194 339 160 394.5 c 128,-1,20
 126 450 126 450 100.5 502 c 128,-1,21
 75 554 75 554 60 593 c 1,22,23
 83 606 83 606 101 616 c 0,24,25
 117 624 117 624 130 631 c 128,-1,26
 143 638 143 638 143 639 c 1,27,28
 190 528 190 528 241.5 448 c 128,-1,29
 293 368 293 368 344.5 316 c 128,-1,30
 396 264 396 264 445.5 239.5 c 128,-1,31
 495 215 495 215 537 215 c 0,32,33
 561 215 561 215 583 221.5 c 128,-1,34
 605 228 605 228 622.5 243 c 128,-1,35
 640 258 640 258 650 282 c 128,-1,36
 660 306 660 306 660 340 c 0,37,38
 660 414 660 414 588 515 c 128,-1,39
 516 616 516 616 369 736 c 1,40,-1
 913 736 l 1,41,-1
 913 998 l 1,42,-1
 0 998 l 1,43,-1
 0 1118 l 1,44,-1
 1253 1118 l 1,45,-1
 1253 998 l 1,0,-1
EndSplineSet
Substitution2: "<17,16> Show Invisibles lookup 1 subtable" z
EndChar

StartChar: braceleft
Encoding: 123 123 92
Width: 553
Flags: W
LayerCount: 2
Fore
SplineSet
407 751 m 1,0,1
 407 721 407 721 395.5 690 c 128,-1,2
 384 659 384 659 363.5 633 c 128,-1,3
 343 607 343 607 314.5 588 c 128,-1,4
 286 569 286 569 252 563 c 1,5,6
 285 555 285 555 313 536.5 c 128,-1,7
 341 518 341 518 362 492.5 c 128,-1,8
 383 467 383 467 395 437.5 c 128,-1,9
 407 408 407 408 407 379 c 2,10,-1
 407 -69 l 2,11,12
 407 -113 407 -113 435 -132 c 128,-1,13
 463 -151 463 -151 508 -151 c 0,14,15
 519 -151 519 -151 537 -146.5 c 128,-1,16
 555 -142 555 -142 578 -134 c 1,17,-1
 578 -237 l 1,18,19
 550 -254 550 -254 518.5 -262.5 c 128,-1,20
 487 -271 487 -271 465 -271 c 0,21,22
 420 -271 420 -271 384 -258 c 128,-1,23
 348 -245 348 -245 323 -221.5 c 128,-1,24
 298 -198 298 -198 284.5 -165.5 c 128,-1,25
 271 -133 271 -133 271 -94 c 2,26,-1
 271 328 l 2,27,28
 271 354 271 354 267 385 c 128,-1,29
 263 416 263 416 250 442.5 c 128,-1,30
 237 469 237 469 213.5 487 c 128,-1,31
 190 505 190 505 151 505 c 2,32,-1
 111 505 l 1,33,-1
 111 623 l 1,34,-1
 151 623 l 2,35,36
 190 623 190 623 213.5 641 c 128,-1,37
 237 659 237 659 250 686 c 128,-1,38
 263 713 263 713 267 743.5 c 128,-1,39
 271 774 271 774 271 800 c 2,40,-1
 271 1225 l 2,41,42
 271 1262 271 1262 284.5 1294.5 c 128,-1,43
 298 1327 298 1327 323 1351 c 128,-1,44
 348 1375 348 1375 384 1388.5 c 128,-1,45
 420 1402 420 1402 465 1402 c 0,46,47
 487 1402 487 1402 518.5 1393 c 128,-1,48
 550 1384 550 1384 578 1367 c 1,49,-1
 578 1261 l 1,50,51
 555 1271 555 1271 537 1276.5 c 128,-1,52
 519 1282 519 1282 508 1282 c 0,53,54
 463 1282 463 1282 435 1262 c 128,-1,55
 407 1242 407 1242 407 1200 c 2,56,-1
 407 751 l 1,57,-1
 407 751 l 1,0,1
EndSplineSet
Substitution2: "<17,16> Show Invisibles lookup 1 subtable" braceleft
EndChar

StartChar: bar
Encoding: 124 124 93
Width: 330
Flags: W
LayerCount: 2
Fore
SplineSet
222 1445 m 1,0,-1
 222 -250 l 1,1,-1
 115 -250 l 1,2,-1
 115 1445 l 1,3,-1
 222 1445 l 1,0,-1
EndSplineSet
Substitution2: "<17,16> Show Invisibles lookup 1 subtable" bar
EndChar

StartChar: braceright
Encoding: 125 125 94
Width: 520
Flags: W
LayerCount: 2
Fore
SplineSet
150 379 m 1,0,1
 150 408 150 408 161.5 437.5 c 128,-1,2
 173 467 173 467 193.5 492.5 c 128,-1,3
 214 518 214 518 242 536.5 c 128,-1,4
 270 555 270 555 303 563 c 1,5,6
 270 569 270 569 241.5 588 c 128,-1,7
 213 607 213 607 193 633 c 128,-1,8
 173 659 173 659 161.5 690 c 128,-1,9
 150 721 150 721 150 751 c 2,10,-1
 150 1200 l 2,11,12
 150 1242 150 1242 121.5 1262 c 128,-1,13
 93 1282 93 1282 47 1282 c 0,14,15
 38 1282 38 1282 19 1276.5 c 128,-1,16
 0 1271 0 1271 -22 1261 c 1,17,-1
 -22 1367 l 1,18,19
 5 1384 5 1384 36.5 1393 c 128,-1,20
 68 1402 68 1402 91 1402 c 0,21,22
 136 1402 136 1402 172 1388.5 c 128,-1,23
 208 1375 208 1375 233 1351 c 128,-1,24
 258 1327 258 1327 271 1294.5 c 128,-1,25
 284 1262 284 1262 284 1225 c 2,26,-1
 284 800 l 2,27,28
 284 774 284 774 288.5 743.5 c 128,-1,29
 293 713 293 713 305.5 686 c 128,-1,30
 318 659 318 659 342 641 c 128,-1,31
 366 623 366 623 405 623 c 2,32,-1
 445 623 l 1,33,-1
 445 505 l 1,34,-1
 405 505 l 2,35,36
 366 505 366 505 342 487 c 128,-1,37
 318 469 318 469 305.5 442.5 c 128,-1,38
 293 416 293 416 288.5 385 c 128,-1,39
 284 354 284 354 284 328 c 2,40,-1
 284 -94 l 2,41,42
 284 -133 284 -133 271 -165.5 c 128,-1,43
 258 -198 258 -198 233 -221.5 c 128,-1,44
 208 -245 208 -245 172 -258 c 128,-1,45
 136 -271 136 -271 91 -271 c 0,46,47
 68 -271 68 -271 36.5 -262.5 c 128,-1,48
 5 -254 5 -254 -22 -237 c 1,49,-1
 -22 -134 l 1,50,51
 0 -142 0 -142 19 -146.5 c 128,-1,52
 38 -151 38 -151 47 -151 c 0,53,54
 93 -151 93 -151 121.5 -132 c 128,-1,55
 150 -113 150 -113 150 -69 c 2,56,-1
 150 379 l 1,57,-1
 150 379 l 1,0,1
EndSplineSet
Substitution2: "<17,16> Show Invisibles lookup 1 subtable" braceright
EndChar

StartChar: asciitilde
Encoding: 126 126 95
Width: 1127
Flags: W
LayerCount: 2
Fore
SplineSet
1066 740 m 1,0,1
 1063 650 1063 650 1041 579.5 c 128,-1,2
 1019 509 1019 509 981 460.5 c 128,-1,3
 943 412 943 412 891 386.5 c 128,-1,4
 839 361 839 361 776 361 c 0,5,6
 729 361 729 361 694.5 374.5 c 128,-1,7
 660 388 660 388 633 409.5 c 128,-1,8
 606 431 606 431 585 458 c 128,-1,9
 564 485 564 485 545 512 c 0,10,11
 526 541 526 541 506.5 567.5 c 128,-1,12
 487 594 487 594 464.5 614.5 c 128,-1,13
 442 635 442 635 414.5 647 c 128,-1,14
 387 659 387 659 352 659 c 0,15,16
 301 659 301 659 265 633 c 128,-1,17
 229 607 229 607 205 567 c 128,-1,18
 181 527 181 527 169.5 479.5 c 128,-1,19
 158 432 158 432 157 390 c 1,20,-1
 54 390 l 1,21,22
 56 465 56 465 75.5 535 c 128,-1,23
 95 605 95 605 132 658.5 c 128,-1,24
 169 712 169 712 224 744 c 128,-1,25
 279 776 279 776 352 776 c 0,26,27
 412 776 412 776 455.5 760 c 128,-1,28
 499 744 499 744 531.5 718.5 c 128,-1,29
 564 693 564 693 588.5 661 c 128,-1,30
 613 629 613 629 635 598 c 0,31,32
 654 571 654 571 670.5 549.5 c 128,-1,33
 687 528 687 528 705 512.5 c 128,-1,34
 723 497 723 497 743 488.5 c 128,-1,35
 763 480 763 480 789 480 c 0,36,37
 822 480 822 480 852.5 499.5 c 128,-1,38
 883 519 883 519 906.5 554 c 128,-1,39
 930 589 930 589 944.5 636.5 c 128,-1,40
 959 684 959 684 962 740 c 1,41,-1
 1066 740 l 1,0,1
EndSplineSet
Substitution2: "<17,16> Show Invisibles lookup 1 subtable" asciitilde
EndChar

StartChar: copyright
Encoding: 169 169 96
Width: 974
Flags: W
LayerCount: 2
Fore
SplineSet
654 443 m 0,0,1
 654 519 654 519 590 519 c 0,2,3
 556 519 556 519 521.5 513.5 c 128,-1,4
 487 508 487 508 452 502 c 128,-1,5
 417 496 417 496 380.5 490.5 c 128,-1,6
 344 485 344 485 307 485 c 0,7,8
 243 485 243 485 196.5 506.5 c 128,-1,9
 150 528 150 528 119.5 561.5 c 128,-1,10
 89 595 89 595 74.5 637.5 c 128,-1,11
 60 680 60 680 60 722 c 0,12,13
 60 771 60 771 80.5 802 c 128,-1,14
 101 833 101 833 132.5 850.5 c 128,-1,15
 164 868 164 868 203 874.5 c 128,-1,16
 242 881 242 881 279 881 c 2,17,-1
 607 881 l 1,18,-1
 607 998 l 1,19,-1
 0 998 l 1,20,-1
 0 1118 l 1,21,-1
 994 1118 l 1,22,-1
 994 998 l 1,23,-1
 727 998 l 1,24,-1
 727 781 l 1,25,-1
 279 781 l 2,26,27
 270 781 270 781 253 780 c 128,-1,28
 236 779 236 779 220 772.5 c 128,-1,29
 204 766 204 766 192 752.5 c 128,-1,30
 180 739 180 739 180 714 c 0,31,32
 180 691 180 691 187 668.5 c 128,-1,33
 194 646 194 646 209.5 629 c 128,-1,34
 225 612 225 612 249 601.5 c 128,-1,35
 273 591 273 591 307 591 c 0,36,37
 331 591 331 591 370.5 597.5 c 128,-1,38
 410 604 410 604 452 612 c 128,-1,39
 494 620 494 620 532 626.5 c 128,-1,40
 570 633 570 633 591 633 c 0,41,42
 684 633 684 633 729 582 c 128,-1,43
 774 531 774 531 774 437 c 0,44,45
 774 398 774 398 757.5 359.5 c 128,-1,46
 741 321 741 321 712.5 285 c 128,-1,47
 684 249 684 249 645 216.5 c 128,-1,48
 606 184 606 184 561 157 c 1,49,50
 597 112 597 112 629.5 63 c 128,-1,51
 662 14 662 14 688 -40 c 1,52,-1
 624 -90 l 1,53,54
 590 -30 590 -30 552.5 20.5 c 128,-1,55
 515 71 515 71 476 113 c 1,56,57
 422 90 422 90 366.5 77 c 128,-1,58
 311 64 311 64 260 64 c 0,59,60
 196 64 196 64 151 78.5 c 128,-1,61
 106 93 106 93 78 117 c 128,-1,62
 50 141 50 141 37 173 c 128,-1,63
 24 205 24 205 24 240 c 0,64,65
 24 277 24 277 40 303.5 c 128,-1,66
 56 330 56 330 81 346.5 c 128,-1,67
 106 363 106 363 136.5 370.5 c 128,-1,68
 167 378 167 378 196 378 c 0,69,70
 266 378 266 378 339.5 341 c 128,-1,71
 413 304 413 304 482 240 c 1,72,73
 517 260 517 260 548.5 283.5 c 128,-1,74
 580 307 580 307 603.5 332.5 c 128,-1,75
 627 358 627 358 640.5 386 c 128,-1,76
 654 414 654 414 654 443 c 0,0,1
190 278 m 0,77,78
 164 278 164 278 143.5 267.5 c 128,-1,79
 123 257 123 257 123 234 c 0,80,81
 123 209 123 209 149.5 186.5 c 128,-1,82
 176 164 176 164 230 164 c 0,83,84
 263 164 263 164 303.5 172.5 c 128,-1,85
 344 181 344 181 386 197 c 1,86,87
 335 236 335 236 285.5 257 c 128,-1,88
 236 278 236 278 190 278 c 0,77,78
EndSplineSet
Substitution2: "<17,16> Show Invisibles lookup 1 subtable" copyright
EndChar

StartChar: onequarter
Encoding: 188 188 97
Width: 1078
Flags: W
LayerCount: 2
Fore
SplineSet
1098 998 m 1,0,-1
 878 998 l 1,1,-1
 878 -2 l 1,2,-1
 758 95 l 1,3,-1
 758 417 l 1,4,5
 681 351 681 351 601 311 c 128,-1,6
 521 271 521 271 433 271 c 0,7,8
 386 271 386 271 339 282 c 128,-1,9
 292 293 292 293 254.5 318.5 c 128,-1,10
 217 344 217 344 193 386.5 c 128,-1,11
 169 429 169 429 169 492 c 0,12,13
 169 537 169 537 189 577 c 128,-1,14
 209 617 209 617 238.5 649 c 128,-1,15
 268 681 268 681 300 704 c 128,-1,16
 332 727 332 727 356 740 c 1,17,-1
 60 740 l 1,18,-1
 60 860 l 1,19,-1
 554 860 l 1,20,-1
 595 740 l 1,21,22
 505 706 505 706 446 672.5 c 128,-1,23
 387 639 387 639 352 608 c 128,-1,24
 317 577 317 577 303 548.5 c 128,-1,25
 289 520 289 520 289 497 c 0,26,27
 289 465 289 465 303.5 444.5 c 128,-1,28
 318 424 318 424 339.5 412 c 128,-1,29
 361 400 361 400 386 395.5 c 128,-1,30
 411 391 411 391 433 391 c 0,31,32
 468 391 468 391 503 400 c 128,-1,33
 538 409 538 409 577 430 c 128,-1,34
 616 451 616 451 660 485 c 128,-1,35
 704 519 704 519 758 570 c 1,36,-1
 758 998 l 1,37,-1
 0 998 l 1,38,-1
 0 1118 l 1,39,-1
 1098 1118 l 1,40,-1
 1098 998 l 1,0,-1
EndSplineSet
Substitution2: "<17,16> Show Invisibles lookup 1 subtable" onequarter
EndChar

StartChar: onehalf
Encoding: 189 189 98
Width: 1285
Flags: W
LayerCount: 2
Fore
SplineSet
1085 585 m 0,0,1
 1085 496 1085 496 1062 419.5 c 128,-1,2
 1039 343 1039 343 999 280.5 c 128,-1,3
 959 218 959 218 904.5 170 c 128,-1,4
 850 122 850 122 786 89 c 128,-1,5
 722 56 722 56 652 39 c 128,-1,6
 582 22 582 22 512 22 c 0,7,8
 441 22 441 22 372.5 45.5 c 128,-1,9
 304 69 304 69 250 114.5 c 128,-1,10
 196 160 196 160 162.5 226 c 128,-1,11
 129 292 129 292 129 377 c 0,12,13
 129 452 129 452 170 497.5 c 128,-1,14
 211 543 211 543 276 572 c 1,15,16
 236 582 236 582 197.5 602.5 c 128,-1,17
 159 623 159 623 128.5 654.5 c 128,-1,18
 98 686 98 686 79 729 c 128,-1,19
 60 772 60 772 60 826 c 0,20,21
 60 859 60 859 70.5 886.5 c 128,-1,22
 81 914 81 914 97 935.5 c 128,-1,23
 113 957 113 957 131 972.5 c 128,-1,24
 149 988 149 988 164 998 c 1,25,-1
 0 998 l 1,26,-1
 0 1118 l 1,27,-1
 1305 1118 l 1,28,-1
 1305 998 l 1,29,-1
 877 998 l 1,30,-1
 877 895 l 1,31,32
 928 881 928 881 966.5 849.5 c 128,-1,33
 1005 818 1005 818 1031.5 776 c 128,-1,34
 1058 734 1058 734 1071.5 684 c 128,-1,35
 1085 634 1085 634 1085 585 c 0,0,1
757 998 m 1,36,-1
 338 998 l 1,37,38
 309 989 309 989 281 973.5 c 128,-1,39
 253 958 253 958 230.5 936.5 c 128,-1,40
 208 915 208 915 194 887.5 c 128,-1,41
 180 860 180 860 180 827 c 0,42,43
 180 771 180 771 214.5 732.5 c 128,-1,44
 249 694 249 694 299 671 c 128,-1,45
 349 648 349 648 406 638 c 128,-1,46
 463 628 463 628 508 628 c 1,47,-1
 508 508 l 1,48,49
 386 508 386 508 317.5 474.5 c 128,-1,50
 249 441 249 441 249 365 c 0,51,52
 249 315 249 315 271 274 c 128,-1,53
 293 233 293 233 330 204 c 128,-1,54
 367 175 367 175 414 158.5 c 128,-1,55
 461 142 461 142 512 142 c 0,56,57
 591 142 591 142 657 164.5 c 128,-1,58
 723 187 723 187 775 224.5 c 128,-1,59
 827 262 827 262 865 311 c 128,-1,60
 903 360 903 360 926 412 c 1,61,62
 879 422 879 422 822 442.5 c 128,-1,63
 765 463 765 463 714.5 499.5 c 128,-1,64
 664 536 664 536 630 591 c 128,-1,65
 596 646 596 646 596 724 c 0,66,67
 596 755 596 755 606.5 783.5 c 128,-1,68
 617 812 617 812 637.5 835 c 128,-1,69
 658 858 658 858 688 875 c 128,-1,70
 718 892 718 892 757 899 c 1,71,-1
 757 998 l 1,36,-1
965 578 m 0,72,73
 965 614 965 614 953 651 c 128,-1,74
 941 688 941 688 919.5 717.5 c 128,-1,75
 898 747 898 747 868.5 765.5 c 128,-1,76
 839 784 839 784 805 784 c 0,77,78
 767 784 767 784 741.5 764 c 128,-1,79
 716 744 716 744 716 706 c 0,80,81
 716 666 716 666 740 633.5 c 128,-1,82
 764 601 764 601 800.5 576.5 c 128,-1,83
 837 552 837 552 879.5 535 c 128,-1,84
 922 518 922 518 958 509 c 1,85,86
 961 527 961 527 963 544 c 128,-1,87
 965 561 965 561 965 578 c 0,72,73
EndSplineSet
Substitution2: "<17,16> Show Invisibles lookup 1 subtable" onehalf
EndChar

StartChar: threequarters
Encoding: 190 190 99
Width: 1233
Flags: W
LayerCount: 2
Fore
SplineSet
1253 998 m 1,0,-1
 1033 998 l 1,1,-1
 1033 0 l 1,2,-1
 913 0 l 1,3,-1
 913 616 l 1,4,-1
 637 616 l 1,5,6
 664 587 664 587 690 555.5 c 128,-1,7
 716 524 716 524 736 487.5 c 128,-1,8
 756 451 756 451 768 409.5 c 128,-1,9
 780 368 780 368 780 320 c 256,10,11
 780 272 780 272 763.5 231 c 128,-1,12
 747 190 747 190 717.5 160 c 128,-1,13
 688 130 688 130 647 112.5 c 128,-1,14
 606 95 606 95 557 95 c 0,15,16
 493 95 493 95 436 121 c 128,-1,17
 379 147 379 147 329 189.5 c 128,-1,18
 279 232 279 232 236.5 285.5 c 128,-1,19
 194 339 194 339 160 394.5 c 128,-1,20
 126 450 126 450 100.5 502 c 128,-1,21
 75 554 75 554 60 593 c 1,22,23
 83 606 83 606 101 616 c 0,24,25
 117 624 117 624 130 631 c 128,-1,26
 143 638 143 638 143 639 c 1,27,28
 190 528 190 528 241.5 448 c 128,-1,29
 293 368 293 368 344.5 316 c 128,-1,30
 396 264 396 264 445.5 239.5 c 128,-1,31
 495 215 495 215 537 215 c 0,32,33
 561 215 561 215 583 221.5 c 128,-1,34
 605 228 605 228 622.5 243 c 128,-1,35
 640 258 640 258 650 282 c 128,-1,36
 660 306 660 306 660 340 c 0,37,38
 660 414 660 414 588 515 c 128,-1,39
 516 616 516 616 369 736 c 1,40,-1
 913 736 l 1,41,-1
 913 998 l 1,42,-1
 0 998 l 1,43,-1
 0 1118 l 1,44,-1
 1253 1118 l 1,45,-1
 1253 998 l 1,0,-1
EndSplineSet
Substitution2: "<17,16> Show Invisibles lookup 1 subtable" threequarters
EndChar

StartChar: cent
Encoding: 162 162 100
Width: 0
Flags: W
LayerCount: 2
Fore
SplineSet
-492 1655 m 256,0,1
 -432 1655 -432 1655 -381.5 1641 c 128,-1,2
 -331 1627 -331 1627 -287 1601 c 128,-1,3
 -243 1575 -243 1575 -204.5 1538 c 128,-1,4
 -166 1501 -166 1501 -131 1455 c 1,5,-1
 -208 1369 l 1,6,7
 -216 1381 -216 1381 -238 1408.5 c 128,-1,8
 -260 1436 -260 1436 -295.5 1464 c 128,-1,9
 -331 1492 -331 1492 -380 1513.5 c 128,-1,10
 -429 1535 -429 1535 -492 1535 c 256,11,12
 -555 1535 -555 1535 -604 1513.5 c 128,-1,13
 -653 1492 -653 1492 -688.5 1464 c 128,-1,14
 -724 1436 -724 1436 -746 1408.5 c 128,-1,15
 -768 1381 -768 1381 -776 1369 c 1,16,-1
 -853 1455 l 1,17,18
 -818 1501 -818 1501 -779.5 1538 c 128,-1,19
 -741 1575 -741 1575 -697 1601 c 128,-1,20
 -653 1627 -653 1627 -602.5 1641 c 128,-1,21
 -552 1655 -552 1655 -492 1655 c 256,0,1
-594 1306 m 256,22,23
 -594 1327 -594 1327 -586 1345.5 c 128,-1,24
 -578 1364 -578 1364 -564 1377.5 c 128,-1,25
 -550 1391 -550 1391 -531.5 1399 c 128,-1,26
 -513 1407 -513 1407 -492 1407 c 256,27,28
 -471 1407 -471 1407 -452.5 1399 c 128,-1,29
 -434 1391 -434 1391 -420 1377.5 c 128,-1,30
 -406 1364 -406 1364 -398 1345.5 c 128,-1,31
 -390 1327 -390 1327 -390 1306 c 256,32,33
 -390 1285 -390 1285 -398 1266.5 c 128,-1,34
 -406 1248 -406 1248 -420 1234 c 128,-1,35
 -434 1220 -434 1220 -452.5 1212 c 128,-1,36
 -471 1204 -471 1204 -492 1204 c 256,37,38
 -513 1204 -513 1204 -531.5 1212 c 128,-1,39
 -550 1220 -550 1220 -564 1234 c 128,-1,40
 -578 1248 -578 1248 -586 1266.5 c 128,-1,41
 -594 1285 -594 1285 -594 1306 c 256,22,23
EndSplineSet
EndChar

StartChar: sterling
Encoding: 163 163 101
Width: 0
Flags: W
LayerCount: 2
Fore
SplineSet
-492 1204 m 256,0,1
 -552 1204 -552 1204 -602.5 1218 c 128,-1,2
 -653 1232 -653 1232 -697 1258 c 128,-1,3
 -741 1284 -741 1284 -779.5 1321 c 128,-1,4
 -818 1358 -818 1358 -853 1404 c 1,5,-1
 -776 1490 l 1,6,7
 -768 1478 -768 1478 -746 1450.5 c 128,-1,8
 -724 1423 -724 1423 -688.5 1395 c 128,-1,9
 -653 1367 -653 1367 -604 1345.5 c 128,-1,10
 -555 1324 -555 1324 -492 1324 c 256,11,12
 -429 1324 -429 1324 -380 1345.5 c 128,-1,13
 -331 1367 -331 1367 -295.5 1395 c 128,-1,14
 -260 1423 -260 1423 -238 1450.5 c 128,-1,15
 -216 1478 -216 1478 -208 1490 c 1,16,-1
 -131 1404 l 1,17,18
 -166 1358 -166 1358 -204.5 1321 c 128,-1,19
 -243 1284 -243 1284 -287 1258 c 128,-1,20
 -331 1232 -331 1232 -381.5 1218 c 128,-1,21
 -432 1204 -432 1204 -492 1204 c 256,0,1
-594 1553 m 256,22,23
 -594 1574 -594 1574 -586 1592.5 c 128,-1,24
 -578 1611 -578 1611 -564 1625 c 128,-1,25
 -550 1639 -550 1639 -531.5 1647 c 128,-1,26
 -513 1655 -513 1655 -492 1655 c 256,27,28
 -471 1655 -471 1655 -452.5 1647 c 128,-1,29
 -434 1639 -434 1639 -420 1625 c 128,-1,30
 -406 1611 -406 1611 -398 1592.5 c 128,-1,31
 -390 1574 -390 1574 -390 1553 c 256,32,33
 -390 1532 -390 1532 -398 1513.5 c 128,-1,34
 -406 1495 -406 1495 -420 1481.5 c 128,-1,35
 -434 1468 -434 1468 -452.5 1460 c 128,-1,36
 -471 1452 -471 1452 -492 1452 c 256,37,38
 -513 1452 -513 1452 -531.5 1460 c 128,-1,39
 -550 1468 -550 1468 -564 1481.5 c 128,-1,40
 -578 1495 -578 1495 -586 1513.5 c 128,-1,41
 -594 1532 -594 1532 -594 1553 c 256,22,23
EndSplineSet
EndChar

StartChar: currency
Encoding: 164 164 102
Width: 0
Flags: W
LayerCount: 2
Fore
SplineSet
-315 1520 m 256,0,1
 -315 1557 -315 1557 -288.5 1582.5 c 128,-1,2
 -262 1608 -262 1608 -225 1608 c 256,3,4
 -188 1608 -188 1608 -162 1582.5 c 128,-1,5
 -136 1557 -136 1557 -136 1520 c 256,6,7
 -136 1483 -136 1483 -162 1457.5 c 128,-1,8
 -188 1432 -188 1432 -225 1432 c 256,9,10
 -262 1432 -262 1432 -288.5 1457.5 c 128,-1,11
 -315 1483 -315 1483 -315 1520 c 256,0,1
EndSplineSet
EndChar

StartChar: yen
Encoding: 165 165 103
Width: 573
Flags: W
LayerCount: 2
Fore
SplineSet
195 796 m 256,0,1
 195 833 195 833 221.5 858.5 c 128,-1,2
 248 884 248 884 285 884 c 256,3,4
 322 884 322 884 348 858.5 c 128,-1,5
 374 833 374 833 374 796 c 256,6,7
 374 759 374 759 348 733.5 c 128,-1,8
 322 708 322 708 285 708 c 256,9,10
 248 708 248 708 221.5 733.5 c 128,-1,11
 195 759 195 759 195 796 c 256,0,1
195 294 m 256,12,13
 195 331 195 331 221.5 356.5 c 128,-1,14
 248 382 248 382 285 382 c 256,15,16
 322 382 322 382 348 356.5 c 128,-1,17
 374 331 374 331 374 294 c 256,18,19
 374 257 374 257 348 231.5 c 128,-1,20
 322 206 322 206 285 206 c 256,21,22
 248 206 248 206 221.5 231.5 c 128,-1,23
 195 257 195 257 195 294 c 256,12,13
EndSplineSet
EndChar

StartChar: brokenbar
Encoding: 166 166 104
Width: 1358
Flags: W
LayerCount: 2
Fore
SplineSet
1378 1118 m 1,0,-1
 1378 998 l 1,1,-1
 1158 998 l 1,2,-1
 1158 0 l 1,3,-1
 1038 0 l 1,4,-1
 1038 589 l 1,5,6
 1000 560 1000 560 955 546.5 c 128,-1,7
 910 533 910 533 871 533 c 0,8,9
 850 533 850 533 831 536 c 128,-1,10
 812 539 812 539 793 544 c 1,11,12
 810 490 810 490 810 420 c 0,13,14
 810 365 810 365 790.5 311.5 c 128,-1,15
 771 258 771 258 732.5 215.5 c 128,-1,16
 694 173 694 173 636 146.5 c 128,-1,17
 578 120 578 120 500 120 c 0,18,19
 431 120 431 120 371 141.5 c 128,-1,20
 311 163 311 163 260.5 199.5 c 128,-1,21
 210 236 210 236 169 283.5 c 128,-1,22
 128 331 128 331 96 382 c 128,-1,23
 64 433 64 433 42 484 c 128,-1,24
 20 535 20 535 7 580 c 1,25,-1
 104 639 l 1,26,27
 137 551 137 551 178 478 c 128,-1,28
 219 405 219 405 268 352 c 128,-1,29
 317 299 317 299 375 269.5 c 128,-1,30
 433 240 433 240 501 240 c 0,31,32
 549 240 549 240 584.5 257 c 128,-1,33
 620 274 620 274 643.5 302 c 128,-1,34
 667 330 667 330 678.5 365 c 128,-1,35
 690 400 690 400 690 435 c 0,36,37
 690 495 690 495 667.5 535 c 128,-1,38
 645 575 645 575 609 599.5 c 128,-1,39
 573 624 573 624 527 634.5 c 128,-1,40
 481 645 481 645 435 645 c 0,41,42
 398 645 398 645 362 639 c 1,43,-1
 336 739 l 1,44,45
 371 742 371 742 412 753 c 128,-1,46
 453 764 453 764 488 783.5 c 128,-1,47
 523 803 523 803 546.5 832 c 128,-1,48
 570 861 570 861 570 900 c 0,49,50
 570 933 570 933 557 955.5 c 128,-1,51
 544 978 544 978 525 992 c 128,-1,52
 506 1006 506 1006 485.5 1012 c 128,-1,53
 465 1018 465 1018 450 1018 c 0,54,55
 430 1018 430 1018 407 1014.5 c 128,-1,56
 384 1011 384 1011 360 997.5 c 128,-1,57
 336 984 336 984 311.5 958.5 c 128,-1,58
 287 933 287 933 264 890 c 1,59,-1
 158 939 l 1,60,61
 172 969 172 969 196 1003.5 c 128,-1,62
 220 1038 220 1038 255.5 1068 c 128,-1,63
 291 1098 291 1098 338 1118 c 128,-1,64
 385 1138 385 1138 445 1138 c 0,65,66
 492 1138 492 1138 536.5 1123 c 128,-1,67
 581 1108 581 1108 615 1078 c 128,-1,68
 649 1048 649 1048 669.5 1003.5 c 128,-1,69
 690 959 690 959 690 901 c 0,70,71
 690 841 690 841 666 797.5 c 128,-1,72
 642 754 642 754 598 722 c 1,73,74
 622 716 622 716 645 706.5 c 128,-1,75
 668 697 668 697 689 683 c 1,76,-1
 690 686 l 1,77,78
 730 665 730 665 769.5 652 c 128,-1,79
 809 639 809 639 859 639 c 0,80,81
 922 639 922 639 965.5 660 c 128,-1,82
 1009 681 1009 681 1038 710 c 1,83,-1
 1038 998 l 1,84,-1
 810 998 l 1,85,-1
 810 1118 l 1,86,-1
 1063 1118 l 1,87,88
 1064 1126 1064 1126 1064.5 1133.5 c 128,-1,89
 1065 1141 1065 1141 1065 1148 c 0,90,91
 1065 1202 1065 1202 1040 1231.5 c 128,-1,92
 1015 1261 1015 1261 974 1276 c 128,-1,93
 933 1291 933 1291 880.5 1297 c 128,-1,94
 828 1303 828 1303 773.5 1309.5 c 128,-1,95
 719 1316 719 1316 666.5 1327.5 c 128,-1,96
 614 1339 614 1339 573 1365.5 c 128,-1,97
 532 1392 532 1392 507 1438.5 c 128,-1,98
 482 1485 482 1485 482 1562 c 0,99,100
 482 1585 482 1585 484.5 1610 c 128,-1,101
 487 1635 487 1635 492 1664 c 1,102,-1
 612 1632 l 1,103,104
 607 1612 607 1612 605.5 1594.5 c 128,-1,105
 604 1577 604 1577 604 1561 c 0,106,107
 604 1506 604 1506 626.5 1475.5 c 128,-1,108
 649 1445 649 1445 685.5 1430 c 128,-1,109
 722 1415 722 1415 769 1410 c 128,-1,110
 816 1405 816 1405 865.5 1400.5 c 128,-1,111
 915 1396 915 1396 962 1386.5 c 128,-1,112
 1009 1377 1009 1377 1045.5 1353.5 c 128,-1,113
 1082 1330 1082 1330 1104.5 1287.5 c 128,-1,114
 1127 1245 1127 1245 1127 1173 c 0,115,116
 1127 1148 1127 1148 1124 1118 c 1,117,-1
 1378 1118 l 1,0,-1
EndSplineSet
EndChar

StartChar: section
Encoding: 167 167 105
Width: 1358
Flags: W
LayerCount: 2
Fore
SplineSet
690 686 m 1,0,1
 730 665 730 665 769.5 652 c 128,-1,2
 809 639 809 639 859 639 c 0,3,4
 922 639 922 639 965.5 660 c 128,-1,5
 1009 681 1009 681 1038 710 c 1,6,-1
 1038 998 l 1,7,-1
 810 998 l 1,8,-1
 810 1118 l 1,9,-1
 1378 1118 l 1,10,-1
 1378 998 l 1,11,-1
 1158 998 l 1,12,-1
 1158 0 l 1,13,-1
 1038 0 l 1,14,-1
 1038 589 l 1,15,16
 1000 560 1000 560 955 546.5 c 128,-1,17
 910 533 910 533 871 533 c 0,18,19
 850 533 850 533 831 536 c 128,-1,20
 812 539 812 539 793 544 c 1,21,22
 810 490 810 490 810 420 c 0,23,24
 810 365 810 365 790.5 311.5 c 128,-1,25
 771 258 771 258 732.5 215.5 c 128,-1,26
 694 173 694 173 636 146.5 c 128,-1,27
 578 120 578 120 500 120 c 0,28,29
 431 120 431 120 371 141.5 c 128,-1,30
 311 163 311 163 260.5 199.5 c 128,-1,31
 210 236 210 236 169 283.5 c 128,-1,32
 128 331 128 331 96 382 c 128,-1,33
 64 433 64 433 42 484 c 128,-1,34
 20 535 20 535 7 580 c 1,35,-1
 104 639 l 1,36,37
 137 551 137 551 178 478 c 128,-1,38
 219 405 219 405 268 352 c 128,-1,39
 317 299 317 299 375 269.5 c 128,-1,40
 433 240 433 240 501 240 c 0,41,42
 549 240 549 240 584.5 257 c 128,-1,43
 620 274 620 274 643.5 302 c 128,-1,44
 667 330 667 330 678.5 365 c 128,-1,45
 690 400 690 400 690 435 c 0,46,47
 690 495 690 495 667.5 535 c 128,-1,48
 645 575 645 575 609 599.5 c 128,-1,49
 573 624 573 624 527 634.5 c 128,-1,50
 481 645 481 645 435 645 c 0,51,52
 398 645 398 645 362 639 c 1,53,-1
 336 739 l 1,54,55
 371 742 371 742 412 753 c 128,-1,56
 453 764 453 764 488 783.5 c 128,-1,57
 523 803 523 803 546.5 832 c 128,-1,58
 570 861 570 861 570 900 c 0,59,60
 570 933 570 933 557 955.5 c 128,-1,61
 544 978 544 978 525 992 c 128,-1,62
 506 1006 506 1006 485.5 1012 c 128,-1,63
 465 1018 465 1018 450 1018 c 0,64,65
 430 1018 430 1018 407 1014.5 c 128,-1,66
 384 1011 384 1011 360 997.5 c 128,-1,67
 336 984 336 984 311.5 958.5 c 128,-1,68
 287 933 287 933 264 890 c 1,69,-1
 158 939 l 1,70,71
 172 969 172 969 196 1003.5 c 128,-1,72
 220 1038 220 1038 255.5 1068 c 128,-1,73
 291 1098 291 1098 338 1118 c 128,-1,74
 385 1138 385 1138 445 1138 c 0,75,76
 492 1138 492 1138 536.5 1123 c 128,-1,77
 581 1108 581 1108 615 1078 c 128,-1,78
 649 1048 649 1048 669.5 1003.5 c 128,-1,79
 690 959 690 959 690 901 c 0,80,81
 690 841 690 841 666 797.5 c 128,-1,82
 642 754 642 754 598 722 c 1,83,84
 622 716 622 716 645 706.5 c 128,-1,85
 668 697 668 697 689 683 c 1,86,-1
 690 686 l 1,0,1
EndSplineSet
EndChar

StartChar: dieresis
Encoding: 168 168 106
Width: 1678
Flags: W
LayerCount: 2
Fore
SplineSet
690 686 m 1,0,1
 730 665 730 665 769.5 652 c 128,-1,2
 809 639 809 639 859 639 c 0,3,4
 922 639 922 639 965.5 660 c 128,-1,5
 1009 681 1009 681 1038 710 c 1,6,-1
 1038 998 l 1,7,-1
 810 998 l 1,8,-1
 810 1118 l 1,9,-1
 1698 1118 l 1,10,-1
 1698 998 l 1,11,-1
 1478 998 l 1,12,-1
 1478 0 l 1,13,-1
 1358 0 l 1,14,-1
 1358 998 l 1,15,-1
 1158 998 l 1,16,-1
 1158 0 l 1,17,-1
 1038 0 l 1,18,-1
 1038 589 l 1,19,20
 1000 560 1000 560 955 546.5 c 128,-1,21
 910 533 910 533 871 533 c 0,22,23
 850 533 850 533 831 536 c 128,-1,24
 812 539 812 539 793 544 c 1,25,26
 810 490 810 490 810 420 c 0,27,28
 810 365 810 365 790.5 311.5 c 128,-1,29
 771 258 771 258 732.5 215.5 c 128,-1,30
 694 173 694 173 636 146.5 c 128,-1,31
 578 120 578 120 500 120 c 0,32,33
 431 120 431 120 371 141.5 c 128,-1,34
 311 163 311 163 260.5 199.5 c 128,-1,35
 210 236 210 236 169 283.5 c 128,-1,36
 128 331 128 331 96 382 c 128,-1,37
 64 433 64 433 42 484 c 128,-1,38
 20 535 20 535 7 580 c 1,39,-1
 104 639 l 1,40,41
 137 551 137 551 178 478 c 128,-1,42
 219 405 219 405 268 352 c 128,-1,43
 317 299 317 299 375 269.5 c 128,-1,44
 433 240 433 240 501 240 c 0,45,46
 549 240 549 240 584.5 257 c 128,-1,47
 620 274 620 274 643.5 302 c 128,-1,48
 667 330 667 330 678.5 365 c 128,-1,49
 690 400 690 400 690 435 c 0,50,51
 690 495 690 495 667.5 535 c 128,-1,52
 645 575 645 575 609 599.5 c 128,-1,53
 573 624 573 624 527 634.5 c 128,-1,54
 481 645 481 645 435 645 c 0,55,56
 398 645 398 645 362 639 c 1,57,-1
 336 739 l 1,58,59
 371 742 371 742 412 753 c 128,-1,60
 453 764 453 764 488 783.5 c 128,-1,61
 523 803 523 803 546.5 832 c 128,-1,62
 570 861 570 861 570 900 c 0,63,64
 570 933 570 933 557 955.5 c 128,-1,65
 544 978 544 978 525 992 c 128,-1,66
 506 1006 506 1006 485.5 1012 c 128,-1,67
 465 1018 465 1018 450 1018 c 0,68,69
 430 1018 430 1018 407 1014.5 c 128,-1,70
 384 1011 384 1011 360 997.5 c 128,-1,71
 336 984 336 984 311.5 958.5 c 128,-1,72
 287 933 287 933 264 890 c 1,73,-1
 158 939 l 1,74,75
 172 969 172 969 196 1003.5 c 128,-1,76
 220 1038 220 1038 255.5 1068 c 128,-1,77
 291 1098 291 1098 338 1118 c 128,-1,78
 385 1138 385 1138 445 1138 c 0,79,80
 492 1138 492 1138 536.5 1123 c 128,-1,81
 581 1108 581 1108 615 1078 c 128,-1,82
 649 1048 649 1048 669.5 1003.5 c 128,-1,83
 690 959 690 959 690 901 c 0,84,85
 690 841 690 841 666 797.5 c 128,-1,86
 642 754 642 754 598 722 c 1,87,88
 622 716 622 716 645 706.5 c 128,-1,89
 668 697 668 697 689 683 c 1,90,-1
 690 686 l 1,0,1
EndSplineSet
EndChar

StartChar: ordfeminine
Encoding: 170 170 107
Width: 984
Flags: W
LayerCount: 2
Fore
SplineSet
769 456 m 2,0,1
 769 529 769 529 750 593 c 128,-1,2
 731 657 731 657 696.5 704.5 c 128,-1,3
 662 752 662 752 613 779.5 c 128,-1,4
 564 807 564 807 505 807 c 256,5,6
 446 807 446 807 398 779.5 c 128,-1,7
 350 752 350 752 316.5 704.5 c 128,-1,8
 283 657 283 657 264.5 593 c 128,-1,9
 246 529 246 529 246 456 c 256,10,11
 246 383 246 383 264.5 318.5 c 128,-1,12
 283 254 283 254 316.5 206 c 128,-1,13
 350 158 350 158 398 130 c 128,-1,14
 446 102 446 102 505 102 c 0,15,16
 563 102 563 102 611 128.5 c 128,-1,17
 659 155 659 155 693.5 201 c 128,-1,18
 728 247 728 247 747.5 309 c 128,-1,19
 767 371 767 371 769 441 c 2,20,-1
 769 456 l 2,0,1
904 -372 m 1,21,-1
 769 -372 l 1,22,-1
 769 137 l 1,23,24
 745 99 745 99 712 70.5 c 128,-1,25
 679 42 679 42 643 22.5 c 128,-1,26
 607 3 607 3 569 -6.5 c 128,-1,27
 531 -16 531 -16 496 -16 c 0,28,29
 404 -16 404 -16 332.5 21 c 128,-1,30
 261 58 261 58 212 122 c 128,-1,31
 163 186 163 186 138 272 c 128,-1,32
 113 358 113 358 113 456 c 0,33,34
 113 553 113 553 139 639 c 128,-1,35
 165 725 165 725 214.5 788.5 c 128,-1,36
 264 852 264 852 335.5 889 c 128,-1,37
 407 926 407 926 499 926 c 0,38,39
 535 926 535 926 573 915.5 c 128,-1,40
 611 905 611 905 647 885 c 128,-1,41
 683 865 683 865 714.5 836 c 128,-1,42
 746 807 746 807 769 769 c 1,43,-1
 769 906 l 1,44,-1
 904 906 l 1,45,-1
 904 -372 l 1,21,-1
EndSplineSet
EndChar

StartChar: guillemotleft
Encoding: 171 171 108
Width: 1144
Flags: W
LayerCount: 2
Fore
SplineSet
1164 998 m 1,0,-1
 731 998 l 1,1,2
 767 972 767 972 788 948 c 128,-1,3
 809 924 809 924 819.5 903 c 128,-1,4
 830 882 830 882 832.5 863.5 c 128,-1,5
 835 845 835 845 835 832 c 0,6,7
 835 801 835 801 825.5 776 c 128,-1,8
 816 751 816 751 801.5 731 c 128,-1,9
 787 711 787 711 769 696 c 128,-1,10
 751 681 751 681 734 670 c 1,11,12
 786 660 786 660 825.5 635 c 128,-1,13
 865 610 865 610 891 576.5 c 128,-1,14
 917 543 917 543 930.5 503 c 128,-1,15
 944 463 944 463 944 422 c 0,16,17
 944 330 944 330 913.5 263 c 128,-1,18
 883 196 883 196 834 152.5 c 128,-1,19
 785 109 785 109 722.5 87.5 c 128,-1,20
 660 66 660 66 596 66 c 0,21,22
 518 66 518 66 453 89 c 128,-1,23
 388 112 388 112 334 150.5 c 128,-1,24
 280 189 280 189 237 238.5 c 128,-1,25
 194 288 194 288 160.5 341.5 c 128,-1,26
 127 395 127 395 102 448 c 128,-1,27
 77 501 77 501 60 546 c 1,28,-1
 145 597 l 1,29,30
 163 553 163 553 186 506 c 128,-1,31
 209 459 209 459 238 413 c 128,-1,32
 267 367 267 367 302.5 326 c 128,-1,33
 338 285 338 285 381 254 c 128,-1,34
 424 223 424 223 474 204.5 c 128,-1,35
 524 186 524 186 583 186 c 0,36,37
 645 186 645 186 690.5 207.5 c 128,-1,38
 736 229 736 229 765.5 262 c 128,-1,39
 795 295 795 295 809.5 333.5 c 128,-1,40
 824 372 824 372 824 407 c 0,41,42
 824 450 824 450 810 480.5 c 128,-1,43
 796 511 796 511 773 531 c 128,-1,44
 750 551 750 551 721 560.5 c 128,-1,45
 692 570 692 570 662 570 c 2,46,-1
 461 570 l 1,47,-1
 461 690 l 1,48,-1
 577 690 l 1,49,50
 603 697 603 697 627.5 710 c 128,-1,51
 652 723 652 723 671.5 742.5 c 128,-1,52
 691 762 691 762 703 788 c 128,-1,53
 715 814 715 814 715 847 c 0,54,55
 715 878 715 878 699.5 903 c 128,-1,56
 684 928 684 928 662 947 c 128,-1,57
 640 966 640 966 616.5 979 c 128,-1,58
 593 992 593 992 577 998 c 1,59,-1
 0 998 l 1,60,-1
 0 1118 l 1,61,-1
 1164 1118 l 1,62,-1
 1164 998 l 1,0,-1
EndSplineSet
EndChar

StartChar: logicalnot
Encoding: 172 172 109
Width: 1238
Flags: W
LayerCount: 2
Fore
SplineSet
612 755 m 1,0,-1
 403 0 l 1,1,-1
 263 0 l 1,2,-1
 2 906 l 1,3,-1
 139 906 l 1,4,-1
 334 166 l 1,5,-1
 538 906 l 1,6,-1
 687 906 l 1,7,-1
 886 166 l 1,8,-1
 1087 906 l 1,9,-1
 1223 906 l 1,10,-1
 964 0 l 1,11,-1
 822 0 l 1,12,-1
 612 755 l 1,0,-1
EndSplineSet
EndChar

StartChar: uni00AD
Encoding: 173 173 110
Width: 824
Flags: W
LayerCount: 2
Fore
SplineSet
489 452 m 1,0,-1
 802 0 l 1,1,-1
 640 0 l 1,2,-1
 409 336 l 1,3,-1
 175 0 l 1,4,-1
 12 0 l 1,5,-1
 328 452 l 1,6,-1
 14 906 l 1,7,-1
 175 906 l 1,8,-1
 409 570 l 1,9,-1
 640 906 l 1,10,-1
 802 906 l 1,11,-1
 489 452 l 1,0,-1
EndSplineSet
EndChar

StartChar: registered
Encoding: 174 174 111
Width: 313
Flags: W
LayerCount: 2
Fore
SplineSet
242 1268 m 1,0,-1
 242 1112 l 1,1,-1
 108 1112 l 1,2,-1
 108 1268 l 1,3,-1
 242 1268 l 1,0,-1
242 906 m 1,4,-1
 242 -167 l 2,5,6
 242 -224 242 -224 226 -267 c 128,-1,7
 210 -310 210 -310 182.5 -338.5 c 128,-1,8
 155 -367 155 -367 117 -381 c 128,-1,9
 79 -395 79 -395 35 -395 c 0,10,11
 17 -395 17 -395 -1.5 -392 c 128,-1,12
 -20 -389 -20 -389 -38 -379 c 1,13,-1
 -38 -263 l 1,14,15
 -18 -272 -18 -272 -7.5 -274.5 c 128,-1,16
 3 -277 3 -277 11 -277 c 0,17,18
 37 -277 37 -277 55.5 -266 c 128,-1,19
 74 -255 74 -255 85.5 -236.5 c 128,-1,20
 97 -218 97 -218 102.5 -193.5 c 128,-1,21
 108 -169 108 -169 108 -142 c 2,22,-1
 108 906 l 1,23,-1
 242 906 l 1,4,-1
EndSplineSet
EndChar

StartChar: macron
Encoding: 175 175 112
Width: 605
Flags: W
LayerCount: 2
Fore
SplineSet
224 906 m 1,0,-1
 224 1129 l 2,1,2
 224 1167 224 1167 237.5 1199 c 128,-1,3
 251 1231 251 1231 275.5 1254.5 c 128,-1,4
 300 1278 300 1278 336 1291.5 c 128,-1,5
 372 1305 372 1305 417 1305 c 0,6,7
 441 1305 441 1305 472 1296 c 128,-1,8
 503 1287 503 1287 530 1270 c 1,9,-1
 530 1165 l 1,10,11
 508 1174 508 1174 489 1179.5 c 128,-1,12
 470 1185 470 1185 461 1185 c 0,13,14
 416 1185 416 1185 387.5 1165.5 c 128,-1,15
 359 1146 359 1146 359 1103 c 2,16,-1
 359 906 l 1,17,-1
 518 906 l 1,18,-1
 518 788 l 1,19,-1
 359 788 l 1,20,-1
 359 0 l 1,21,-1
 224 0 l 1,22,-1
 224 788 l 1,23,-1
 69 788 l 1,24,-1
 69 906 l 1,25,-1
 224 906 l 1,0,-1
EndSplineSet
EndChar

StartChar: degree
Encoding: 176 176 113
Width: 946
Flags: W
LayerCount: 2
Fore
SplineSet
966 1118 m 1,0,-1
 966 998 l 1,1,-1
 746 998 l 1,2,-1
 746 609 l 2,3,4
 746 569 746 569 733.5 537.5 c 128,-1,5
 721 506 721 506 702.5 481 c 128,-1,6
 684 456 684 456 663 438.5 c 128,-1,7
 642 421 642 421 626 410 c 1,8,-1
 542 494 l 1,9,10
 557 505 557 505 572 518 c 128,-1,11
 587 531 587 531 599 547 c 128,-1,12
 611 563 611 563 618.5 583 c 128,-1,13
 626 603 626 603 626 628 c 2,14,-1
 626 998 l 1,15,-1
 220 998 l 1,16,-1
 220 543 l 2,17,18
 220 505 220 505 248.5 470 c 128,-1,19
 277 435 277 435 324.5 401.5 c 128,-1,20
 372 368 372 368 432 336 c 128,-1,21
 492 304 492 304 554.5 271 c 128,-1,22
 617 238 617 238 677 203 c 128,-1,23
 737 168 737 168 784.5 130.5 c 128,-1,24
 832 93 832 93 860.5 51.5 c 128,-1,25
 889 10 889 10 889 -37 c 0,26,27
 889 -72 889 -72 878.5 -99.5 c 128,-1,28
 868 -127 868 -127 849.5 -148 c 128,-1,29
 831 -169 831 -169 804.5 -185 c 128,-1,30
 778 -201 778 -201 746 -213 c 1,31,-1
 664 -124 l 1,32,33
 703 -112 703 -112 724.5 -88.5 c 128,-1,34
 746 -65 746 -65 746 -38 c 0,35,36
 746 -10 746 -10 718 17.5 c 128,-1,37
 690 45 690 45 645 73 c 128,-1,38
 600 101 600 101 542 130 c 128,-1,39
 484 159 484 159 423 190.5 c 128,-1,40
 362 222 362 222 304 255.5 c 128,-1,41
 246 289 246 289 201 326 c 128,-1,42
 156 363 156 363 128 404 c 128,-1,43
 100 445 100 445 100 491 c 2,44,-1
 100 998 l 1,45,-1
 0 998 l 1,46,-1
 0 1118 l 1,47,-1
 651 1118 l 1,48,49
 652 1126 652 1126 652.5 1133.5 c 128,-1,50
 653 1141 653 1141 653 1148 c 0,51,52
 653 1202 653 1202 628 1231.5 c 128,-1,53
 603 1261 603 1261 562 1276 c 128,-1,54
 521 1291 521 1291 468.5 1297 c 128,-1,55
 416 1303 416 1303 361.5 1309.5 c 128,-1,56
 307 1316 307 1316 254.5 1327.5 c 128,-1,57
 202 1339 202 1339 161 1365.5 c 128,-1,58
 120 1392 120 1392 95 1438.5 c 128,-1,59
 70 1485 70 1485 70 1562 c 0,60,61
 70 1585 70 1585 72.5 1610 c 128,-1,62
 75 1635 75 1635 80 1664 c 1,63,-1
 200 1632 l 1,64,65
 195 1612 195 1612 193.5 1594.5 c 128,-1,66
 192 1577 192 1577 192 1561 c 0,67,68
 192 1506 192 1506 214.5 1475.5 c 128,-1,69
 237 1445 237 1445 273.5 1430 c 128,-1,70
 310 1415 310 1415 357 1410 c 128,-1,71
 404 1405 404 1405 453.5 1400.5 c 128,-1,72
 503 1396 503 1396 550 1386.5 c 128,-1,73
 597 1377 597 1377 633.5 1353.5 c 128,-1,74
 670 1330 670 1330 692.5 1287.5 c 128,-1,75
 715 1245 715 1245 715 1173 c 0,76,77
 715 1148 715 1148 712 1118 c 1,78,-1
 966 1118 l 1,0,-1
EndSplineSet
EndChar

StartChar: plusminus
Encoding: 177 177 114
Width: 946
Flags: W
LayerCount: 2
Fore
SplineSet
966 1118 m 1,0,-1
 966 998 l 1,1,-1
 746 998 l 1,2,-1
 746 609 l 2,3,4
 746 569 746 569 733.5 537.5 c 128,-1,5
 721 506 721 506 702.5 481 c 128,-1,6
 684 456 684 456 663 438.5 c 128,-1,7
 642 421 642 421 626 410 c 1,8,-1
 542 494 l 1,9,10
 557 505 557 505 572 518 c 128,-1,11
 587 531 587 531 599 547 c 128,-1,12
 611 563 611 563 618.5 583 c 128,-1,13
 626 603 626 603 626 628 c 2,14,-1
 626 998 l 1,15,-1
 220 998 l 1,16,-1
 220 543 l 2,17,18
 220 505 220 505 248.5 470 c 128,-1,19
 277 435 277 435 324.5 401.5 c 128,-1,20
 372 368 372 368 432 336 c 128,-1,21
 492 304 492 304 554.5 271 c 128,-1,22
 617 238 617 238 677 203 c 128,-1,23
 737 168 737 168 784.5 130.5 c 128,-1,24
 832 93 832 93 860.5 51.5 c 128,-1,25
 889 10 889 10 889 -37 c 0,26,27
 889 -72 889 -72 878.5 -99.5 c 128,-1,28
 868 -127 868 -127 849.5 -148 c 128,-1,29
 831 -169 831 -169 804.5 -185 c 128,-1,30
 778 -201 778 -201 746 -213 c 1,31,-1
 664 -124 l 1,32,33
 703 -112 703 -112 724.5 -88.5 c 128,-1,34
 746 -65 746 -65 746 -38 c 0,35,36
 746 -10 746 -10 718 17.5 c 128,-1,37
 690 45 690 45 645 73 c 128,-1,38
 600 101 600 101 542 130 c 128,-1,39
 484 159 484 159 423 190.5 c 128,-1,40
 362 222 362 222 304 255.5 c 128,-1,41
 246 289 246 289 201 326 c 128,-1,42
 156 363 156 363 128 404 c 128,-1,43
 100 445 100 445 100 491 c 2,44,-1
 100 998 l 1,45,-1
 0 998 l 1,46,-1
 0 1118 l 1,47,-1
 966 1118 l 1,0,-1
EndSplineSet
EndChar

StartChar: uni00B2
Encoding: 178 178 115
Width: 946
Flags: W
LayerCount: 2
Fore
SplineSet
966 1118 m 1,0,-1
 966 998 l 1,1,-1
 746 998 l 1,2,-1
 746 609 l 2,3,4
 746 569 746 569 733.5 537.5 c 128,-1,5
 721 506 721 506 702.5 481 c 128,-1,6
 684 456 684 456 663 438.5 c 128,-1,7
 642 421 642 421 626 410 c 1,8,-1
 542 494 l 1,9,10
 557 505 557 505 572 518 c 128,-1,11
 587 531 587 531 599 547 c 128,-1,12
 611 563 611 563 618.5 583 c 128,-1,13
 626 603 626 603 626 628 c 2,14,-1
 626 998 l 1,15,-1
 220 998 l 1,16,-1
 220 543 l 2,17,18
 220 505 220 505 248.5 470 c 128,-1,19
 277 435 277 435 324.5 401.5 c 128,-1,20
 372 368 372 368 432 336 c 128,-1,21
 492 304 492 304 554.5 271 c 128,-1,22
 617 238 617 238 677 203 c 128,-1,23
 737 168 737 168 784.5 130.5 c 128,-1,24
 832 93 832 93 860.5 51.5 c 128,-1,25
 889 10 889 10 889 -37 c 0,26,27
 889 -72 889 -72 878.5 -99.5 c 128,-1,28
 868 -127 868 -127 849.5 -148 c 128,-1,29
 831 -169 831 -169 804.5 -185 c 128,-1,30
 778 -201 778 -201 746 -213 c 1,31,-1
 664 -124 l 1,32,33
 703 -112 703 -112 724.5 -88.5 c 128,-1,34
 746 -65 746 -65 746 -38 c 0,35,36
 746 -10 746 -10 718 17.5 c 128,-1,37
 690 45 690 45 645 73 c 128,-1,38
 600 101 600 101 542 130 c 128,-1,39
 484 159 484 159 423 190.5 c 128,-1,40
 362 222 362 222 304 255.5 c 128,-1,41
 246 289 246 289 201 326 c 128,-1,42
 156 363 156 363 128 404 c 128,-1,43
 100 445 100 445 100 491 c 2,44,-1
 100 998 l 1,45,-1
 0 998 l 1,46,-1
 0 1118 l 1,47,-1
 626 1118 l 1,48,-1
 380 1504 l 2,49,50
 364 1530 364 1530 334 1542 c 128,-1,51
 304 1554 304 1554 250 1554 c 2,52,-1
 149 1554 l 1,53,-1
 149 1664 l 1,54,-1
 340 1664 l 2,55,56
 370 1664 370 1664 397.5 1654 c 128,-1,57
 425 1644 425 1644 443 1612 c 2,58,-1
 725 1118 l 1,59,-1
 966 1118 l 1,0,-1
EndSplineSet
EndChar

StartChar: uni00B3
Encoding: 179 179 116
Width: 1678
Flags: W
LayerCount: 2
Fore
SplineSet
690 686 m 1,0,1
 730 665 730 665 769.5 652 c 128,-1,2
 809 639 809 639 859 639 c 0,3,4
 922 639 922 639 965.5 660 c 128,-1,5
 1009 681 1009 681 1038 710 c 1,6,-1
 1038 998 l 1,7,-1
 810 998 l 1,8,-1
 810 1118 l 1,9,-1
 1698 1118 l 1,10,-1
 1698 998 l 1,11,-1
 1478 998 l 1,12,-1
 1478 0 l 1,13,-1
 1358 0 l 1,14,-1
 1358 998 l 1,15,-1
 1158 998 l 1,16,-1
 1158 0 l 1,17,-1
 1038 0 l 1,18,-1
 1038 589 l 1,19,20
 1000 560 1000 560 955 546.5 c 128,-1,21
 910 533 910 533 871 533 c 0,22,23
 850 533 850 533 831 536 c 128,-1,24
 812 539 812 539 793 544 c 1,25,26
 810 490 810 490 810 420 c 0,27,28
 810 365 810 365 790.5 311.5 c 128,-1,29
 771 258 771 258 732.5 215.5 c 128,-1,30
 694 173 694 173 636 146.5 c 128,-1,31
 578 120 578 120 500 120 c 0,32,33
 431 120 431 120 371 141.5 c 128,-1,34
 311 163 311 163 260.5 199.5 c 128,-1,35
 210 236 210 236 169 283.5 c 128,-1,36
 128 331 128 331 96 382 c 128,-1,37
 64 433 64 433 42 484 c 128,-1,38
 20 535 20 535 7 580 c 1,39,-1
 104 639 l 1,40,41
 137 551 137 551 178 478 c 128,-1,42
 219 405 219 405 268 352 c 128,-1,43
 317 299 317 299 375 269.5 c 128,-1,44
 433 240 433 240 501 240 c 0,45,46
 549 240 549 240 584.5 257 c 128,-1,47
 620 274 620 274 643.5 302 c 128,-1,48
 667 330 667 330 678.5 365 c 128,-1,49
 690 400 690 400 690 435 c 0,50,51
 690 495 690 495 667.5 535 c 128,-1,52
 645 575 645 575 609 599.5 c 128,-1,53
 573 624 573 624 527 634.5 c 128,-1,54
 481 645 481 645 435 645 c 0,55,56
 398 645 398 645 362 639 c 1,57,-1
 336 739 l 1,58,59
 371 742 371 742 412 753 c 128,-1,60
 453 764 453 764 488 783.5 c 128,-1,61
 523 803 523 803 546.5 832 c 128,-1,62
 570 861 570 861 570 900 c 0,63,64
 570 933 570 933 557 955.5 c 128,-1,65
 544 978 544 978 525 992 c 128,-1,66
 506 1006 506 1006 485.5 1012 c 128,-1,67
 465 1018 465 1018 450 1018 c 0,68,69
 430 1018 430 1018 407 1014.5 c 128,-1,70
 384 1011 384 1011 360 997.5 c 128,-1,71
 336 984 336 984 311.5 958.5 c 128,-1,72
 287 933 287 933 264 890 c 1,73,-1
 158 939 l 1,74,75
 172 969 172 969 196 1003.5 c 128,-1,76
 220 1038 220 1038 255.5 1068 c 128,-1,77
 291 1098 291 1098 338 1118 c 128,-1,78
 385 1138 385 1138 445 1138 c 0,79,80
 492 1138 492 1138 536.5 1123 c 128,-1,81
 581 1108 581 1108 615 1078 c 128,-1,82
 649 1048 649 1048 669.5 1003.5 c 128,-1,83
 690 959 690 959 690 901 c 0,84,85
 690 841 690 841 666 797.5 c 128,-1,86
 642 754 642 754 598 722 c 1,87,88
 622 716 622 716 645 706.5 c 128,-1,89
 668 697 668 697 689 683 c 1,90,-1
 690 686 l 1,0,1
1266 1340 m 256,91,92
 1302 1340 1302 1340 1330 1356 c 128,-1,93
 1358 1372 1358 1372 1378.5 1396 c 128,-1,94
 1399 1420 1399 1420 1412 1447.5 c 128,-1,95
 1425 1475 1425 1475 1431 1499 c 1,96,-1
 1524 1474 l 1,97,98
 1504 1410 1504 1410 1477 1367 c 128,-1,99
 1450 1324 1450 1324 1417 1298 c 128,-1,100
 1384 1272 1384 1272 1345.5 1261 c 128,-1,101
 1307 1250 1307 1250 1266 1250 c 256,102,103
 1225 1250 1225 1250 1186.5 1261 c 128,-1,104
 1148 1272 1148 1272 1115 1298 c 128,-1,105
 1082 1324 1082 1324 1054.5 1367 c 128,-1,106
 1027 1410 1027 1410 1008 1474 c 1,107,-1
 1101 1499 l 1,108,109
 1107 1475 1107 1475 1120 1447.5 c 128,-1,110
 1133 1420 1133 1420 1153.5 1396 c 128,-1,111
 1174 1372 1174 1372 1202 1356 c 128,-1,112
 1230 1340 1230 1340 1266 1340 c 256,91,92
EndSplineSet
EndChar

StartChar: acute
Encoding: 180 180 117
Width: 1678
Flags: W
LayerCount: 2
Fore
SplineSet
1698 1118 m 1,0,-1
 1698 998 l 1,1,-1
 1478 998 l 1,2,-1
 1478 0 l 1,3,-1
 1358 0 l 1,4,-1
 1358 998 l 1,5,-1
 1158 998 l 1,6,-1
 1158 0 l 1,7,-1
 1038 0 l 1,8,-1
 1038 589 l 1,9,10
 1000 560 1000 560 955 546.5 c 128,-1,11
 910 533 910 533 871 533 c 0,12,13
 850 533 850 533 831 536 c 128,-1,14
 812 539 812 539 793 544 c 1,15,16
 810 490 810 490 810 420 c 0,17,18
 810 365 810 365 790.5 311.5 c 128,-1,19
 771 258 771 258 732.5 215.5 c 128,-1,20
 694 173 694 173 636 146.5 c 128,-1,21
 578 120 578 120 500 120 c 0,22,23
 431 120 431 120 371 141.5 c 128,-1,24
 311 163 311 163 260.5 199.5 c 128,-1,25
 210 236 210 236 169 283.5 c 128,-1,26
 128 331 128 331 96 382 c 128,-1,27
 64 433 64 433 42 484 c 128,-1,28
 20 535 20 535 7 580 c 1,29,-1
 104 639 l 1,30,31
 137 551 137 551 178 478 c 128,-1,32
 219 405 219 405 268 352 c 128,-1,33
 317 299 317 299 375 269.5 c 128,-1,34
 433 240 433 240 501 240 c 0,35,36
 549 240 549 240 584.5 257 c 128,-1,37
 620 274 620 274 643.5 302 c 128,-1,38
 667 330 667 330 678.5 365 c 128,-1,39
 690 400 690 400 690 435 c 0,40,41
 690 495 690 495 667.5 535 c 128,-1,42
 645 575 645 575 609 599.5 c 128,-1,43
 573 624 573 624 527 634.5 c 128,-1,44
 481 645 481 645 435 645 c 0,45,46
 399 645 399 645 360 639 c 1,47,-1
 336 739 l 1,48,49
 371 742 371 742 412 753 c 128,-1,50
 453 764 453 764 488 783.5 c 128,-1,51
 523 803 523 803 546.5 832 c 128,-1,52
 570 861 570 861 570 900 c 0,53,54
 570 933 570 933 557 955.5 c 128,-1,55
 544 978 544 978 525 992 c 128,-1,56
 506 1006 506 1006 485.5 1012 c 128,-1,57
 465 1018 465 1018 450 1018 c 0,58,59
 430 1018 430 1018 407 1014.5 c 128,-1,60
 384 1011 384 1011 360 997.5 c 128,-1,61
 336 984 336 984 311.5 958.5 c 128,-1,62
 287 933 287 933 264 890 c 1,63,-1
 158 939 l 1,64,65
 172 969 172 969 196 1003.5 c 128,-1,66
 220 1038 220 1038 255.5 1068 c 128,-1,67
 291 1098 291 1098 338 1118 c 128,-1,68
 385 1138 385 1138 445 1138 c 0,69,70
 492 1138 492 1138 536.5 1123 c 128,-1,71
 581 1108 581 1108 615 1078 c 128,-1,72
 649 1048 649 1048 669.5 1003.5 c 128,-1,73
 690 959 690 959 690 901 c 0,74,75
 690 841 690 841 666 797.5 c 128,-1,76
 642 754 642 754 598 722 c 1,77,78
 622 716 622 716 645 706.5 c 128,-1,79
 668 697 668 697 689 683 c 0,80,81
 730 664 730 664 769.5 651.5 c 128,-1,82
 809 639 809 639 859 639 c 0,83,84
 922 639 922 639 965.5 660 c 128,-1,85
 1009 681 1009 681 1038 710 c 1,86,-1
 1038 998 l 1,87,-1
 810 998 l 1,88,-1
 810 1118 l 1,89,-1
 1383 1118 l 1,90,91
 1384 1126 1384 1126 1384.5 1133.5 c 128,-1,92
 1385 1141 1385 1141 1385 1148 c 0,93,94
 1385 1202 1385 1202 1360 1231.5 c 128,-1,95
 1335 1261 1335 1261 1294 1276 c 128,-1,96
 1253 1291 1253 1291 1200.5 1297 c 128,-1,97
 1148 1303 1148 1303 1093.5 1309.5 c 128,-1,98
 1039 1316 1039 1316 986.5 1327.5 c 128,-1,99
 934 1339 934 1339 893 1365.5 c 128,-1,100
 852 1392 852 1392 827 1438.5 c 128,-1,101
 802 1485 802 1485 802 1562 c 0,102,103
 802 1585 802 1585 804.5 1610 c 128,-1,104
 807 1635 807 1635 812 1664 c 1,105,-1
 932 1632 l 1,106,107
 927 1612 927 1612 925.5 1594.5 c 128,-1,108
 924 1577 924 1577 924 1561 c 0,109,110
 924 1506 924 1506 946.5 1475.5 c 128,-1,111
 969 1445 969 1445 1005.5 1430 c 128,-1,112
 1042 1415 1042 1415 1089 1410 c 128,-1,113
 1136 1405 1136 1405 1185.5 1400.5 c 128,-1,114
 1235 1396 1235 1396 1282 1386.5 c 128,-1,115
 1329 1377 1329 1377 1365.5 1353.5 c 128,-1,116
 1402 1330 1402 1330 1424.5 1287.5 c 128,-1,117
 1447 1245 1447 1245 1447 1173 c 0,118,119
 1447 1148 1447 1148 1444 1118 c 1,120,-1
 1698 1118 l 1,0,-1
EndSplineSet
EndChar

StartChar: mu
Encoding: 181 181 118
Width: 1678
Flags: W
LayerCount: 2
Fore
SplineSet
1358 1118 m 1,0,-1
 1112 1504 l 2,1,2
 1096 1530 1096 1530 1066 1542 c 128,-1,3
 1036 1554 1036 1554 982 1554 c 2,4,-1
 881 1554 l 1,5,-1
 881 1664 l 1,6,-1
 1072 1664 l 2,7,8
 1102 1664 1102 1664 1129.5 1654 c 128,-1,9
 1157 1644 1157 1644 1175 1612 c 2,10,-1
 1457 1118 l 1,11,-1
 1698 1118 l 1,12,-1
 1698 998 l 1,13,-1
 1478 998 l 1,14,-1
 1478 0 l 1,15,-1
 1358 0 l 1,16,-1
 1358 998 l 1,17,-1
 1158 998 l 1,18,-1
 1158 0 l 1,19,-1
 1038 0 l 1,20,-1
 1038 589 l 1,21,22
 1000 560 1000 560 955 546.5 c 128,-1,23
 910 533 910 533 871 533 c 0,24,25
 850 533 850 533 831 536 c 128,-1,26
 812 539 812 539 793 544 c 1,27,28
 810 490 810 490 810 420 c 0,29,30
 810 365 810 365 790.5 311.5 c 128,-1,31
 771 258 771 258 732.5 215.5 c 128,-1,32
 694 173 694 173 636 146.5 c 128,-1,33
 578 120 578 120 500 120 c 0,34,35
 431 120 431 120 371 141.5 c 128,-1,36
 311 163 311 163 260.5 199.5 c 128,-1,37
 210 236 210 236 169 283.5 c 128,-1,38
 128 331 128 331 96 382 c 128,-1,39
 64 433 64 433 42 484 c 128,-1,40
 20 535 20 535 7 580 c 1,41,-1
 104 639 l 1,42,43
 137 551 137 551 178 478 c 128,-1,44
 219 405 219 405 268 352 c 128,-1,45
 317 299 317 299 375 269.5 c 128,-1,46
 433 240 433 240 501 240 c 0,47,48
 549 240 549 240 584.5 257 c 128,-1,49
 620 274 620 274 643.5 302 c 128,-1,50
 667 330 667 330 678.5 365 c 128,-1,51
 690 400 690 400 690 435 c 0,52,53
 690 495 690 495 667.5 535 c 128,-1,54
 645 575 645 575 609 599.5 c 128,-1,55
 573 624 573 624 527 634.5 c 128,-1,56
 481 645 481 645 435 645 c 0,57,58
 398 645 398 645 362 639 c 1,59,-1
 336 739 l 1,60,61
 371 742 371 742 412 753 c 128,-1,62
 453 764 453 764 488 783.5 c 128,-1,63
 523 803 523 803 546.5 832 c 128,-1,64
 570 861 570 861 570 900 c 0,65,66
 570 933 570 933 557 955.5 c 128,-1,67
 544 978 544 978 525 992 c 128,-1,68
 506 1006 506 1006 485.5 1012 c 128,-1,69
 465 1018 465 1018 450 1018 c 0,70,71
 430 1018 430 1018 407 1014.5 c 128,-1,72
 384 1011 384 1011 360 997.5 c 128,-1,73
 336 984 336 984 311.5 958.5 c 128,-1,74
 287 933 287 933 264 890 c 1,75,-1
 158 939 l 1,76,77
 172 969 172 969 196 1003.5 c 128,-1,78
 220 1038 220 1038 255.5 1068 c 128,-1,79
 291 1098 291 1098 338 1118 c 128,-1,80
 385 1138 385 1138 445 1138 c 0,81,82
 492 1138 492 1138 536.5 1123 c 128,-1,83
 581 1108 581 1108 615 1078 c 128,-1,84
 649 1048 649 1048 669.5 1003.5 c 128,-1,85
 690 959 690 959 690 901 c 0,86,87
 690 841 690 841 666 797.5 c 128,-1,88
 642 754 642 754 598 722 c 1,89,90
 622 716 622 716 645 706.5 c 128,-1,91
 668 697 668 697 689 683 c 0,92,93
 730 664 730 664 769.5 651.5 c 128,-1,94
 809 639 809 639 859 639 c 0,95,96
 922 639 922 639 965.5 660 c 128,-1,97
 1009 681 1009 681 1038 710 c 1,98,-1
 1038 998 l 1,99,-1
 810 998 l 1,100,-1
 810 1118 l 1,101,-1
 1358 1118 l 1,0,-1
EndSplineSet
EndChar

StartChar: paragraph
Encoding: 182 182 119
Width: 1021
Flags: W
LayerCount: 2
Fore
SplineSet
922 871 m 5,0,1
 909 943 909 943 879 1009.5 c 132,-1,2
 849 1076 849 1076 798.5 1126 c 132,-1,3
 748 1176 748 1176 676 1206 c 132,-1,4
 604 1236 604 1236 508 1236 c 4,5,6
 419 1236 419 1236 348.5 1212 c 132,-1,7
 278 1188 278 1188 228.5 1145.5 c 132,-1,8
 179 1103 179 1103 152.5 1044.5 c 132,-1,9
 126 986 126 986 126 918 c 4,10,11
 126 877 126 877 138.5 839 c 132,-1,12
 151 801 151 801 174 766.5 c 132,-1,13
 197 732 197 732 229 702.5 c 132,-1,14
 261 673 261 673 300 651 c 5,15,16
 252 630 252 630 210 600 c 132,-1,17
 168 570 168 570 136.5 531.5 c 132,-1,18
 105 493 105 493 87 445 c 132,-1,19
 69 397 69 397 69 340 c 4,20,21
 69 252 69 252 103.5 185 c 132,-1,22
 138 118 138 118 196.5 73 c 132,-1,23
 255 28 255 28 332 5 c 132,-1,24
 409 -18 409 -18 495 -18 c 4,25,26
 587 -18 587 -18 663 8.5 c 132,-1,27
 739 35 739 35 797.5 85.5 c 132,-1,28
 856 136 856 136 896.5 209.5 c 132,-1,29
 937 283 937 283 957 376 c 5,30,-1
 761 376 l 5,31,32
 747 299 747 299 718 247 c 132,-1,33
 689 195 689 195 652.5 164 c 132,-1,34
 616 133 616 133 575 120 c 132,-1,35
 534 107 534 107 495 107 c 4,36,37
 453 107 453 107 411 123.5 c 132,-1,38
 369 140 369 140 335.5 170.5 c 132,-1,39
 302 201 302 201 281.5 244 c 132,-1,40
 261 287 261 287 261 340 c 4,41,42
 261 391 261 391 278 435 c 132,-1,43
 295 479 295 479 327.5 512 c 132,-1,44
 360 545 360 545 405.5 564 c 132,-1,45
 451 583 451 583 508 583 c 6,46,-1
 616 583 l 5,47,-1
 616 718 l 5,48,-1
 508 718 l 6,49,50
 455 718 455 718 418.5 734.5 c 132,-1,51
 382 751 382 751 359.5 777.5 c 132,-1,52
 337 804 337 804 327 838 c 132,-1,53
 317 872 317 872 317 907 c 4,54,55
 317 1003 317 1003 368.5 1057.5 c 132,-1,56
 420 1112 420 1112 508 1112 c 4,57,58
 557 1112 557 1112 595.5 1091 c 132,-1,59
 634 1070 634 1070 661.5 1036 c 132,-1,60
 689 1002 689 1002 706 959 c 132,-1,61
 723 916 723 916 728 871 c 5,62,-1
 922 871 l 5,0,1
EndSplineSet
EndChar

StartChar: periodcentered
Encoding: 183 183 120
Width: 1368
Flags: W
LayerCount: 2
Fore
SplineSet
1388 998 m 1,0,-1
 704 998 l 1,1,-1
 704 714 l 1,2,3
 728 742 728 742 756 760.5 c 128,-1,4
 784 779 784 779 812.5 790 c 128,-1,5
 841 801 841 801 869.5 805.5 c 128,-1,6
 898 810 898 810 923 810 c 0,7,8
 996 810 996 810 1046.5 782.5 c 128,-1,9
 1097 755 1097 755 1128.5 714.5 c 128,-1,10
 1160 674 1160 674 1174 627.5 c 128,-1,11
 1188 581 1188 581 1188 542 c 0,12,13
 1188 473 1188 473 1164.5 420 c 128,-1,14
 1141 367 1141 367 1106 328 c 128,-1,15
 1071 289 1071 289 1031.5 263.5 c 128,-1,16
 992 238 992 238 961 224 c 1,17,-1
 900 315 l 1,18,19
 947 340 947 340 979.5 366.5 c 128,-1,20
 1012 393 1012 393 1031.5 421.5 c 128,-1,21
 1051 450 1051 450 1059.5 481.5 c 128,-1,22
 1068 513 1068 513 1068 548 c 0,23,24
 1068 580 1068 580 1057 606.5 c 128,-1,25
 1046 633 1046 633 1026.5 651.5 c 128,-1,26
 1007 670 1007 670 980.5 680 c 128,-1,27
 954 690 954 690 923 690 c 0,28,29
 858 690 858 690 800 648 c 128,-1,30
 742 606 742 606 704 537 c 1,31,-1
 704 0 l 1,32,-1
 584 0 l 1,33,-1
 584 367 l 1,34,35
 565 338 565 338 538 315.5 c 128,-1,36
 511 293 511 293 481.5 277.5 c 128,-1,37
 452 262 452 262 421.5 254 c 128,-1,38
 391 246 391 246 364 246 c 0,39,40
 303 246 303 246 248 266 c 128,-1,41
 193 286 193 286 151 323.5 c 128,-1,42
 109 361 109 361 84.5 415.5 c 128,-1,43
 60 470 60 470 60 538 c 0,44,45
 60 597 60 597 84.5 647 c 128,-1,46
 109 697 109 697 148.5 733 c 128,-1,47
 188 769 188 769 237.5 789.5 c 128,-1,48
 287 810 287 810 337 810 c 0,49,50
 386 810 386 810 427.5 799 c 128,-1,51
 469 788 469 788 501 773 c 128,-1,52
 533 758 533 758 554 743.5 c 128,-1,53
 575 729 575 729 584 723 c 1,54,-1
 584 998 l 1,55,-1
 0 998 l 1,56,-1
 0 1118 l 1,57,-1
 1388 1118 l 1,58,-1
 1388 998 l 1,0,-1
584 608 m 1,59,60
 566 621 566 621 542 635.5 c 128,-1,61
 518 650 518 650 489 662 c 128,-1,62
 460 674 460 674 427 682 c 128,-1,63
 394 690 394 690 358 690 c 0,64,65
 317 690 317 690 284 677 c 128,-1,66
 251 664 251 664 228 642 c 128,-1,67
 205 620 205 620 192.5 590.5 c 128,-1,68
 180 561 180 561 180 528 c 0,69,70
 180 483 180 483 197.5 452.5 c 128,-1,71
 215 422 215 422 240 402.5 c 128,-1,72
 265 383 265 383 293 374.5 c 128,-1,73
 321 366 321 366 342 366 c 0,74,75
 375 366 375 366 405 374.5 c 128,-1,76
 435 383 435 383 464.5 402 c 128,-1,77
 494 421 494 421 523 450.5 c 128,-1,78
 552 480 552 480 584 522 c 1,79,-1
 584 608 l 1,59,60
EndSplineSet
EndChar

StartChar: cedilla
Encoding: 184 184 121
Width: 1402
Flags: W
LayerCount: 2
Fore
SplineSet
1082 610 m 1,0,-1
 1082 679 l 1,1,2
 1070 691 1070 691 1051 707 c 128,-1,3
 1032 723 1032 723 1005.5 737.5 c 128,-1,4
 979 752 979 752 945 762 c 128,-1,5
 911 772 911 772 870 772 c 0,6,7
 856 772 856 772 831.5 767 c 128,-1,8
 807 762 807 762 783 747 c 128,-1,9
 759 732 759 732 741.5 705 c 128,-1,10
 724 678 724 678 724 633 c 0,11,12
 724 600 724 600 735 574 c 128,-1,13
 746 548 746 548 765.5 530 c 128,-1,14
 785 512 785 512 811.5 502.5 c 128,-1,15
 838 493 838 493 869 493 c 0,16,17
 896 493 896 493 925 499.5 c 128,-1,18
 954 506 954 506 982.5 520 c 128,-1,19
 1011 534 1011 534 1036.5 556 c 128,-1,20
 1062 578 1062 578 1082 610 c 1,0,-1
1082 804 m 1,21,-1
 1082 998 l 1,22,-1
 487 998 l 1,23,-1
 487 676 l 2,24,25
 487 641 487 641 476 599.5 c 128,-1,26
 465 558 465 558 443.5 522 c 128,-1,27
 422 486 422 486 389 462 c 128,-1,28
 356 438 356 438 311 438 c 0,29,30
 283 438 283 438 254 448 c 1,31,32
 276 394 276 394 314 336 c 128,-1,33
 352 278 352 278 406 230 c 128,-1,34
 460 182 460 182 530 151 c 128,-1,35
 600 120 600 120 685 120 c 0,36,37
 757 120 757 120 815 143 c 128,-1,38
 873 166 873 166 921 204.5 c 128,-1,39
 969 243 969 243 1008.5 293 c 128,-1,40
 1048 343 1048 343 1082 397 c 1,41,-1
 1082 470 l 1,42,43
 1058 446 1058 446 1034.5 428 c 128,-1,44
 1011 410 1011 410 985.5 398 c 128,-1,45
 960 386 960 386 931.5 379.5 c 128,-1,46
 903 373 903 373 869 373 c 0,47,48
 810 373 810 373 761.5 392 c 128,-1,49
 713 411 713 411 678 446.5 c 128,-1,50
 643 482 643 482 623.5 531.5 c 128,-1,51
 604 581 604 581 604 641 c 0,52,53
 604 706 604 706 629.5 753.5 c 128,-1,54
 655 801 655 801 694.5 831.5 c 128,-1,55
 734 862 734 862 780.5 877 c 128,-1,56
 827 892 827 892 869 892 c 0,57,58
 904 892 904 892 936 883.5 c 128,-1,59
 968 875 968 875 995.5 862 c 128,-1,60
 1023 849 1023 849 1045 833.5 c 128,-1,61
 1067 818 1067 818 1082 804 c 1,21,-1
160 689 m 1,62,63
 162 672 162 672 168.5 648 c 128,-1,64
 175 624 175 624 187 601.5 c 128,-1,65
 199 579 199 579 217 563 c 128,-1,66
 235 547 235 547 261 547 c 0,67,68
 294 547 294 547 315 565 c 128,-1,69
 336 583 336 583 347.5 609.5 c 128,-1,70
 359 636 359 636 363 665 c 128,-1,71
 367 694 367 694 367 717 c 2,72,-1
 367 998 l 1,73,-1
 0 998 l 1,74,-1
 0 1118 l 1,75,-1
 1422 1118 l 1,76,-1
 1422 998 l 1,77,-1
 1202 998 l 1,78,-1
 1202 0 l 1,79,-1
 1082 0 l 1,80,-1
 1082 223 l 1,81,82
 1045 166 1045 166 998.5 124 c 128,-1,83
 952 82 952 82 900.5 54.5 c 128,-1,84
 849 27 849 27 795 13.5 c 128,-1,85
 741 0 741 0 688 0 c 0,86,87
 593 0 593 0 513.5 31.5 c 128,-1,88
 434 63 434 63 369 115 c 128,-1,89
 304 167 304 167 253 234.5 c 128,-1,90
 202 302 202 302 163.5 375 c 128,-1,91
 125 448 125 448 98 521 c 128,-1,92
 71 594 71 594 54 656 c 1,93,-1
 160 689 l 1,62,63
EndSplineSet
EndChar

StartChar: uni00B9
Encoding: 185 185 122
Width: 1053
Flags: W
LayerCount: 2
Fore
SplineSet
1073 998 m 1,0,-1
 853 998 l 1,1,-1
 853 0 l 1,2,-1
 733 0 l 1,3,-1
 733 998 l 1,4,-1
 376 998 l 1,5,-1
 376 363 l 2,6,7
 376 342 376 342 373 324 c 128,-1,8
 370 306 370 306 361 292.5 c 128,-1,9
 352 279 352 279 336.5 271.5 c 128,-1,10
 321 264 321 264 296 264 c 0,11,12
 254 264 254 264 212 292 c 128,-1,13
 170 320 170 320 136.5 362 c 128,-1,14
 103 404 103 404 81.5 453.5 c 128,-1,15
 60 503 60 503 60 545 c 0,16,17
 60 570 60 570 68 586 c 128,-1,18
 76 602 76 602 89 611 c 128,-1,19
 102 620 102 620 118.5 623 c 128,-1,20
 135 626 135 626 152 626 c 2,21,-1
 209 626 l 2,22,23
 230 626 230 626 243 638.5 c 128,-1,24
 256 651 256 651 256 678 c 2,25,-1
 256 998 l 1,26,-1
 0 998 l 1,27,-1
 0 1118 l 1,28,-1
 1073 1118 l 1,29,-1
 1073 998 l 1,0,-1
EndSplineSet
EndChar

StartChar: ordmasculine
Encoding: 186 186 123
Width: 1101
Flags: W
LayerCount: 2
Fore
SplineSet
1121 998 m 1,0,-1
 901 998 l 1,1,-1
 901 0 l 1,2,-1
 781 0 l 1,3,-1
 781 416 l 1,4,5
 761 398 761 398 726.5 375 c 128,-1,6
 692 352 692 352 647.5 331.5 c 128,-1,7
 603 311 603 311 551 297 c 128,-1,8
 499 283 499 283 444 283 c 256,9,10
 389 283 389 283 329.5 300 c 128,-1,11
 270 317 270 317 220.5 353 c 128,-1,12
 171 389 171 389 139 445.5 c 128,-1,13
 107 502 107 502 107 581 c 0,14,15
 107 600 107 600 113.5 619 c 128,-1,16
 120 638 120 638 131.5 654.5 c 128,-1,17
 143 671 143 671 158.5 684 c 128,-1,18
 174 697 174 697 191 705 c 1,19,20
 153 720 153 720 128 741 c 128,-1,21
 103 762 103 762 88 785 c 128,-1,22
 73 808 73 808 66.5 832 c 128,-1,23
 60 856 60 856 60 879 c 0,24,25
 60 918 60 918 81 949.5 c 128,-1,26
 102 981 102 981 125 998 c 1,27,-1
 0 998 l 1,28,-1
 0 1118 l 1,29,-1
 1121 1118 l 1,30,-1
 1121 998 l 1,0,-1
781 998 m 1,31,-1
 306 998 l 2,32,33
 289 998 289 998 267 991 c 128,-1,34
 245 984 245 984 225.5 969.5 c 128,-1,35
 206 955 206 955 193 933.5 c 128,-1,36
 180 912 180 912 180 883 c 0,37,38
 180 852 180 852 196.5 829.5 c 128,-1,39
 213 807 213 807 236.5 792.5 c 128,-1,40
 260 778 260 778 287 771 c 128,-1,41
 314 764 314 764 335 764 c 2,42,-1
 480 764 l 1,43,-1
 480 644 l 1,44,-1
 330 644 l 2,45,46
 315 644 315 644 298.5 639 c 128,-1,47
 282 634 282 634 267.5 623 c 128,-1,48
 253 612 253 612 244 595.5 c 128,-1,49
 235 579 235 579 235 557 c 0,50,51
 235 526 235 526 250 498 c 128,-1,52
 265 470 265 470 292 449 c 128,-1,53
 319 428 319 428 357.5 415.5 c 128,-1,54
 396 403 396 403 443 403 c 0,55,56
 493 403 493 403 539.5 417 c 128,-1,57
 586 431 586 431 628.5 455.5 c 128,-1,58
 671 480 671 480 709 513 c 128,-1,59
 747 546 747 546 781 584 c 1,60,-1
 781 998 l 1,31,-1
EndSplineSet
EndChar

StartChar: guillemotright
Encoding: 187 187 124
Width: 1158
Flags: W
LayerCount: 2
Fore
SplineSet
964 685 m 256,0,1
 964 722 964 722 990.5 747.5 c 128,-1,2
 1017 773 1017 773 1054 773 c 256,3,4
 1091 773 1091 773 1117 747.5 c 128,-1,5
 1143 722 1143 722 1143 685 c 256,6,7
 1143 648 1143 648 1117 622.5 c 128,-1,8
 1091 597 1091 597 1054 597 c 256,9,10
 1017 597 1017 597 990.5 622.5 c 128,-1,11
 964 648 964 648 964 685 c 256,0,1
838 998 m 1,12,-1
 0 998 l 1,13,-1
 0 1118 l 1,14,-1
 1188 1118 l 1,15,-1
 1188 998 l 1,16,-1
 958 998 l 1,17,-1
 958 781 l 1,18,-1
 510 781 l 2,19,20
 501 781 501 781 484 780 c 128,-1,21
 467 779 467 779 451 772.5 c 128,-1,22
 435 766 435 766 423 752.5 c 128,-1,23
 411 739 411 739 411 714 c 0,24,25
 411 691 411 691 418 668.5 c 128,-1,26
 425 646 425 646 440.5 629 c 128,-1,27
 456 612 456 612 480 601.5 c 128,-1,28
 504 591 504 591 538 591 c 0,29,30
 562 591 562 591 601.5 597.5 c 128,-1,31
 641 604 641 604 683 612 c 128,-1,32
 725 620 725 620 763 626.5 c 128,-1,33
 801 633 801 633 822 633 c 0,34,35
 915 633 915 633 960 582 c 128,-1,36
 1005 531 1005 531 1005 437 c 0,37,38
 1005 368 1005 368 977.5 301 c 128,-1,39
 950 234 950 234 899.5 181.5 c 128,-1,40
 849 129 849 129 779 96.5 c 128,-1,41
 709 64 709 64 624 64 c 0,42,43
 531 64 531 64 450.5 96.5 c 128,-1,44
 370 129 370 129 300 190.5 c 128,-1,45
 230 252 230 252 170.5 339 c 128,-1,46
 111 426 111 426 60 536 c 1,47,-1
 138 587 l 1,48,49
 198 455 198 455 263 372 c 128,-1,50
 328 289 328 289 391.5 243 c 128,-1,51
 455 197 455 197 514.5 180.5 c 128,-1,52
 574 164 574 164 622 164 c 0,53,54
 680 164 680 164 728 186 c 128,-1,55
 776 208 776 208 811 245.5 c 128,-1,56
 846 283 846 283 865.5 332.5 c 128,-1,57
 885 382 885 382 885 437 c 0,58,59
 885 475 885 475 869 497 c 128,-1,60
 853 519 853 519 821 519 c 0,61,62
 787 519 787 519 752.5 513.5 c 128,-1,63
 718 508 718 508 683 502 c 128,-1,64
 648 496 648 496 611.5 490.5 c 128,-1,65
 575 485 575 485 538 485 c 0,66,67
 474 485 474 485 427.5 506.5 c 128,-1,68
 381 528 381 528 350.5 561.5 c 128,-1,69
 320 595 320 595 305.5 637.5 c 128,-1,70
 291 680 291 680 291 722 c 0,71,72
 291 771 291 771 311.5 802 c 128,-1,73
 332 833 332 833 363.5 850.5 c 128,-1,74
 395 868 395 868 434 874.5 c 128,-1,75
 473 881 473 881 510 881 c 2,76,-1
 838 881 l 1,77,-1
 838 998 l 1,12,-1
EndSplineSet
EndChar

StartChar: questiondown
Encoding: 191 191 125
Width: 1330
Flags: W
LayerCount: 2
Fore
SplineSet
808 476 m 1,0,1
 809 467 809 467 809.5 457.5 c 128,-1,2
 810 448 810 448 810 437 c 0,3,4
 810 398 810 398 793.5 359.5 c 128,-1,5
 777 321 777 321 748.5 285 c 128,-1,6
 720 249 720 249 681 216.5 c 128,-1,7
 642 184 642 184 597 157 c 1,8,9
 633 112 633 112 665.5 63 c 128,-1,10
 698 14 698 14 724 -40 c 1,11,-1
 660 -90 l 1,12,13
 626 -30 626 -30 588.5 20.5 c 128,-1,14
 551 71 551 71 512 113 c 1,15,16
 458 90 458 90 402.5 77 c 128,-1,17
 347 64 347 64 296 64 c 0,18,19
 232 64 232 64 187 78.5 c 128,-1,20
 142 93 142 93 114 117 c 128,-1,21
 86 141 86 141 73 173 c 128,-1,22
 60 205 60 205 60 240 c 0,23,24
 60 277 60 277 76 303.5 c 128,-1,25
 92 330 92 330 117 346.5 c 128,-1,26
 142 363 142 363 172.5 370.5 c 128,-1,27
 203 378 203 378 232 378 c 0,28,29
 302 378 302 378 375.5 341 c 128,-1,30
 449 304 449 304 518 240 c 1,31,32
 553 260 553 260 584.5 283.5 c 128,-1,33
 616 307 616 307 639.5 332.5 c 128,-1,34
 663 358 663 358 676.5 386 c 128,-1,35
 690 414 690 414 690 443 c 0,36,37
 690 519 690 519 626 519 c 0,38,39
 592 519 592 519 557.5 513.5 c 128,-1,40
 523 508 523 508 488 502 c 128,-1,41
 453 496 453 496 416.5 490.5 c 128,-1,42
 380 485 380 485 343 485 c 0,43,44
 279 485 279 485 232.5 506.5 c 128,-1,45
 186 528 186 528 155.5 561.5 c 128,-1,46
 125 595 125 595 110.5 637.5 c 128,-1,47
 96 680 96 680 96 722 c 0,48,49
 96 771 96 771 116.5 802 c 128,-1,50
 137 833 137 833 168.5 850.5 c 128,-1,51
 200 868 200 868 239 874.5 c 128,-1,52
 278 881 278 881 315 881 c 2,53,-1
 643 881 l 1,54,-1
 643 998 l 1,55,-1
 0 998 l 1,56,-1
 0 1118 l 1,57,-1
 1350 1118 l 1,58,-1
 1350 998 l 1,59,-1
 1130 998 l 1,60,-1
 1130 0 l 1,61,-1
 1010 0 l 1,62,-1
 1010 513 l 1,63,64
 970 490 970 490 937 478.5 c 128,-1,65
 904 467 904 467 869 467 c 0,66,67
 855 467 855 467 840 469.5 c 128,-1,68
 825 472 825 472 808 476 c 1,0,1
726 611 m 0,69,70
 767 595 767 595 799.5 588 c 128,-1,71
 832 581 832 581 861 581 c 0,72,73
 902 581 902 581 937 594.5 c 128,-1,74
 972 608 972 608 1010 633 c 1,75,-1
 1010 998 l 1,76,-1
 763 998 l 1,77,-1
 763 781 l 1,78,-1
 315 781 l 2,79,80
 306 781 306 781 289 780 c 128,-1,81
 272 779 272 779 256 772.5 c 128,-1,82
 240 766 240 766 228 752.5 c 128,-1,83
 216 739 216 739 216 714 c 0,84,85
 216 691 216 691 223 668.5 c 128,-1,86
 230 646 230 646 245.5 629 c 128,-1,87
 261 612 261 612 285 601.5 c 128,-1,88
 309 591 309 591 343 591 c 0,89,90
 367 591 367 591 406.5 597.5 c 128,-1,91
 446 604 446 604 488 612 c 128,-1,92
 530 620 530 620 568 626.5 c 128,-1,93
 606 633 606 633 627 633 c 0,94,95
 657 633 657 633 681.5 627.5 c 128,-1,96
 706 622 706 622 726 611 c 0,69,70
226 278 m 0,97,98
 200 278 200 278 179.5 267.5 c 128,-1,99
 159 257 159 257 159 234 c 0,100,101
 159 209 159 209 185.5 186.5 c 128,-1,102
 212 164 212 164 266 164 c 0,103,104
 299 164 299 164 339.5 172.5 c 128,-1,105
 380 181 380 181 422 197 c 1,106,107
 371 236 371 236 321.5 257 c 128,-1,108
 272 278 272 278 226 278 c 0,97,98
EndSplineSet
EndChar

StartChar: Agrave
Encoding: 192 192 126
Width: 1224
Flags: W
LayerCount: 2
Fore
SplineSet
421 246 m 0,0,1
 315 246 315 246 221.5 291 c 128,-1,2
 128 336 128 336 46 411 c 1,3,-1
 107 490 l 1,4,5
 132 468 132 468 164 446 c 128,-1,6
 196 424 196 424 233 406 c 128,-1,7
 270 388 270 388 311 377 c 128,-1,8
 352 366 352 366 397 366 c 0,9,10
 445 366 445 366 482 382.5 c 128,-1,11
 519 399 519 399 544 427.5 c 128,-1,12
 569 456 569 456 582 495 c 128,-1,13
 595 534 595 534 595 579 c 0,14,15
 595 622 595 622 577.5 657 c 128,-1,16
 560 692 560 692 532.5 717.5 c 128,-1,17
 505 743 505 743 472 757 c 128,-1,18
 439 771 439 771 408 771 c 0,19,20
 376 771 376 771 349.5 766 c 128,-1,21
 323 761 323 761 298 749 c 128,-1,22
 273 737 273 737 247.5 716 c 128,-1,23
 222 695 222 695 194 663 c 1,24,-1
 116 737 l 1,25,26
 166 801 166 801 236.5 839 c 128,-1,27
 307 877 307 877 389 877 c 0,28,29
 458 877 458 877 515 855 c 128,-1,30
 572 833 572 833 614.5 794 c 128,-1,31
 657 755 657 755 683 701.5 c 128,-1,32
 709 648 709 648 714 585 c 1,33,34
 726 583 726 583 737 582 c 128,-1,35
 748 581 748 581 759 581 c 0,36,37
 804 581 804 581 838.5 594.5 c 128,-1,38
 873 608 873 608 904 633 c 1,39,-1
 904 998 l 1,40,-1
 0 998 l 1,41,-1
 0 1118 l 1,42,-1
 1244 1118 l 1,43,-1
 1244 998 l 1,44,-1
 1024 998 l 1,45,-1
 1024 0 l 1,46,-1
 904 0 l 1,47,-1
 904 513 l 1,48,49
 874 491 874 491 841 479 c 128,-1,50
 808 467 808 467 773 467 c 0,51,52
 739 467 739 467 705 475 c 1,53,54
 694 430 694 430 670.5 389 c 128,-1,55
 647 348 647 348 611.5 316 c 128,-1,56
 576 284 576 284 528.5 265 c 128,-1,57
 481 246 481 246 421 246 c 0,0,1
EndSplineSet
EndChar

StartChar: Aacute
Encoding: 193 193 127
Width: 1124
Flags: W
LayerCount: 2
Fore
SplineSet
963 359 m 1,0,1
 927 284 927 284 880.5 224 c 128,-1,2
 834 164 834 164 778.5 123 c 128,-1,3
 723 82 723 82 658.5 60 c 128,-1,4
 594 38 594 38 521 38 c 0,5,6
 441 38 441 38 359 65 c 128,-1,7
 277 92 277 92 210.5 144 c 128,-1,8
 144 196 144 196 102 272 c 128,-1,9
 60 348 60 348 60 447 c 0,10,11
 60 521 60 521 92 591.5 c 128,-1,12
 124 662 124 662 187.5 717 c 128,-1,13
 251 772 251 772 345.5 805.5 c 128,-1,14
 440 839 440 839 565 839 c 1,15,-1
 565 998 l 1,16,-1
 0 998 l 1,17,-1
 0 1118 l 1,18,-1
 1144 1118 l 1,19,-1
 1144 998 l 1,20,-1
 685 998 l 1,21,-1
 685 719 l 1,22,-1
 565 719 l 2,23,24
 477 719 477 719 406 699.5 c 128,-1,25
 335 680 335 680 284.5 644.5 c 128,-1,26
 234 609 234 609 207 558.5 c 128,-1,27
 180 508 180 508 180 447 c 0,28,29
 180 379 180 379 211 325 c 128,-1,30
 242 271 242 271 290.5 234 c 128,-1,31
 339 197 339 197 398.5 177.5 c 128,-1,32
 458 158 458 158 514 158 c 0,33,34
 582 158 582 158 636.5 181 c 128,-1,35
 691 204 691 204 734.5 240.5 c 128,-1,36
 778 277 778 277 811.5 323 c 128,-1,37
 845 369 845 369 869 416 c 1,38,-1
 963 359 l 1,0,1
EndSplineSet
EndChar

StartChar: Acircumflex
Encoding: 194 194 128
Width: 1124
Flags: W
LayerCount: 2
Fore
SplineSet
639 708 m 1,0,1
 705 686 705 686 757.5 651 c 128,-1,2
 810 616 810 616 847 573 c 128,-1,3
 884 530 884 530 904 481.5 c 128,-1,4
 924 433 924 433 924 384 c 0,5,6
 924 305 924 305 888.5 241 c 128,-1,7
 853 177 853 177 795 132 c 128,-1,8
 737 87 737 87 664 62.5 c 128,-1,9
 591 38 591 38 516 38 c 0,10,11
 436 38 436 38 354.5 65 c 128,-1,12
 273 92 273 92 207.5 144 c 128,-1,13
 142 196 142 196 101 272 c 128,-1,14
 60 348 60 348 60 447 c 0,15,16
 60 521 60 521 92 591.5 c 128,-1,17
 124 662 124 662 187.5 717 c 128,-1,18
 251 772 251 772 345.5 805.5 c 128,-1,19
 440 839 440 839 565 839 c 1,20,-1
 565 998 l 1,21,-1
 0 998 l 1,22,-1
 0 1118 l 1,23,-1
 1144 1118 l 1,24,-1
 1144 998 l 1,25,-1
 685 998 l 1,26,-1
 685 719 l 1,27,-1
 565 719 l 2,28,29
 477 719 477 719 406 699.5 c 128,-1,30
 335 680 335 680 284.5 644.5 c 128,-1,31
 234 609 234 609 207 558.5 c 128,-1,32
 180 508 180 508 180 447 c 0,33,34
 180 379 180 379 210.5 325 c 128,-1,35
 241 271 241 271 289 234 c 128,-1,36
 337 197 337 197 395.5 177.5 c 128,-1,37
 454 158 454 158 510 158 c 0,38,39
 576 158 576 158 630.5 178 c 128,-1,40
 685 198 685 198 723.5 231 c 128,-1,41
 762 264 762 264 783 306.5 c 128,-1,42
 804 349 804 349 804 395 c 0,43,44
 804 415 804 415 798.5 443.5 c 128,-1,45
 793 472 793 472 772.5 502.5 c 128,-1,46
 752 533 752 533 712.5 562 c 128,-1,47
 673 591 673 591 605 612 c 1,48,-1
 639 708 l 1,0,1
EndSplineSet
EndChar

StartChar: Atilde
Encoding: 195 195 129
Width: 1158
Flags: W
LayerCount: 2
Fore
SplineSet
838 998 m 1,0,-1
 0 998 l 1,1,-1
 0 1118 l 1,2,-1
 1178 1118 l 1,3,-1
 1178 998 l 1,4,-1
 958 998 l 1,5,-1
 958 781 l 1,6,-1
 510 781 l 2,7,8
 501 781 501 781 484 780 c 128,-1,9
 467 779 467 779 451 772.5 c 128,-1,10
 435 766 435 766 423 752.5 c 128,-1,11
 411 739 411 739 411 714 c 0,12,13
 411 691 411 691 418 668.5 c 128,-1,14
 425 646 425 646 440.5 629 c 128,-1,15
 456 612 456 612 480 601.5 c 128,-1,16
 504 591 504 591 538 591 c 0,17,18
 562 591 562 591 601.5 597.5 c 128,-1,19
 641 604 641 604 683 612 c 128,-1,20
 725 620 725 620 763 626.5 c 128,-1,21
 801 633 801 633 822 633 c 0,22,23
 915 633 915 633 960 582 c 128,-1,24
 1005 531 1005 531 1005 437 c 0,25,26
 1005 368 1005 368 977.5 301 c 128,-1,27
 950 234 950 234 899.5 181.5 c 128,-1,28
 849 129 849 129 779 96.5 c 128,-1,29
 709 64 709 64 624 64 c 0,30,31
 531 64 531 64 450.5 96.5 c 128,-1,32
 370 129 370 129 300 190.5 c 128,-1,33
 230 252 230 252 170.5 339 c 128,-1,34
 111 426 111 426 60 536 c 1,35,-1
 138 587 l 1,36,37
 198 455 198 455 263 372 c 128,-1,38
 328 289 328 289 391.5 243 c 128,-1,39
 455 197 455 197 514.5 180.5 c 128,-1,40
 574 164 574 164 622 164 c 0,41,42
 680 164 680 164 728 186 c 128,-1,43
 776 208 776 208 811 245.5 c 128,-1,44
 846 283 846 283 865.5 332.5 c 128,-1,45
 885 382 885 382 885 437 c 0,46,47
 885 475 885 475 869 497 c 128,-1,48
 853 519 853 519 821 519 c 0,49,50
 787 519 787 519 752.5 513.5 c 128,-1,51
 718 508 718 508 683 502 c 128,-1,52
 648 496 648 496 611.5 490.5 c 128,-1,53
 575 485 575 485 538 485 c 0,54,55
 474 485 474 485 427.5 506.5 c 128,-1,56
 381 528 381 528 350.5 561.5 c 128,-1,57
 320 595 320 595 305.5 637.5 c 128,-1,58
 291 680 291 680 291 722 c 0,59,60
 291 771 291 771 311.5 802 c 128,-1,61
 332 833 332 833 363.5 850.5 c 128,-1,62
 395 868 395 868 434 874.5 c 128,-1,63
 473 881 473 881 510 881 c 2,64,-1
 838 881 l 1,65,-1
 838 998 l 1,0,-1
EndSplineSet
EndChar

StartChar: Adieresis
Encoding: 196 196 130
Width: 1024
Flags: W
LayerCount: 2
Fore
SplineSet
684 998 m 1,0,-1
 0 998 l 1,1,-1
 0 1118 l 1,2,-1
 1044 1118 l 1,3,-1
 1044 998 l 1,4,-1
 804 998 l 1,5,-1
 804 719 l 1,6,-1
 565 719 l 2,7,8
 477 719 477 719 406 699.5 c 128,-1,9
 335 680 335 680 284.5 644.5 c 128,-1,10
 234 609 234 609 207 558.5 c 128,-1,11
 180 508 180 508 180 447 c 0,12,13
 180 379 180 379 213.5 325 c 128,-1,14
 247 271 247 271 298.5 234 c 128,-1,15
 350 197 350 197 412 177.5 c 128,-1,16
 474 158 474 158 530 158 c 0,17,18
 540 158 540 158 549.5 158.5 c 128,-1,19
 559 159 559 159 569 160 c 1,20,21
 530 197 530 197 503 246 c 128,-1,22
 476 295 476 295 476 348 c 0,23,24
 476 390 476 390 492 427 c 128,-1,25
 508 464 508 464 536.5 492 c 128,-1,26
 565 520 565 520 605 536 c 128,-1,27
 645 552 645 552 693 552 c 0,28,29
 752 552 752 552 795.5 532.5 c 128,-1,30
 839 513 839 513 867.5 482 c 128,-1,31
 896 451 896 451 910 412 c 128,-1,32
 924 373 924 373 924 334 c 0,33,34
 924 261 924 261 890 206 c 128,-1,35
 856 151 856 151 800.5 113.5 c 128,-1,36
 745 76 745 76 675 57 c 128,-1,37
 605 38 605 38 532 38 c 0,38,39
 452 38 452 38 368 65 c 128,-1,40
 284 92 284 92 215.5 144 c 128,-1,41
 147 196 147 196 103.5 272 c 128,-1,42
 60 348 60 348 60 447 c 0,43,44
 60 521 60 521 92 591.5 c 128,-1,45
 124 662 124 662 187.5 717 c 128,-1,46
 251 772 251 772 345.5 805.5 c 128,-1,47
 440 839 440 839 565 839 c 2,48,-1
 684 839 l 1,49,-1
 684 998 l 1,0,-1
576 323 m 0,50,51
 576 286 576 286 599.5 249.5 c 128,-1,52
 623 213 623 213 666 178 c 1,53,54
 726 198 726 198 765 236 c 128,-1,55
 804 274 804 274 804 330 c 0,56,57
 804 350 804 350 795.5 368.5 c 128,-1,58
 787 387 787 387 772 401 c 128,-1,59
 757 415 757 415 738 423.5 c 128,-1,60
 719 432 719 432 698 432 c 0,61,62
 664 432 664 432 640.5 421.5 c 128,-1,63
 617 411 617 411 603 395 c 128,-1,64
 589 379 589 379 582.5 359.5 c 128,-1,65
 576 340 576 340 576 323 c 0,50,51
EndSplineSet
EndChar

StartChar: Aring
Encoding: 197 197 131
Width: 1153
Flags: W
LayerCount: 2
Fore
SplineSet
1173 998 m 1,0,-1
 953 998 l 1,1,-1
 953 0 l 1,2,-1
 833 0 l 1,3,-1
 833 998 l 1,4,-1
 660 998 l 1,5,-1
 660 617 l 2,6,7
 660 542 660 542 638 483.5 c 128,-1,8
 616 425 616 425 578 384 c 128,-1,9
 540 343 540 343 487 321.5 c 128,-1,10
 434 300 434 300 373 300 c 0,11,12
 300 300 300 300 245 328.5 c 128,-1,13
 190 357 190 357 153.5 402.5 c 128,-1,14
 117 448 117 448 98.5 504.5 c 128,-1,15
 80 561 80 561 80 618 c 2,16,-1
 80 998 l 1,17,-1
 0 998 l 1,18,-1
 0 1118 l 1,19,-1
 1173 1118 l 1,20,-1
 1173 998 l 1,0,-1
540 998 m 1,21,-1
 200 998 l 1,22,-1
 200 616 l 2,23,24
 200 569 200 569 213.5 532 c 128,-1,25
 227 495 227 495 250.5 469.5 c 128,-1,26
 274 444 274 444 305.5 431 c 128,-1,27
 337 418 337 418 373 418 c 0,28,29
 408 418 408 418 438.5 428.5 c 128,-1,30
 469 439 469 439 491.5 462.5 c 128,-1,31
 514 486 514 486 527 522.5 c 128,-1,32
 540 559 540 559 540 612 c 2,33,-1
 540 998 l 1,21,-1
EndSplineSet
EndChar

StartChar: AE
Encoding: 198 198 132
Width: 975
Flags: W
LayerCount: 2
Fore
SplineSet
995 998 m 1,0,-1
 775 998 l 1,1,-1
 775 0 l 1,2,-1
 655 0 l 1,3,-1
 655 656 l 1,4,-1
 335 656 l 2,5,6
 248 656 248 656 214 634 c 128,-1,7
 180 612 180 612 180 564 c 0,8,9
 180 514 180 514 192 455 c 128,-1,10
 204 396 204 396 235.5 330.5 c 128,-1,11
 267 265 267 265 321.5 195 c 128,-1,12
 376 125 376 125 460 54 c 1,13,-1
 387 -18 l 1,14,15
 305 46 305 46 243.5 121.5 c 128,-1,16
 182 197 182 197 141.5 276.5 c 128,-1,17
 101 356 101 356 80.5 434.5 c 128,-1,18
 60 513 60 513 60 583 c 0,19,20
 60 776 60 776 316 776 c 2,21,-1
 655 776 l 1,22,-1
 655 998 l 1,23,-1
 0 998 l 1,24,-1
 0 1118 l 1,25,-1
 995 1118 l 1,26,-1
 995 998 l 1,0,-1
EndSplineSet
EndChar

StartChar: Ccedilla
Encoding: 199 199 133
Width: 1092
Flags: W
LayerCount: 2
Fore
SplineSet
86 970 m 0,0,1
 86 1009 86 1009 102 1041 c 128,-1,2
 118 1073 118 1073 146.5 1096 c 128,-1,3
 175 1119 175 1119 214.5 1131.5 c 128,-1,4
 254 1144 254 1144 301 1144 c 0,5,6
 356 1144 356 1144 401.5 1121.5 c 128,-1,7
 447 1099 447 1099 480 1061.5 c 128,-1,8
 513 1024 513 1024 531 976 c 128,-1,9
 549 928 549 928 549 877 c 0,10,11
 549 825 549 825 527.5 774 c 128,-1,12
 506 723 506 723 467.5 682.5 c 128,-1,13
 429 642 429 642 376 617 c 128,-1,14
 323 592 323 592 259 592 c 2,15,-1
 219 592 l 1,16,17
 244 548 244 548 271.5 519 c 128,-1,18
 299 490 299 490 329.5 473 c 128,-1,19
 360 456 360 456 393.5 449.5 c 128,-1,20
 427 443 427 443 463 443 c 0,21,22
 500 443 500 443 539.5 451 c 128,-1,23
 579 459 579 459 618.5 476 c 128,-1,24
 658 493 658 493 697 520 c 128,-1,25
 736 547 736 547 772 586 c 1,26,-1
 772 998 l 1,27,-1
 624 998 l 1,28,-1
 624 1118 l 1,29,-1
 1106 1118 l 1,30,-1
 1106 998 l 1,31,-1
 892 998 l 1,32,-1
 892 0 l 1,33,-1
 772 0 l 1,34,-1
 772 439 l 1,35,36
 743 409 743 409 706.5 387.5 c 128,-1,37
 670 366 670 366 630 351.5 c 128,-1,38
 590 337 590 337 549 330 c 128,-1,39
 508 323 508 323 469 323 c 0,40,41
 402 323 402 323 339 343.5 c 128,-1,42
 276 364 276 364 221.5 409.5 c 128,-1,43
 167 455 167 455 121.5 528.5 c 128,-1,44
 76 602 76 602 45 709 c 1,45,46
 71 705 71 705 104.5 702 c 128,-1,47
 138 699 138 699 173 699 c 0,48,49
 211 699 211 699 249.5 705 c 128,-1,50
 288 711 288 711 321.5 725.5 c 128,-1,51
 355 740 355 740 380.5 764 c 128,-1,52
 406 788 406 788 419 824 c 1,53,54
 386 807 386 807 353.5 799 c 128,-1,55
 321 791 321 791 290 791 c 0,56,57
 247 791 247 791 210 805 c 128,-1,58
 173 819 173 819 145.5 843 c 128,-1,59
 118 867 118 867 102 899.5 c 128,-1,60
 86 932 86 932 86 970 c 0,0,1
294 1024 m 0,61,62
 279 1024 279 1024 263 1021.5 c 128,-1,63
 247 1019 247 1019 234.5 1012 c 128,-1,64
 222 1005 222 1005 214 993 c 128,-1,65
 206 981 206 981 206 962 c 0,66,67
 206 924 206 924 237.5 901 c 128,-1,68
 269 878 269 878 318 878 c 0,69,70
 343 878 343 878 370.5 885 c 128,-1,71
 398 892 398 892 427 908 c 1,72,73
 423 935 423 935 409.5 956.5 c 128,-1,74
 396 978 396 978 377 993 c 128,-1,75
 358 1008 358 1008 336.5 1016 c 128,-1,76
 315 1024 315 1024 294 1024 c 0,61,62
EndSplineSet
EndChar

StartChar: Egrave
Encoding: 200 200 134
Width: 933
Flags: W
LayerCount: 2
Fore
SplineSet
705 -23 m 1,0,1
 628 36 628 36 563 98 c 128,-1,2
 498 160 498 160 453 223 c 1,3,4
 445 222 445 222 438.5 222 c 128,-1,5
 432 222 432 222 425 222 c 0,6,7
 354 222 354 222 288 246 c 128,-1,8
 222 270 222 270 171.5 314 c 128,-1,9
 121 358 121 358 90.5 421.5 c 128,-1,10
 60 485 60 485 60 563 c 0,11,12
 60 632 60 632 90.5 685 c 128,-1,13
 121 738 121 738 171.5 774 c 128,-1,14
 222 810 222 810 287 828.5 c 128,-1,15
 352 847 352 847 420 847 c 2,16,-1
 555 847 l 1,17,-1
 555 998 l 1,18,-1
 0 998 l 1,19,-1
 0 1118 l 1,20,-1
 953 1118 l 1,21,-1
 953 998 l 1,22,-1
 675 998 l 1,23,-1
 675 727 l 1,24,-1
 466 727 l 2,25,26
 442 727 442 727 412 725.5 c 128,-1,27
 382 724 382 724 350 717.5 c 128,-1,28
 318 711 318 711 287.5 699 c 128,-1,29
 257 687 257 687 233 666.5 c 128,-1,30
 209 646 209 646 194.5 615.5 c 128,-1,31
 180 585 180 585 180 542 c 0,32,33
 180 495 180 495 199.5 460 c 128,-1,34
 219 425 219 425 249.5 400.5 c 128,-1,35
 280 376 280 376 317 362 c 128,-1,36
 354 348 354 348 389 344 c 1,37,38
 375 386 375 386 375 425 c 0,39,40
 375 462 375 462 388.5 493.5 c 128,-1,41
 402 525 402 525 426 548 c 128,-1,42
 450 571 450 571 483 584 c 128,-1,43
 516 597 516 597 555 597 c 0,44,45
 588 597 588 597 620 586.5 c 128,-1,46
 652 576 652 576 677 555 c 128,-1,47
 702 534 702 534 717.5 503 c 128,-1,48
 733 472 733 472 733 432 c 256,49,50
 733 392 733 392 718 360.5 c 128,-1,51
 703 329 703 329 678.5 306 c 128,-1,52
 654 283 654 283 621.5 266.5 c 128,-1,53
 589 250 589 250 555 240 c 1,54,55
 630 147 630 147 764 48 c 1,56,-1
 705 -23 l 1,0,1
613 455 m 0,57,58
 613 483 613 483 598 500 c 128,-1,59
 583 517 583 517 555 517 c 0,60,61
 524 517 524 517 499.5 492.5 c 128,-1,62
 475 468 475 468 475 424 c 0,63,64
 475 387 475 387 490 348 c 1,65,66
 515 352 515 352 537 360.5 c 128,-1,67
 559 369 559 369 576 382 c 128,-1,68
 593 395 593 395 603 413 c 128,-1,69
 613 431 613 431 613 455 c 0,57,58
EndSplineSet
EndChar

StartChar: Eacute
Encoding: 201 201 135
Width: 1190
Flags: W
LayerCount: 2
Fore
SplineSet
160 900 m 0,0,1
 160 855 160 855 183 817.5 c 128,-1,2
 206 780 206 780 238 753.5 c 128,-1,3
 270 727 270 727 303.5 712.5 c 128,-1,4
 337 698 337 698 357 698 c 2,5,-1
 576 698 l 1,6,-1
 576 578 l 1,7,-1
 327 578 l 2,8,9
 316 578 316 578 300.5 575.5 c 128,-1,10
 285 573 285 573 271 565 c 128,-1,11
 257 557 257 557 247 542.5 c 128,-1,12
 237 528 237 528 237 504 c 0,13,14
 237 460 237 460 260.5 426.5 c 128,-1,15
 284 393 284 393 321.5 370 c 128,-1,16
 359 347 359 347 405.5 335 c 128,-1,17
 452 323 452 323 497 323 c 0,18,19
 550 323 550 323 603.5 336 c 128,-1,20
 657 349 657 349 705.5 373.5 c 128,-1,21
 754 398 754 398 796.5 433 c 128,-1,22
 839 468 839 468 870 513 c 1,23,-1
 870 998 l 1,24,-1
 709 998 l 1,25,-1
 709 1118 l 1,26,-1
 1210 1118 l 1,27,-1
 1210 998 l 1,28,-1
 990 998 l 1,29,-1
 990 0 l 1,30,-1
 870 0 l 1,31,-1
 870 342 l 1,32,33
 839 313 839 313 802 287.5 c 128,-1,34
 765 262 765 262 719.5 243.5 c 128,-1,35
 674 225 674 225 619 214 c 128,-1,36
 564 203 564 203 496 203 c 0,37,38
 463 203 463 203 422.5 210 c 128,-1,39
 382 217 382 217 340 233 c 128,-1,40
 298 249 298 249 258 274 c 128,-1,41
 218 299 218 299 186.5 335 c 128,-1,42
 155 371 155 371 136 419 c 128,-1,43
 117 467 117 467 117 528 c 0,44,45
 117 571 117 571 139 613.5 c 128,-1,46
 161 656 161 656 212 678 c 1,47,48
 174 695 174 695 145.5 720.5 c 128,-1,49
 117 746 117 746 98 777 c 128,-1,50
 79 808 79 808 69.5 842 c 128,-1,51
 60 876 60 876 60 911 c 0,52,53
 60 966 60 966 85 1013 c 128,-1,54
 110 1060 110 1060 152.5 1094 c 128,-1,55
 195 1128 195 1128 251.5 1147 c 128,-1,56
 308 1166 308 1166 371 1166 c 0,57,58
 413 1166 413 1166 450.5 1153 c 128,-1,59
 488 1140 488 1140 516 1116.5 c 128,-1,60
 544 1093 544 1093 560 1060.5 c 128,-1,61
 576 1028 576 1028 576 989 c 0,62,63
 576 956 576 956 562.5 927 c 128,-1,64
 549 898 549 898 524.5 875.5 c 128,-1,65
 500 853 500 853 466 840 c 128,-1,66
 432 827 432 827 391 827 c 0,67,68
 354 827 354 827 322 839 c 128,-1,69
 290 851 290 851 263 872 c 128,-1,70
 236 893 236 893 215.5 921 c 128,-1,71
 195 949 195 949 182 981 c 1,72,73
 160 943 160 943 160 900 c 0,0,1
380 927 m 0,74,75
 417 927 417 927 436.5 948 c 128,-1,76
 456 969 456 969 456 992 c 0,77,78
 456 1007 456 1007 449 1020 c 128,-1,79
 442 1033 442 1033 429 1043.5 c 128,-1,80
 416 1054 416 1054 399 1060 c 128,-1,81
 382 1066 382 1066 363 1066 c 0,82,83
 328 1066 328 1066 299 1059 c 128,-1,84
 270 1052 270 1052 247 1040 c 1,85,86
 256 1017 256 1017 272 996.5 c 128,-1,87
 288 976 288 976 306.5 960.5 c 128,-1,88
 325 945 325 945 344 936 c 128,-1,89
 363 927 363 927 380 927 c 0,74,75
EndSplineSet
EndChar

StartChar: Ecircumflex
Encoding: 202 202 136
Width: 1045
Flags: W
LayerCount: 2
Fore
SplineSet
1065 998 m 1,0,-1
 845 998 l 1,1,-1
 845 0 l 1,2,-1
 725 0 l 1,3,-1
 725 593 l 1,4,-1
 403 593 l 2,5,6
 384 593 384 593 377.5 579.5 c 128,-1,7
 371 566 371 566 371 542 c 2,8,-1
 371 472 l 2,9,10
 371 468 371 468 369 458.5 c 128,-1,11
 367 449 367 449 361 439.5 c 128,-1,12
 355 430 355 430 343.5 422.5 c 128,-1,13
 332 415 332 415 313 415 c 0,14,15
 288 415 288 415 260 426 c 128,-1,16
 232 437 232 437 204 455.5 c 128,-1,17
 176 474 176 474 150 498 c 128,-1,18
 124 522 124 522 104 548.5 c 128,-1,19
 84 575 84 575 72 602.5 c 128,-1,20
 60 630 60 630 60 654 c 0,21,22
 60 680 60 680 76.5 696.5 c 128,-1,23
 93 713 93 713 125 713 c 2,24,-1
 725 713 l 1,25,-1
 725 998 l 1,26,-1
 0 998 l 1,27,-1
 0 1118 l 1,28,-1
 1065 1118 l 1,29,-1
 1065 998 l 1,0,-1
EndSplineSet
EndChar

StartChar: Edieresis
Encoding: 203 203 137
Width: 1045
Flags: W
LayerCount: 2
Fore
SplineSet
185 88 m 256,0,1
 185 125 185 125 211.5 150.5 c 128,-1,2
 238 176 238 176 275 176 c 256,3,4
 312 176 312 176 338 150.5 c 128,-1,5
 364 125 364 125 364 88 c 256,6,7
 364 51 364 51 338 25.5 c 128,-1,8
 312 0 312 0 275 0 c 256,9,10
 238 0 238 0 211.5 25.5 c 128,-1,11
 185 51 185 51 185 88 c 256,0,1
1065 998 m 1,12,-1
 845 998 l 1,13,-1
 845 0 l 1,14,-1
 725 0 l 1,15,-1
 725 593 l 1,16,-1
 403 593 l 2,17,18
 384 593 384 593 377.5 579.5 c 128,-1,19
 371 566 371 566 371 542 c 2,20,-1
 371 472 l 2,21,22
 371 468 371 468 369 458.5 c 128,-1,23
 367 449 367 449 361 439.5 c 128,-1,24
 355 430 355 430 343.5 422.5 c 128,-1,25
 332 415 332 415 313 415 c 0,26,27
 288 415 288 415 260 426 c 128,-1,28
 232 437 232 437 204 455.5 c 128,-1,29
 176 474 176 474 150 498 c 128,-1,30
 124 522 124 522 104 548.5 c 128,-1,31
 84 575 84 575 72 602.5 c 128,-1,32
 60 630 60 630 60 654 c 0,33,34
 60 680 60 680 76.5 696.5 c 128,-1,35
 93 713 93 713 125 713 c 2,36,-1
 725 713 l 1,37,-1
 725 998 l 1,38,-1
 0 998 l 1,39,-1
 0 1118 l 1,40,-1
 1065 1118 l 1,41,-1
 1065 998 l 1,12,-1
EndSplineSet
EndChar

StartChar: Igrave
Encoding: 204 204 138
Width: 900
Flags: W
LayerCount: 2
Fore
SplineSet
920 998 m 1,0,-1
 700 998 l 1,1,-1
 700 0 l 1,2,-1
 580 0 l 1,3,-1
 580 386 l 1,4,5
 566 365 566 365 545 349 c 128,-1,6
 524 333 524 333 498.5 322 c 128,-1,7
 473 311 473 311 446 305.5 c 128,-1,8
 419 300 419 300 393 300 c 0,9,10
 320 300 320 300 262 327.5 c 128,-1,11
 204 355 204 355 163.5 399.5 c 128,-1,12
 123 444 123 444 101.5 501 c 128,-1,13
 80 558 80 558 80 618 c 2,14,-1
 80 998 l 1,15,-1
 0 998 l 1,16,-1
 0 1118 l 1,17,-1
 920 1118 l 1,18,-1
 920 998 l 1,0,-1
580 998 m 1,19,-1
 200 998 l 1,20,-1
 200 616 l 2,21,22
 200 566 200 566 216.5 529 c 128,-1,23
 233 492 233 492 260.5 467.5 c 128,-1,24
 288 443 288 443 324 430.5 c 128,-1,25
 360 418 360 418 398 418 c 0,26,27
 429 418 429 418 461.5 428.5 c 128,-1,28
 494 439 494 439 520 461 c 128,-1,29
 546 483 546 483 563 518 c 128,-1,30
 580 553 580 553 580 601 c 2,31,-1
 580 998 l 1,19,-1
EndSplineSet
EndChar

StartChar: Iacute
Encoding: 205 205 139
Width: 1364
Flags: W
LayerCount: 2
Fore
SplineSet
580 998 m 1,0,-1
 200 998 l 1,1,-1
 200 616 l 2,2,3
 200 566 200 566 216.5 529 c 128,-1,4
 233 492 233 492 260.5 467.5 c 128,-1,5
 288 443 288 443 324 430.5 c 128,-1,6
 360 418 360 418 398 418 c 0,7,8
 429 418 429 418 461.5 428.5 c 128,-1,9
 494 439 494 439 520 461 c 128,-1,10
 546 483 546 483 563 518 c 128,-1,11
 580 553 580 553 580 601 c 2,12,-1
 580 998 l 1,0,-1
700 714 m 1,13,14
 724 742 724 742 752 760.5 c 128,-1,15
 780 779 780 779 808.5 790 c 128,-1,16
 837 801 837 801 865.5 805.5 c 128,-1,17
 894 810 894 810 919 810 c 0,18,19
 992 810 992 810 1042.5 782.5 c 128,-1,20
 1093 755 1093 755 1124.5 714.5 c 128,-1,21
 1156 674 1156 674 1170 627.5 c 128,-1,22
 1184 581 1184 581 1184 542 c 0,23,24
 1184 473 1184 473 1160.5 420 c 128,-1,25
 1137 367 1137 367 1102 328 c 128,-1,26
 1067 289 1067 289 1027.5 263.5 c 128,-1,27
 988 238 988 238 957 224 c 1,28,-1
 896 315 l 1,29,30
 943 340 943 340 975.5 366.5 c 128,-1,31
 1008 393 1008 393 1027.5 421.5 c 128,-1,32
 1047 450 1047 450 1055.5 481.5 c 128,-1,33
 1064 513 1064 513 1064 548 c 0,34,35
 1064 580 1064 580 1053 606.5 c 128,-1,36
 1042 633 1042 633 1022.5 651.5 c 128,-1,37
 1003 670 1003 670 976.5 680 c 128,-1,38
 950 690 950 690 919 690 c 0,39,40
 854 690 854 690 796 648 c 128,-1,41
 738 606 738 606 700 537 c 1,42,-1
 700 0 l 1,43,-1
 580 0 l 1,44,-1
 580 386 l 1,45,46
 566 365 566 365 545 349 c 128,-1,47
 524 333 524 333 498.5 322 c 128,-1,48
 473 311 473 311 446 305.5 c 128,-1,49
 419 300 419 300 393 300 c 0,50,51
 320 300 320 300 262 327.5 c 128,-1,52
 204 355 204 355 163.5 399.5 c 128,-1,53
 123 444 123 444 101.5 501 c 128,-1,54
 80 558 80 558 80 618 c 2,55,-1
 80 998 l 1,56,-1
 0 998 l 1,57,-1
 0 1118 l 1,58,-1
 1384 1118 l 1,59,-1
 1384 998 l 1,60,-1
 700 998 l 1,61,-1
 700 714 l 1,13,14
EndSplineSet
EndChar

